<svg xmlns="http://www.w3.org/2000/svg" xmlns:xlink="http://www.w3.org/1999/xlink" width="1080" zoomAndPan="magnify" viewBox="0 0 810 809.999993" height="1080" preserveAspectRatio="xMidYMid meet" version="1.0"><rect x="-81" width="972" fill="rgb(49.409485%, 85.099792%, 34.118652%)" y="-80.999999" height="971.999992" fill-opacity="1"/><rect x="-81" width="972" fill="rgb(100%, 100%, 100%)" y="-80.999999" height="971.999992" fill-opacity="1"/><rect x="-81" width="972" fill="rgb(49.409485%, 85.099792%, 34.118652%)" y="-80.999999" height="971.999992" fill-opacity="1"/><path fill="rgb(57.649231%, 36.079407%, 21.179199%)" d="M 142.125 162.628906 C 138.699219 165.132812 136.089844 167.941406 134.136719 171.058594 C 129.863281 164.800781 122.351562 149.667969 123.648438 128.054688 C 124.148438 119.90625 126.742188 100.53125 128.398438 104.742188 C 131.660156 111.0625 137.011719 115.445312 139.84375 118.617188 C 146.53125 126.109375 152.113281 128.820312 158.257812 136.855469 C 161.90625 141.632812 165.25 148.785156 164.605469 155.328125 C 156.609375 155.707031 148.65625 157.839844 142.125 162.628906 " fill-opacity="1" fill-rule="nonzero"/><path fill="rgb(98.039246%, 75.289917%, 69.018555%)" d="M 134.917969 169.929688 C 126.683594 153.199219 123.917969 136.632812 127.417969 118.429688 C 129.574219 122.21875 131.847656 125.953125 134.34375 129.628906 C 140.214844 138.253906 147.429688 147.144531 148.078125 157.964844 C 148.105469 158.375 148.1875 158.746094 148.261719 159.125 C 146.128906 160.097656 144.050781 161.21875 142.125 162.628906 C 139.121094 164.828125 136.78125 167.273438 134.917969 169.929688 " fill-opacity="1" fill-rule="nonzero"/><path fill="rgb(33.329773%, 17.649841%, 9.408569%)" d="M 580.65625 358.511719 C 580.65625 358.511719 619.007812 338.910156 623.042969 371.199219 C 627.085938 403.476562 579.851562 473.679688 607.703125 532.1875 C 635.566406 590.699219 701.371094 560.433594 685.621094 520.890625 C 685.621094 520.890625 671.085938 545.75 658.980469 535.335938 C 646.867188 524.921875 630.320312 514.027344 657.769531 469.246094 C 685.214844 424.460938 725.1875 343.753906 669.074219 294.933594 C 612.953125 246.113281 541.902344 286.859375 547.957031 353.039062 C 554.011719 419.210938 580.65625 358.511719 580.65625 358.511719 " fill-opacity="1" fill-rule="nonzero"/><path fill="rgb(53.729248%, 33.729553%, 19.60907%)" d="M 453.222656 559.109375 C 447.871094 565.535156 443.792969 572.890625 439.117188 579.796875 C 429.960938 593.3125 424.515625 606.238281 421.765625 613.414062 C 416.214844 627.894531 433.738281 664.949219 441.058594 642.445312 C 448.917969 618.285156 469.140625 616.359375 483.707031 595.402344 C 489.042969 587.722656 494.539062 580.175781 499.707031 572.347656 C 503.992188 565.839844 507.410156 557.5 501.480469 551.023438 C 497.132812 546.269531 477.195312 530.335938 453.222656 559.109375 " fill-opacity="1" fill-rule="nonzero"/><path fill="rgb(53.729248%, 33.729553%, 19.60907%)" d="M 423.625 608.75 C 418.125 616.660156 412.507812 663.808594 409.667969 672 C 407.238281 679.011719 402.464844 685.160156 400.929688 692.492188 C 399.539062 699.101562 393.132812 711.261719 398.566406 716.867188 C 403.773438 722.230469 413.777344 721.910156 420.503906 721.421875 C 429.113281 720.773438 438.679688 720.960938 447.128906 716.933594 C 452.308594 714.460938 453.585938 712.101562 452.0625 706.671875 C 451.121094 703.34375 450.585938 700.121094 449.648438 696.777344 C 448.570312 692.90625 447.054688 689.320312 445.03125 686.140625 C 442.824219 682.652344 440.367188 680.972656 443.117188 676.929688 C 445.828125 672.949219 451.351562 672.332031 453.789062 668.027344 C 456.484375 663.300781 451.691406 660.128906 449.476562 655.992188 C 444.3125 646.390625 443.597656 637.632812 449.894531 626.804688 L 423.625 608.75 " fill-opacity="1" fill-rule="nonzero"/><path fill="rgb(14.509583%, 8.239746%, 7.058716%)" d="M 449.648438 696.777344 C 448.710938 693.398438 447.367188 690.292969 445.714844 687.433594 C 435.714844 689.839844 423.941406 690.113281 414.261719 687.945312 C 409.972656 686.980469 406.792969 685.332031 404.515625 683.035156 C 403.007812 686.066406 401.625 689.15625 400.929688 692.492188 C 399.539062 699.101562 393.132812 711.261719 398.566406 716.867188 C 403.773438 722.230469 413.777344 721.910156 420.503906 721.421875 C 429.113281 720.773438 438.679688 720.960938 447.128906 716.933594 C 452.308594 714.460938 453.585938 712.101562 452.0625 706.671875 C 451.121094 703.34375 450.585938 700.121094 449.648438 696.777344 " fill-opacity="1" fill-rule="nonzero"/><path fill="rgb(53.729248%, 33.729553%, 19.60907%)" d="M 512.605469 373.21875 C 520.429688 388.710938 520.410156 404.464844 517.785156 421.148438 C 512.046875 457.550781 494.042969 492.792969 493.492188 529.03125 C 493.390625 536.226562 494.085938 542.324219 499.511719 548.414062 C 487.375 556.339844 449.367188 584.289062 446.660156 567.554688 C 443.035156 545.15625 425.992188 521.371094 422.464844 514.332031 C 403.054688 475.539062 374.679688 444.433594 365.25 400.089844 C 362.09375 385.199219 366.664062 366.859375 375.707031 354.636719 C 389.417969 336.066406 412.296875 341.792969 432.769531 340.324219 C 453.253906 338.851562 480.21875 309.097656 512.605469 373.21875 " fill-opacity="1" fill-rule="nonzero"/><path fill="rgb(53.729248%, 33.729553%, 19.60907%)" d="M 256.097656 494.640625 C 245.421875 500.257812 234.464844 500.425781 222.828125 498.800781 C 197.457031 495.242188 179.867188 491.433594 154.667969 491.476562 C 149.660156 491.484375 144.234375 491.871094 139.046875 492.457031 C 133.398438 484.132812 108.707031 454.535156 116.636719 445.820312 C 120.140625 441.964844 128.109375 440.636719 132.574219 438.066406 C 137.160156 435.421875 142.382812 433.179688 147.246094 430.648438 C 173.988281 416.707031 204.972656 399.683594 235.683594 392.613281 C 246 390.234375 258.804688 393.199219 267.417969 399.332031 C 280.472656 408.640625 287.25 422.894531 288.523438 437.101562 C 289.777344 451.308594 300.300781 471.386719 256.097656 494.640625 " fill-opacity="1" fill-rule="nonzero"/><path fill="rgb(53.729248%, 33.729553%, 19.60907%)" d="M 103.683594 478.324219 C 103.757812 486.664062 105.398438 494.921875 106.296875 503.210938 C 108.050781 519.433594 110.183594 535.78125 115.023438 551.410156 C 118.484375 562.578125 122.882812 579.566406 135.050781 584.394531 C 149.421875 590.113281 151.058594 572.144531 149.675781 562.566406 C 146.070312 537.429688 152.855469 511.722656 150.417969 486.316406 C 149.527344 477.007812 148.835938 467.703125 147.710938 458.386719 C 146.785156 450.65625 143.988281 442.078125 135.28125 440.972656 C 128.882812 440.152344 103.378906 440.875 103.683594 478.324219 " fill-opacity="1" fill-rule="nonzero"/><path fill="rgb(57.649231%, 36.079407%, 21.179199%)" d="M 236.367188 336.082031 C 236.316406 336.410156 236.273438 336.699219 236.234375 336.972656 C 232.3125 362.25 219.566406 385.332031 217.203125 410.972656 C 215.128906 433.476562 212.335938 483.746094 227.09375 501.191406 C 243.859375 521.023438 277.546875 506.570312 302.671875 510.535156 C 330.0625 514.851562 358.910156 517.421875 386.628906 516.375 C 425.824219 514.902344 476.171875 500.8125 512.183594 484.859375 C 545.148438 470.257812 563.734375 457.816406 569.878906 448.917969 C 586.40625 424.964844 597.160156 403.128906 591.609375 375.164062 C 586.421875 349.058594 571.375 330.214844 544.457031 325.503906 C 537.613281 324.308594 472.359375 323.671875 465.632812 323.441406 C 436.144531 322.421875 407.570312 329.300781 377.816406 331.894531 C 358.71875 333.550781 318.773438 314.097656 309.382812 245.5625 C 305.25 215.445312 296.191406 183.292969 240.714844 151.71875 L 227.828125 295.714844 C 241.570312 296.234375 237.765625 326.804688 236.367188 336.082031 " fill-opacity="1" fill-rule="nonzero"/><path fill="rgb(98.039246%, 75.289917%, 67.83905%)" d="M 90.765625 270.039062 C 92.585938 275.644531 104.449219 284.269531 110.058594 282.449219 C 115.675781 280.628906 112.917969 269.050781 111.097656 263.433594 C 109.269531 257.820312 103.242188 254.753906 97.625 256.5625 C 92.015625 258.390625 88.945312 264.421875 90.765625 270.039062 " fill-opacity="1" fill-rule="nonzero"/><path fill="rgb(57.649231%, 36.079407%, 21.179199%)" d="M 240.714844 151.71875 C 229.507812 144.894531 213.324219 142.398438 200.125 141.738281 C 175.980469 140.527344 137.835938 147.960938 129.507812 173.15625 C 122.527344 194.261719 127.449219 218.648438 120.351562 239.273438 C 112.398438 262.394531 91.414062 275.675781 88.007812 301.054688 C 85.089844 322.800781 93.910156 345.789062 117.421875 350.648438 C 126.125 352.453125 140.257812 353.707031 148.695312 350.734375 C 159.699219 346.875 162.648438 336.199219 169.101562 328.492188 C 183.367188 311.429688 210.910156 321.917969 229.035156 308.839844 C 250.734375 293.179688 255.246094 264.617188 258.164062 242.585938 C 267.90625 169.277344 253.363281 159.429688 240.714844 151.71875 " fill-opacity="1" fill-rule="nonzero"/><path fill="rgb(98.039246%, 75.289917%, 67.83905%)" d="M 178.992188 321.21875 C 181.941406 310.480469 181.140625 299.035156 174.085938 288.273438 C 160.882812 268.121094 132.472656 248.46875 108.707031 260.597656 C 99.996094 273 90.238281 284.433594 88.007812 301.054688 C 85.089844 322.800781 93.910156 345.789062 117.421875 350.648438 C 126.125 352.453125 140.257812 353.707031 148.695312 350.734375 C 159.699219 346.875 162.648438 336.199219 169.101562 328.492188 C 171.929688 325.113281 175.296875 322.839844 178.992188 321.21875 " fill-opacity="1" fill-rule="nonzero"/><path fill="rgb(47.059631%, 29.019165%, 16.859436%)" d="M 251.140625 215.816406 C 251.140625 215.816406 252.035156 217.035156 253.289062 219.375 C 254.539062 221.707031 256.128906 225.160156 257.519531 229.519531 C 258.179688 231.703125 258.878906 234.089844 259.355469 236.679688 C 259.867188 239.25 260.3125 242.007812 260.492188 244.882812 C 260.730469 247.746094 260.765625 250.734375 260.617188 253.765625 C 260.394531 256.789062 260.097656 259.855469 259.503906 262.886719 C 258.929688 265.914062 258.082031 268.886719 257.148438 271.769531 C 256.226562 274.65625 255 277.382812 253.765625 279.984375 C 252.507812 282.566406 251.132812 284.988281 249.691406 287.179688 C 248.324219 289.421875 246.789062 291.375 245.398438 293.179688 C 243.941406 294.941406 242.632812 296.5625 241.316406 297.859375 C 240.039062 299.199219 238.941406 300.355469 237.9375 301.226562 C 235.96875 303 234.832031 303.964844 234.832031 303.964844 C 234.832031 303.964844 235.699219 302.734375 237.269531 300.632812 C 238.078125 299.613281 238.925781 298.253906 239.972656 296.785156 C 241.042969 295.320312 242.070312 293.546875 243.289062 291.695312 C 243.898438 290.773438 244.417969 289.742188 245.019531 288.71875 C 245.613281 287.683594 246.238281 286.628906 246.789062 285.492188 C 247.984375 283.273438 249.0625 280.84375 250.160156 278.347656 C 251.230469 275.832031 252.144531 273.15625 253.015625 270.4375 C 253.855469 267.707031 254.597656 264.898438 255.089844 262.039062 C 255.699219 259.199219 256.023438 256.320312 256.292969 253.472656 C 256.441406 250.621094 256.65625 247.800781 256.542969 245.074219 C 256.484375 242.339844 256.328125 239.695312 256.054688 237.195312 C 255.785156 234.691406 255.398438 232.328125 255.019531 230.144531 C 253.378906 221.457031 251.140625 215.816406 251.140625 215.816406 " fill-opacity="1" fill-rule="nonzero"/><path fill="rgb(98.039246%, 75.289917%, 67.83905%)" d="M 174.132812 273.558594 C 171.097656 282.894531 151.382812 297.230469 142.042969 294.207031 C 132.714844 291.175781 137.292969 271.925781 140.324219 262.59375 C 143.359375 253.257812 153.382812 248.148438 162.714844 251.179688 C 172.050781 254.203125 177.164062 264.230469 174.132812 273.558594 " fill-opacity="1" fill-rule="nonzero"/><path fill="rgb(97.24884%, 64.309692%, 55.288696%)" d="M 161.796875 262.433594 C 160.300781 260.605469 158.25 259.082031 155.96875 258.539062 C 153.792969 258.035156 149.234375 258.59375 147.699219 260.484375 C 145.609375 263.0625 147.667969 267.230469 149.027344 269.671875 C 152.78125 276.394531 154.773438 281.511719 153.523438 287.820312 C 156.972656 285.796875 160.433594 281.4375 161.945312 279.34375 C 165.191406 274.796875 165.734375 268.261719 162.613281 263.539062 C 162.367188 263.160156 162.101562 262.796875 161.796875 262.433594 " fill-opacity="1" fill-rule="nonzero"/><path fill="rgb(96.859741%, 59.609985%, 53.729248%)" d="M 152.171875 270.519531 C 150.804688 268.070312 148.753906 263.902344 150.839844 261.316406 C 152.121094 259.75 155.472656 259.113281 157.820312 259.230469 C 157.226562 258.941406 156.609375 258.695312 155.96875 258.539062 C 153.792969 258.035156 149.234375 258.59375 147.699219 260.484375 C 145.609375 263.0625 147.667969 267.230469 149.027344 269.671875 C 152.78125 276.394531 154.773438 281.511719 153.523438 287.820312 C 154.714844 287.121094 155.894531 286.140625 157.003906 285.085938 C 157.03125 280.300781 155.1875 275.925781 152.171875 270.519531 " fill-opacity="1" fill-rule="nonzero"/><path fill="rgb(97.24884%, 64.309692%, 55.288696%)" d="M 174.414062 309.054688 C 174.414062 309.054688 174.214844 310.210938 173.625 312.1875 C 173.007812 314.148438 172.132812 316.980469 170.617188 320.1875 C 169.878906 321.800781 168.980469 323.5 167.992188 325.28125 C 166.96875 327.035156 165.875 328.898438 164.53125 330.683594 C 163.222656 332.488281 161.78125 334.300781 160.167969 336.007812 C 158.5625 337.722656 156.824219 339.371094 154.972656 340.886719 C 154.066406 341.667969 153.0625 342.328125 152.113281 343.046875 C 151.117188 343.703125 150.136719 344.371094 149.125 344.972656 C 147.089844 346.167969 145 347.191406 142.917969 348.023438 C 140.855469 348.886719 138.765625 349.503906 136.78125 349.984375 C 134.789062 350.484375 132.878906 350.773438 131.117188 351.03125 C 129.351562 351.203125 127.730469 351.367188 126.289062 351.34375 C 124.839844 351.316406 123.589844 351.390625 122.566406 351.277344 C 120.515625 351.105469 119.339844 351.011719 119.339844 351.011719 C 119.339844 351.011719 120.515625 350.953125 122.558594 350.847656 C 123.582031 350.839844 124.816406 350.632812 126.230469 350.511719 C 127.640625 350.371094 129.207031 350.039062 130.917969 349.777344 C 132.621094 349.414062 134.457031 349.019531 136.34375 348.402344 C 138.230469 347.816406 140.175781 347.074219 142.148438 346.199219 C 144.125 345.359375 146.054688 344.257812 147.996094 343.117188 C 148.960938 342.535156 149.890625 341.875 150.839844 341.242188 C 151.742188 340.546875 152.691406 339.898438 153.554688 339.148438 C 155.34375 337.707031 157.03125 336.148438 158.59375 334.515625 C 160.144531 332.878906 161.640625 331.210938 162.945312 329.492188 C 165.609375 326.09375 167.835938 322.683594 169.488281 319.617188 C 171.160156 316.5625 172.4375 313.933594 173.21875 312.046875 C 174.019531 310.160156 174.414062 309.054688 174.414062 309.054688 " fill-opacity="1" fill-rule="nonzero"/><path fill="rgb(33.329773%, 17.649841%, 9.408569%)" d="M 200.125 141.738281 C 199.820312 141.894531 189.566406 148.058594 187.34375 153.191406 C 184.34375 160.121094 187.589844 167.984375 186.929688 175.101562 C 183.570312 171.890625 182.667969 166.144531 182.4375 161.710938 C 172.585938 166.855469 174.101562 181.605469 173.410156 190.792969 C 171.582031 185.5 170.027344 174.683594 164.738281 171.425781 C 163.296875 177.292969 164.441406 184.875 163.726562 190.898438 C 162.886719 198.023438 161 203.296875 156.199219 208.875 C 152.476562 213.1875 148.226562 216.367188 145.773438 221.617188 C 143 227.558594 142.800781 231.363281 142.316406 237.921875 C 140.644531 233.746094 140.15625 230.96875 140.15625 226.039062 C 140.15625 219.785156 141.53125 214.703125 143.515625 208.777344 C 147.347656 197.324219 145.855469 182.121094 140.847656 171.507812 C 137.808594 171.238281 132.285156 168.824219 126.777344 180.761719 C 126.042969 173.710938 128.101562 166.722656 130.421875 160.113281 C 131.78125 156.257812 134.53125 152.832031 135.613281 148.992188 C 130.5 150.714844 125.53125 155.195312 119.601562 156.066406 C 123.71875 146.9375 128.933594 140.875 136.855469 134.160156 C 140.027344 131.480469 142.613281 128.390625 146.160156 126.222656 C 148.203125 124.964844 150.679688 124.074219 152.445312 122.558594 C 146.804688 117.425781 138.839844 120.09375 131.949219 119.246094 C 137.101562 113.402344 143.246094 109.695312 149.972656 105.9375 C 155.410156 102.890625 158.160156 101.585938 164.464844 101.785156 C 167.859375 101.898438 171.21875 102.3125 174.613281 102.097656 C 171.777344 100.34375 168.558594 98.175781 165.4375 96.636719 C 160.449219 94.171875 152.863281 93.386719 148.753906 90.25 C 155.96875 87.746094 164.617188 88.78125 171.976562 90.085938 C 176.191406 90.835938 180.484375 92.210938 184.417969 93.988281 C 186.933594 95.128906 192.464844 99.535156 194.851562 98.800781 C 194.851562 98.800781 217.015625 105.527344 221.074219 118.617188 C 225.132812 131.710938 200.125 141.738281 200.125 141.738281 " fill-opacity="1" fill-rule="nonzero"/><path fill="rgb(22.749329%, 12.548828%, 8.239746%)" d="M 211.761719 223.15625 C 211.761719 223.15625 211.324219 222.300781 210.6875 220.867188 C 210.367188 220.183594 209.980469 219.351562 209.535156 218.394531 C 209.066406 217.472656 208.589844 216.441406 207.988281 215.46875 C 207.394531 214.488281 206.734375 213.546875 205.972656 212.800781 C 205.589844 212.421875 205.203125 212.082031 204.71875 211.703125 C 204.480469 211.511719 204.214844 211.316406 203.914062 211.0625 L 203.804688 210.96875 L 203.753906 210.921875 L 203.738281 210.914062 L 203.835938 211.011719 L 203.804688 210.988281 L 203.566406 210.804688 L 203.089844 210.441406 L 202.480469 210.121094 C 202.242188 209.996094 202.011719 209.855469 201.761719 209.757812 C 201.269531 209.519531 200.75 209.371094 200.246094 209.199219 C 199.203125 208.933594 198.121094 208.761719 197.003906 208.820312 C 195.882812 208.820312 194.761719 209.050781 193.617188 209.40625 C 192.644531 209.710938 192.457031 209.847656 191.957031 210.003906 C 191.460938 210.238281 190.976562 210.492188 190.515625 210.765625 C 189.609375 211.339844 188.777344 212.042969 188.035156 212.890625 C 187.269531 213.730469 186.644531 214.742188 186.050781 215.730469 C 185.484375 216.730469 184.980469 217.734375 184.558594 218.675781 C 184.140625 219.605469 183.734375 220.460938 183.441406 221.171875 C 182.832031 222.605469 182.425781 223.476562 182.425781 223.476562 C 182.425781 223.476562 181.984375 222.628906 181.53125 221.082031 C 181.066406 219.523438 180.53125 217.257812 180.664062 214.300781 C 180.765625 212.832031 181.003906 211.183594 181.667969 209.445312 C 182.328125 207.722656 183.382812 205.925781 184.875 204.371094 C 185.613281 203.578125 186.476562 202.917969 187.367188 202.277344 C 188.316406 201.644531 189.597656 200.96875 190.21875 200.726562 C 192.183594 199.828125 194.457031 199.308594 196.753906 199.230469 C 199.046875 199.1875 201.390625 199.605469 203.5 200.503906 C 204.554688 200.941406 205.558594 201.492188 206.457031 202.152344 C 206.925781 202.457031 207.34375 202.8125 207.765625 203.160156 C 208.175781 203.511719 208.648438 204 209.015625 204.386719 C 209.304688 204.742188 209.59375 205.09375 209.875 205.441406 C 210.121094 205.761719 210.390625 206.132812 210.648438 206.527344 C 211.175781 207.304688 211.726562 208.160156 212.089844 209.042969 C 212.878906 210.796875 213.175781 212.492188 213.292969 213.960938 C 213.488281 216.925781 213.003906 219.167969 212.574219 220.75 C 212.402344 221.535156 212.128906 222.117188 212 222.523438 C 211.84375 222.933594 211.761719 223.15625 211.761719 223.15625 " fill-opacity="1" fill-rule="nonzero"/><path fill="rgb(22.749329%, 12.548828%, 8.239746%)" d="M 134.753906 199.410156 C 134.589844 198.675781 134.335938 197.949219 134.046875 197.257812 L 133.621094 196.3125 L 133.027344 195.273438 C 132.84375 194.976562 132.777344 194.769531 132.492188 194.398438 L 131.542969 193.289062 C 130.875 192.539062 130.226562 192.066406 129.492188 191.507812 C 128.449219 190.824219 127.285156 190.335938 126.082031 189.964844 C 125.804688 192.496094 125.605469 195.050781 125.433594 197.605469 L 125.625 197.6875 C 125.945312 197.910156 126.429688 198.125 126.652344 198.304688 L 127.0625 198.570312 C 127.21875 198.660156 127.476562 198.996094 127.679688 199.195312 L 127.996094 199.535156 L 128.152344 199.714844 L 128.175781 199.730469 L 128.058594 199.558594 L 128.09375 199.597656 L 128.160156 199.679688 L 128.671875 200.300781 C 128.992188 200.652344 129.214844 201.015625 129.46875 201.347656 C 129.914062 202.046875 130.316406 202.855469 130.621094 203.710938 C 131.15625 205.449219 131.578125 207.015625 131.816406 208.277344 C 132.085938 209.496094 132.300781 210.195312 132.300781 210.195312 C 132.300781 210.195312 132.707031 209.578125 133.289062 208.472656 C 133.585938 207.929688 133.914062 207.246094 134.171875 206.378906 C 134.492188 205.523438 134.738281 204.511719 134.886719 203.375 C 135.019531 202.226562 135.070312 200.882812 134.753906 199.410156 " fill-opacity="1" fill-rule="nonzero"/><path fill="rgb(53.729248%, 33.729553%, 19.60907%)" d="M 117.890625 560.558594 C 122.945312 590.261719 137.902344 599.636719 140.257812 601.015625 C 147.71875 605.414062 154.59375 611 160.449219 617.386719 C 165.472656 622.867188 168.625 629.984375 174.347656 634.816406 C 179.496094 639.179688 187.160156 650.601562 194.664062 648.484375 C 201.863281 646.457031 206.347656 637.5 209.109375 631.363281 C 212.625 623.484375 217.351562 615.164062 217.820312 605.8125 C 218.109375 600.082031 216.632812 597.835938 211.132812 596.605469 C 207.75 595.839844 204.660156 594.785156 201.269531 594.019531 C 197.355469 593.128906 193.476562 592.757812 189.714844 593.023438 C 185.589844 593.300781 182.945312 594.660156 180.699219 590.328125 C 178.484375 586.050781 180.558594 580.902344 177.945312 576.714844 C 175.050781 572.101562 169.992188 574.796875 165.296875 574.78125 C 154.386719 574.753906 149.914062 568.542969 148.671875 541.203125 L 117.890625 560.558594 " fill-opacity="1" fill-rule="nonzero"/><path fill="rgb(14.509583%, 8.239746%, 7.058716%)" d="M 211.132812 596.605469 C 207.75 595.839844 204.660156 594.785156 201.269531 594.019531 C 197.355469 593.128906 193.476562 592.757812 189.714844 593.023438 L 189.707031 593.023438 C 189.039062 599.300781 187.953125 605.488281 184.410156 610.84375 C 180.015625 617.484375 174.355469 623.277344 166.90625 626.007812 C 169.109375 629.195312 171.382812 632.316406 174.347656 634.816406 C 179.496094 639.179688 187.160156 650.601562 194.664062 648.484375 C 201.863281 646.457031 206.347656 637.5 209.109375 631.363281 C 212.625 623.484375 217.351562 615.164062 217.820312 605.8125 C 218.109375 600.082031 216.632812 597.835938 211.132812 596.605469 " fill-opacity="1" fill-rule="nonzero"/><path fill="rgb(57.649231%, 36.079407%, 21.179199%)" d="M 235.335938 544.195312 C 233.945312 552.894531 234.207031 561.761719 233.679688 570.550781 C 232.652344 587.734375 231.992188 605.101562 234.273438 622.207031 C 235.914062 634.441406 237.5 652.867188 249.300781 660.042969 C 263.246094 668.5 268.109375 650.105469 268.359375 639.90625 C 269.03125 613.121094 280.605469 587.582031 282.539062 560.722656 C 283.246094 550.890625 284.167969 541.085938 284.636719 531.199219 C 285.027344 522.992188 283.632812 513.582031 274.765625 510.898438 C 268.257812 508.925781 241.601562 505.1875 235.335938 544.195312 " fill-opacity="1" fill-rule="nonzero"/><path fill="rgb(57.649231%, 36.079407%, 21.179199%)" d="M 233.179688 611.011719 C 235.113281 631.832031 235.601562 638.546875 235.304688 641.398438 C 234.363281 650.496094 232.015625 659.535156 228.453125 667.960938 C 225.398438 675.179688 219.953125 681.3125 217.820312 688.917969 C 215.894531 695.773438 208.292969 708.132812 213.621094 714.410156 C 218.734375 720.417969 229.285156 720.78125 236.398438 720.730469 C 245.5 720.65625 255.554688 721.53125 264.742188 717.878906 C 270.359375 715.636719 271.875 713.242188 270.640625 707.421875 C 269.890625 703.847656 269.550781 700.425781 268.800781 696.835938 C 267.929688 692.683594 266.585938 688.808594 264.683594 685.316406 C 262.609375 681.484375 260.140625 679.546875 263.316406 675.492188 C 266.441406 671.496094 272.300781 671.226562 275.175781 666.867188 C 278.332031 662.078125 273.519531 658.414062 271.46875 653.898438 C 266.710938 643.425781 270.34375 636.230469 270.78125 618.984375 L 233.179688 611.011719 " fill-opacity="1" fill-rule="nonzero"/><path fill="rgb(14.509583%, 8.239746%, 7.058716%)" d="M 268.800781 696.835938 C 267.980469 692.9375 266.703125 689.304688 264.980469 685.984375 C 255.570312 687.25 246.097656 687.960938 236.578125 687.1875 C 231.105469 686.742188 225.007812 685.679688 220.4375 682.53125 C 219.378906 684.582031 218.445312 686.683594 217.820312 688.917969 C 215.894531 695.773438 208.292969 708.132812 213.621094 714.410156 C 218.734375 720.417969 229.285156 720.78125 236.398438 720.730469 C 245.5 720.65625 255.554688 721.53125 264.742188 717.878906 C 270.359375 715.636719 271.875 713.242188 270.640625 707.421875 C 269.890625 703.847656 269.550781 700.425781 268.800781 696.835938 " fill-opacity="1" fill-rule="nonzero"/><path fill="rgb(57.649231%, 36.079407%, 21.179199%)" d="M 328.800781 455.90625 C 330.835938 468.476562 327.335938 479.480469 321.800781 490.554688 C 309.730469 514.734375 284.695312 544.398438 279.089844 583.035156 C 278.339844 588.261719 234.40625 608.242188 232.742188 595.929688 C 226.0625 546.648438 221.207031 501.332031 229.589844 400.03125 C 230.511719 388.90625 267.460938 400.699219 282.101562 404.199219 C 296.734375 407.703125 320.363281 403.929688 328.800781 455.90625 " fill-opacity="1" fill-rule="nonzero"/><path fill="rgb(57.649231%, 36.079407%, 21.179199%)" d="M 586.605469 540.320312 C 580.246094 545.742188 574.96875 552.292969 569.179688 558.292969 C 557.863281 570.058594 542.09375 584.945312 538.164062 591.546875 C 530.226562 604.878906 572.421875 630.207031 572.363281 606.550781 C 572.332031 594.199219 599.605469 584.625 604.925781 581.46875 C 615.039062 575.472656 623.734375 568.113281 630.15625 561.28125 C 635.492188 555.605469 640.285156 547.960938 635.542969 540.578125 C 632.070312 535.144531 615.136719 516.054688 586.605469 540.320312 " fill-opacity="1" fill-rule="nonzero"/><path fill="rgb(57.649231%, 36.079407%, 21.179199%)" d="M 538.164062 591.546875 C 529.058594 610.679688 555.078125 648.886719 557.929688 657.070312 C 560.375 664.074219 564.140625 673.449219 567.488281 680.15625 C 570.503906 686.207031 575.097656 697.839844 582.839844 698.851562 C 590.25 699.832031 597.902344 693.382812 602.867188 688.824219 C 609.222656 682.976562 616.839844 677.207031 620.976562 668.796875 C 623.496094 663.652344 623.035156 661.007812 618.464844 657.695312 C 615.664062 655.667969 613.242188 653.460938 610.433594 651.425781 C 607.175781 649.0625 603.765625 647.191406 600.207031 645.945312 C 596.304688 644.578125 593.339844 644.777344 592.984375 639.90625 C 592.640625 635.109375 596.585938 631.207031 595.835938 626.3125 C 595.011719 620.9375 589.28125 621.417969 584.980469 619.554688 C 574.96875 615.21875 572.910156 612.320312 571.136719 599.925781 L 538.164062 591.546875 " fill-opacity="1" fill-rule="nonzero"/><path fill="rgb(14.509583%, 8.239746%, 7.058716%)" d="M 618.464844 657.695312 C 615.664062 655.667969 613.242188 653.460938 610.433594 651.425781 C 607.175781 649.0625 603.765625 647.191406 600.207031 645.945312 C 599.335938 645.632812 598.527344 645.410156 597.769531 645.195312 C 588.285156 655.710938 574.835938 662.003906 561 665.25 C 563.035156 670.441406 565.332031 675.839844 567.488281 680.15625 C 570.503906 686.207031 575.097656 697.839844 582.839844 698.851562 C 590.25 699.832031 597.902344 693.382812 602.867188 688.824219 C 609.222656 682.976562 616.839844 677.207031 620.976562 668.796875 C 623.496094 663.652344 623.035156 661.007812 618.464844 657.695312 " fill-opacity="1" fill-rule="nonzero"/><path fill="rgb(57.649231%, 36.079407%, 21.179199%)" d="M 588.464844 498.085938 C 583.640625 475.710938 594.023438 469.910156 599.539062 451.214844 C 607.785156 423.21875 605.558594 406.730469 601.605469 389.828125 C 585.246094 319.882812 556.777344 324.96875 533.199219 323.847656 C 512.6875 322.875 490.632812 324.71875 472.929688 339.519531 C 461.261719 349.28125 452.953125 366.050781 452.0625 381.246094 C 448.132812 447.78125 458.355469 468.578125 480.726562 505.746094 C 507.863281 550.808594 572.898438 533.589844 571.144531 556.222656 C 570 570.914062 600.660156 543.796875 618.835938 528.902344 C 606.894531 527.6875 593.058594 519.402344 588.464844 498.085938 " fill-opacity="1" fill-rule="nonzero"/><path fill="rgb(47.059631%, 29.019165%, 16.859436%)" d="M 451.304688 400.03125 C 451.304688 400.03125 451.273438 400.46875 451.214844 401.285156 C 451.140625 402.105469 451.121094 403.308594 451.050781 404.835938 C 451.023438 406.367188 450.957031 408.222656 451.007812 410.355469 C 451.039062 412.480469 451.125 414.878906 451.269531 417.492188 C 451.335938 420.109375 451.699219 422.929688 451.921875 425.910156 C 452.121094 427.394531 452.324219 428.917969 452.53125 430.476562 C 452.730469 432.035156 452.917969 433.625 453.222656 435.230469 C 453.488281 436.839844 453.757812 438.484375 454.03125 440.140625 C 454.335938 441.789062 454.738281 443.4375 455.09375 445.117188 C 455.75 448.480469 456.730469 451.816406 457.660156 455.171875 L 458.328125 457.691406 L 459.128906 460.171875 C 459.664062 461.820312 460.191406 463.460938 460.71875 465.089844 C 461.785156 468.347656 463.15625 471.429688 464.308594 474.484375 C 464.851562 476.027344 465.609375 477.445312 466.234375 478.886719 C 466.886719 480.320312 467.519531 481.726562 468.136719 483.085938 C 469.289062 485.855469 470.738281 488.296875 471.949219 490.617188 C 472.566406 491.773438 473.160156 492.882812 473.71875 493.9375 C 474.253906 495.003906 474.796875 496 475.375 496.890625 C 476.484375 498.710938 477.457031 500.292969 478.25 501.601562 C 479.828125 504.238281 480.726562 505.746094 480.726562 505.746094 C 480.726562 505.746094 479.691406 504.328125 477.886719 501.847656 C 476.996094 500.597656 475.910156 499.074219 474.660156 497.335938 C 473.359375 495.628906 472.222656 493.488281 470.847656 491.238281 C 469.527344 488.960938 467.957031 486.558594 466.664062 483.820312 C 465.34375 481.101562 463.746094 478.316406 462.511719 475.25 C 461.300781 472.179688 459.875 469.070312 458.742188 465.785156 C 458.1875 464.144531 457.621094 462.488281 457.058594 460.824219 L 456.210938 458.328125 L 455.496094 455.78125 C 454.605469 452.363281 453.660156 448.96875 453.042969 445.546875 C 452.710938 443.84375 452.332031 442.167969 452.046875 440.496094 C 451.796875 438.808594 451.542969 437.152344 451.289062 435.519531 C 450.71875 432.265625 450.613281 429.058594 450.300781 426.050781 C 450.199219 423.027344 449.960938 420.175781 450.003906 417.53125 C 450.011719 416.207031 449.980469 414.945312 450.011719 413.75 C 450.070312 412.546875 450.125 411.402344 450.175781 410.332031 C 450.28125 408.195312 450.472656 406.335938 450.613281 404.808594 C 450.949219 401.746094 451.304688 400.03125 451.304688 400.03125 " fill-opacity="1" fill-rule="nonzero"/><path fill="rgb(47.059631%, 29.019165%, 16.859436%)" d="M 309.261719 511.539062 C 309.261719 511.539062 310 510.113281 311.269531 507.625 C 311.90625 506.375 312.742188 504.890625 313.585938 503.136719 C 314.398438 501.371094 315.304688 499.378906 316.34375 497.234375 C 317.371094 495.085938 318.261719 492.652344 319.332031 490.132812 C 320.378906 487.613281 321.191406 484.84375 322.246094 482.066406 C 323.113281 479.222656 324.035156 476.289062 324.808594 473.273438 C 325.179688 471.757812 325.550781 470.226562 325.921875 468.699219 C 326.296875 467.160156 326.527344 465.59375 326.832031 464.039062 C 327.5 460.945312 327.804688 457.785156 328.210938 454.695312 C 328.457031 451.59375 328.777344 448.539062 328.800781 445.570312 C 328.828125 444.824219 328.851562 444.089844 328.875 443.363281 C 328.867188 442.628906 328.859375 441.90625 328.851562 441.195312 C 328.820312 439.769531 328.867188 438.363281 328.785156 437.003906 C 328.644531 434.277344 328.496094 431.703125 328.191406 429.339844 C 327.96875 426.964844 327.582031 424.808594 327.34375 422.878906 C 326.992188 420.96875 326.6875 419.304688 326.445312 417.929688 C 325.84375 415.199219 325.5 413.632812 325.5 413.632812 C 325.5 413.632812 325.996094 415.160156 326.867188 417.820312 C 327.222656 419.179688 327.664062 420.828125 328.160156 422.714844 C 328.5625 424.632812 329.132812 426.769531 329.445312 429.160156 C 329.863281 431.546875 330.144531 434.136719 330.417969 436.894531 C 330.566406 438.273438 330.597656 439.695312 330.695312 441.148438 C 330.8125 442.597656 330.8125 444.089844 330.785156 445.597656 C 330.8125 448.621094 330.621094 451.742188 330.375 454.914062 C 330.226562 456.496094 329.988281 458.078125 329.796875 459.671875 C 329.625 461.269531 329.347656 462.859375 329.039062 464.441406 C 328.710938 466.023438 328.472656 467.621094 328.078125 469.179688 C 327.683594 470.734375 327.296875 472.285156 326.90625 473.824219 C 326.5625 475.382812 326.019531 476.859375 325.550781 478.339844 C 325.0625 479.816406 324.628906 481.292969 324.109375 482.707031 C 323.003906 485.511719 322.015625 488.269531 320.832031 490.765625 C 319.636719 493.253906 318.625 495.660156 317.472656 497.785156 C 316.34375 499.914062 315.265625 501.847656 314.316406 503.554688 C 313.328125 505.242188 312.382812 506.644531 311.648438 507.839844 C 310.132812 510.195312 309.261719 511.539062 309.261719 511.539062 " fill-opacity="1" fill-rule="nonzero"/><path fill="rgb(26.269531%, 73.728943%, 73.329163%)" d="M 330.96875 307.746094 C 334.714844 337.648438 333.265625 355.519531 329.542969 369.042969 C 327.1875 377.59375 323.714844 385.875 321.628906 394.5 C 318.097656 409.019531 327.097656 402.808594 337.917969 403.878906 C 356.265625 405.699219 364.226562 418.132812 383.671875 419.484375 C 403.582031 420.859375 420.902344 415.503906 434.0625 406.78125 C 459.613281 389.855469 467.222656 352.058594 463.097656 323.394531 C 434.503906 322.839844 406.71875 329.382812 377.816406 331.894531 C 366.351562 332.878906 347.363281 326.246094 331.988281 305.964844 C 331.742188 306.601562 331.40625 307.210938 330.96875 307.746094 " fill-opacity="1" fill-rule="nonzero"/><path fill="rgb(34.118652%, 78.039551%, 78.819275%)" d="M 336.378906 312.8125 C 336.90625 314.207031 337.390625 315.605469 337.835938 317 L 339.976562 316.316406 C 339.523438 314.882812 339.023438 313.449219 338.484375 312.015625 L 336.378906 312.8125 " fill-opacity="1" fill-rule="nonzero"/><path fill="rgb(34.118652%, 78.039551%, 78.819275%)" d="M 340.15625 325.460938 C 340.816406 328.3125 341.378906 331.1875 341.902344 334.082031 L 344.117188 333.691406 C 343.59375 330.765625 343.023438 327.859375 342.339844 324.949219 Z M 343.34375 342.804688 C 343.796875 345.683594 344.25 348.597656 344.746094 351.558594 L 346.960938 351.1875 C 346.464844 348.246094 346.011719 345.335938 345.558594 342.453125 Z M 346.597656 360.355469 C 347.503906 363.472656 348.664062 366.273438 350.046875 368.761719 L 352.015625 367.671875 C 350.722656 365.339844 349.621094 362.703125 348.761719 359.722656 Z M 355.558594 376.054688 C 357.789062 378.238281 360.300781 380.007812 363.011719 381.390625 L 364.03125 379.382812 C 361.503906 378.097656 359.199219 376.472656 357.136719 374.453125 Z M 371.613281 384.417969 C 374.496094 385.058594 377.503906 385.398438 380.609375 385.503906 L 380.683594 383.253906 C 377.699219 383.164062 374.820312 382.828125 372.101562 382.226562 Z M 389.609375 385.15625 C 392.53125 384.855469 395.496094 384.390625 398.484375 383.78125 L 398.03125 381.574219 C 395.109375 382.175781 392.21875 382.628906 389.378906 382.917969 Z M 407.171875 381.550781 C 410.148438 380.617188 412.953125 379.546875 415.574219 378.34375 L 414.640625 376.300781 C 412.105469 377.460938 409.398438 378.5 406.492188 379.40625 Z M 423.476562 374 C 426.066406 372.304688 428.4375 370.449219 430.601562 368.449219 L 429.078125 366.800781 C 427.003906 368.71875 424.738281 370.492188 422.25 372.121094 L 423.480469 374 Z M 436.671875 361.75 C 438.5 359.351562 440.105469 356.804688 441.527344 354.128906 L 439.542969 353.082031 C 438.175781 355.652344 436.628906 358.089844 434.882812 360.390625 Z M 445.160156 345.886719 C 446.164062 343.117188 447.003906 340.242188 447.707031 337.277344 L 445.515625 336.757812 C 444.832031 339.648438 444.015625 342.441406 443.042969 345.128906 L 445.160156 345.886719 " fill-opacity="1" fill-rule="nonzero"/><path fill="rgb(34.118652%, 78.039551%, 78.819275%)" d="M 449.371094 328.335938 C 449.582031 326.855469 449.765625 325.347656 449.921875 323.835938 L 447.6875 323.605469 C 447.53125 325.097656 447.351562 326.566406 447.152344 328.023438 L 449.371094 328.335938 " fill-opacity="1" fill-rule="nonzero"/><path fill="rgb(33.329773%, 17.649841%, 9.408569%)" d="M 222.390625 129.503906 C 226.96875 119.765625 254.953125 116.886719 266.464844 115.539062 C 275.523438 114.480469 292.855469 118.851562 299.3125 124.863281 C 289.035156 122.308594 282.902344 123.457031 272.945312 127.136719 C 277.039062 137.390625 303.273438 139.582031 312.265625 148.980469 C 323.25 160.460938 329.132812 176.847656 331.273438 192.679688 C 335.109375 221.046875 334.128906 257.179688 361.050781 277.464844 C 341.902344 287.640625 324.824219 268.765625 314.992188 257.015625 C 319.109375 274.871094 330.351562 292.445312 346.285156 302.355469 C 339.523438 305.027344 333.265625 300.496094 326.972656 298.402344 C 331.207031 306.089844 342.882812 318.746094 350.535156 323.566406 C 328.925781 335.175781 365.292969 365.96875 363.339844 382.066406 C 357.238281 376.746094 352.988281 369.023438 347.320312 362.695312 C 338.75 353.140625 337.886719 355.25 325.003906 356.433594 C 302.433594 358.503906 297.113281 349.644531 290.039062 331.367188 C 281.285156 343.515625 289.746094 357.828125 292.757812 369.914062 C 275.480469 359.582031 273.25 333.421875 277.820312 316.554688 C 281.839844 301.722656 287.230469 284.738281 279.84375 270.601562 C 272.238281 274.777344 268.777344 291.894531 269.453125 300.03125 C 263.21875 288.597656 267.410156 272.257812 270.65625 260.671875 C 274.589844 246.617188 276.75 240.066406 274.171875 225.296875 C 269.789062 200.167969 272.078125 189.472656 258.625 167.140625 C 251.132812 154.699219 229.859375 146.800781 229.859375 146.800781 C 229.859375 146.800781 217.382812 140.164062 222.390625 129.503906 " fill-opacity="1" fill-rule="nonzero"/><path fill="rgb(57.649231%, 36.079407%, 21.179199%)" d="M 218.792969 162.628906 C 222.210938 165.132812 224.820312 167.941406 226.78125 171.058594 C 231.054688 164.800781 238.566406 149.667969 237.269531 128.054688 C 236.769531 119.90625 234.167969 100.53125 232.519531 104.742188 C 229.257812 111.0625 223.90625 115.445312 221.074219 118.617188 C 214.386719 126.109375 208.804688 128.820312 202.660156 136.855469 C 199.003906 141.632812 195.667969 148.785156 196.3125 155.328125 C 204.308594 155.707031 212.261719 157.839844 218.792969 162.628906 " fill-opacity="1" fill-rule="nonzero"/><path fill="rgb(98.039246%, 75.289917%, 69.018555%)" d="M 225.996094 169.929688 C 234.226562 153.199219 237 136.632812 233.5 118.429688 C 231.335938 122.21875 229.070312 125.953125 226.574219 129.628906 C 220.703125 138.253906 213.480469 147.144531 212.832031 157.964844 C 212.8125 158.375 212.730469 158.746094 212.65625 159.125 C 214.796875 160.097656 216.867188 161.21875 218.792969 162.628906 C 221.796875 164.828125 224.136719 167.273438 225.996094 169.929688 " fill-opacity="1" fill-rule="nonzero"/></svg>