<svg xmlns="http://www.w3.org/2000/svg" xmlns:xlink="http://www.w3.org/1999/xlink" width="1080" zoomAndPan="magnify" viewBox="0 0 810 809.999993" height="1080" preserveAspectRatio="xMidYMid meet" version="1.0"><rect x="-81" width="972" fill="rgb(100%, 39.99939%, 76.858521%)" y="-80.999999" height="971.999992" fill-opacity="1"/><rect x="-81" width="972" fill="rgb(100%, 100%, 100%)" y="-80.999999" height="971.999992" fill-opacity="1"/><rect x="-81" width="972" fill="rgb(100%, 39.99939%, 76.858521%)" y="-80.999999" height="971.999992" fill-opacity="1"/><path fill="rgb(77.249146%, 48.239136%, 45.098877%)" d="M 215.621094 474.605469 C 214.804688 475.015625 214.710938 480.847656 214.066406 482.328125 C 212.769531 485.269531 211.605469 487.917969 210.839844 490.976562 C 210.113281 493.894531 209.925781 496.929688 209.085938 499.714844 C 208.25 502.480469 210.367188 523.4375 211.441406 524.421875 C 213.242188 526.085938 229.128906 546.875 228.789062 552.914062 C 228.664062 555.132812 228.1875 554.980469 230.199219 556.113281 C 231.277344 556.71875 233.003906 557.808594 236.339844 557.65625 C 239.292969 557.523438 251.621094 554.085938 261.144531 557.441406 C 266.589844 559.355469 270.613281 563.410156 276.554688 560.59375 C 279.1875 559.347656 281.417969 557.160156 280.417969 554.3125 C 279.46875 551.597656 278.523438 549.007812 277.917969 546.207031 C 276.644531 540.324219 277.449219 533.199219 279.074219 527.113281 C 279.714844 524.703125 280.261719 522.238281 281.042969 520.433594 C 281.792969 518.691406 283.191406 516.722656 285.546875 513.367188 C 287.277344 510.894531 289.886719 508.574219 289.886719 508.574219 C 280.007812 506.265625 251.421875 492.320312 248.808594 490.71875 C 246.375 489.226562 219.863281 476.191406 216.328125 473.90625 L 215.621094 474.605469 " fill-opacity="1" fill-rule="nonzero"/><path fill="rgb(77.249146%, 48.239136%, 45.098877%)" d="M 173.179688 304.933594 C 173.167969 301.707031 172.628906 299.128906 170.199219 297.558594 C 169.183594 296.902344 165.765625 294.640625 165.046875 293.8125 C 163.285156 291.765625 161.183594 294.554688 159.890625 295.890625 C 156.238281 299.691406 149.191406 305.453125 143.871094 306.171875 C 141.863281 306.449219 138.003906 305.746094 137.652344 303.40625 C 137.289062 300.976562 137.570312 298.066406 137.652344 295.714844 C 137.699219 294.523438 138.574219 293.03125 138.910156 291.824219 C 139.273438 290.519531 139.484375 289.261719 139.765625 287.953125 C 140.296875 285.488281 141.09375 283.066406 141.722656 280.589844 C 142.574219 277.214844 144.941406 274.367188 146.433594 271.253906 C 147.476562 269.0625 148.546875 266.402344 150.3125 264.695312 C 154.628906 260.507812 158.441406 255.9375 162.257812 251.324219 C 164.21875 248.957031 167.175781 246.214844 169.910156 244.90625 C 172.613281 243.609375 174.238281 242.550781 177.167969 241.628906 C 183.140625 239.75 191.082031 240.808594 195.507812 245.898438 C 198.363281 249.1875 200.664062 253.8125 202.601562 257.753906 C 203.753906 260.097656 203.71875 262.898438 204.78125 265.292969 C 205.796875 267.570312 206.703125 269.480469 207.414062 271.859375 C 208.710938 276.210938 211.386719 280.394531 213.550781 284.441406 C 215.0625 287.285156 216.859375 290.03125 218.523438 292.785156 C 220.015625 295.265625 221.324219 298.527344 218.871094 301.058594 C 218.328125 299.433594 219.667969 297.113281 219.484375 295.238281 C 219.328125 293.65625 218.5625 292.78125 217.378906 291.699219 C 214.757812 289.320312 211.570312 288.035156 208.039062 287.839844 C 206.765625 287.769531 199.226562 285.785156 202.078125 288.363281 C 203.367188 289.53125 204.476562 291.339844 205.675781 292.632812 C 206.265625 293.273438 206.765625 294.496094 207.046875 295.335938 C 207.695312 297.226562 207.511719 300.230469 207.222656 302.214844 C 207.125 302.878906 206.878906 304.847656 206.347656 305.257812 C 205.75 305.726562 203.871094 306.191406 203.097656 306.308594 C 200.804688 306.644531 198.636719 307.148438 196.425781 307.859375 C 194.28125 308.546875 192.097656 308.925781 189.894531 309.378906 C 185.949219 310.191406 181.601562 310.042969 177.808594 311.160156 C 174.644531 312.09375 171.832031 314.601562 168.511719 314.945312 C 169.101562 314.03125 170.109375 313.484375 170.808594 312.652344 C 171.277344 312.097656 171.585938 311.433594 172.023438 310.859375 C 173.492188 308.941406 173.1875 307.542969 173.179688 304.933594 " fill-opacity="1" fill-rule="nonzero"/><path fill="rgb(95.289612%, 67.059326%, 56.858826%)" d="M 180.867188 311.152344 C 186.472656 309.730469 190.488281 309.363281 196.496094 307.625 C 199.519531 306.75 204.652344 305.832031 205.386719 305.234375 C 212.046875 299.808594 200.917969 287.378906 203.214844 286.871094 C 210.320312 285.324219 214.730469 289.285156 217.511719 293.242188 C 220.0625 296.871094 221.253906 300.5 221.910156 299.898438 C 226.515625 295.667969 235.234375 286.613281 240.121094 283.238281 C 246.300781 278.96875 253.59375 275.703125 260.929688 273.679688 C 284.339844 267.203125 308.25 261.40625 332.113281 257.640625 C 362.347656 252.875 384.949219 252.863281 398.949219 252.023438 C 421.300781 250.683594 444.132812 250.25 466.71875 252.003906 C 487.816406 253.636719 509.292969 254.417969 529.828125 260.214844 C 547.757812 265.28125 565.945312 271.792969 582.667969 282.339844 C 595.4375 290.394531 605.4375 301.511719 615.707031 312.703125 C 620.953125 318.421875 624.421875 326.683594 628.875 333.144531 C 631.035156 336.277344 630.804688 345.757812 636.855469 345.710938 C 650.410156 345.609375 656.1875 345.609375 660.734375 350.863281 C 664.015625 354.664062 668.335938 358.796875 666.386719 365.921875 C 665.054688 370.789062 661.4375 376.660156 661.777344 382.214844 C 669.4375 377.753906 674.425781 376.097656 682.449219 376.882812 C 691.027344 377.722656 699.015625 388.820312 700.265625 392.039062 C 702.664062 398.164062 706.222656 404.382812 702.78125 411.222656 C 699.601562 417.535156 691.875 423.722656 685.800781 425.867188 C 679.441406 428.109375 671.996094 429.289062 678.050781 436.644531 C 682.4375 441.96875 691.699219 444.617188 697.921875 446.074219 C 684.164062 454.199219 670.605469 447.957031 666.929688 444.65625 C 662.628906 440.789062 658.109375 439.433594 658.742188 433.125 C 659.269531 427.78125 662.78125 422.992188 663.890625 418.511719 C 659.277344 416.261719 658.710938 416.671875 654.800781 413.359375 C 650.304688 409.554688 647.824219 405.863281 647.273438 400.378906 C 646.214844 389.777344 651.207031 370.148438 638.511719 365.921875 C 642.097656 376.367188 639.65625 387.851562 639.65625 395.105469 C 639.65625 402.910156 638.640625 410.921875 638.640625 418.726562 C 638.640625 426.867188 636.753906 432.320312 636.117188 440 C 635.539062 446.894531 632.28125 470.929688 626.683594 480.082031 C 622.695312 486.613281 621.945312 495.75 617.632812 502.15625 C 609.476562 514.269531 599.957031 526.253906 593.109375 539.441406 C 591.460938 542.613281 592.246094 546.898438 590.128906 549.371094 C 587.238281 552.742188 582.421875 555.636719 579.609375 557.222656 C 573.917969 560.433594 564.566406 569.214844 558.039062 564.738281 C 551.878906 560.503906 553.394531 550.382812 545.003906 550.582031 C 538.101562 550.753906 530.0625 554.371094 524.539062 558.035156 C 523.996094 549.9375 524.667969 543.402344 522.378906 535.648438 C 521.144531 531.472656 519.476562 527.117188 516.652344 523.753906 C 514.261719 520.910156 510.914062 516.769531 508.175781 514.558594 C 505.199219 512.144531 499.296875 503.59375 499.296875 503.59375 C 499.296875 503.59375 488.164062 507.269531 482.882812 507.792969 C 476.019531 508.46875 472.519531 508.355469 464.726562 509.765625 C 460.292969 510.570312 460.339844 515.503906 457.203125 518.726562 C 454.238281 521.78125 453.597656 524.0625 451.902344 528.152344 C 449.03125 535.0625 446.574219 542.066406 447.296875 549.460938 C 448.15625 558.285156 451.207031 561.785156 446.023438 568.351562 C 440.515625 575.320312 424.253906 578.507812 415.761719 578.527344 C 407.359375 578.539062 400.535156 575.160156 392.964844 571.585938 C 385.746094 568.179688 381.101562 563.347656 371.742188 562.984375 C 366.796875 562.789062 354.652344 569.015625 350.132812 571.003906 C 347.578125 572.125 358.558594 552.777344 360.988281 549.402344 C 364.9375 543.90625 365.453125 534.832031 364.882812 528.15625 C 364.03125 518.210938 358.480469 520.433594 350.132812 520.433594 C 334.5 520.433594 299.363281 511.503906 291.863281 509.378906 C 287.476562 508.140625 272.03125 502.65625 268.410156 500.40625 C 260.101562 495.25 252.453125 492.460938 243.132812 489.425781 C 234.179688 486.507812 228.394531 480.523438 219.507812 477.199219 C 212.011719 474.394531 210.203125 470.929688 202.03125 464.816406 C 195.695312 460.078125 190.761719 454.796875 183.101562 452.554688 C 173.199219 449.648438 165.140625 447.175781 155.933594 442.460938 C 148.070312 438.4375 143.859375 434.046875 136.5 427.5 C 130.277344 421.957031 125.332031 416.824219 121.757812 409.625 C 118.179688 402.425781 113.953125 400.402344 113.585938 392.058594 C 113.386719 387.414062 110.363281 379.386719 111.398438 375.128906 C 112.488281 370.640625 113.339844 365.644531 115.179688 361.453125 C 124.226562 340.804688 139.984375 330.21875 154.863281 323.367188 C 159.132812 321.398438 166.140625 314.886719 180.867188 311.152344 " fill-opacity="1" fill-rule="nonzero"/><path fill="rgb(11.759949%, 8.628845%, 7.449341%)" d="M 218.570312 290.007812 C 212.128906 281.699219 208.851562 269.578125 205.070312 259.890625 C 201.898438 251.769531 198.621094 243.03125 189.554688 240.308594 C 171.738281 234.945312 154.15625 253.207031 146.355469 266.871094 C 142.914062 272.898438 140.289062 280.285156 137.933594 286.820312 C 136.40625 291.054688 132.050781 301.835938 136.800781 305.515625 C 149.027344 314.988281 164.320312 290.488281 172.859375 285.582031 C 173.746094 285.070312 171.335938 284.835938 171.054688 284.894531 C 165.4375 286.097656 161.285156 290.160156 157.148438 293.914062 C 154.242188 296.542969 141.113281 311.09375 140.253906 300.605469 C 139.425781 290.425781 146.660156 276.378906 151.328125 267.394531 C 157.929688 254.707031 181.589844 229.828125 194.621094 248.175781 C 204.058594 261.46875 204.21875 279.410156 217.511719 290.171875 C 217.695312 290.320312 218.761719 290.261719 218.570312 290.007812 " fill-opacity="1" fill-rule="nonzero"/><path fill="rgb(11.759949%, 8.628845%, 7.449341%)" d="M 162.300781 292.273438 C 162.957031 293.300781 164.167969 293.800781 165.140625 294.511719 C 166.832031 295.75 168.214844 297.382812 169.363281 299.121094 C 172.21875 303.441406 170.0625 307.910156 169.910156 312.539062 C 169.886719 313.230469 171.789062 312.957031 172.089844 312.652344 C 179.523438 305.109375 172.933594 293.9375 163.808594 291.835938 C 163.621094 291.792969 161.964844 291.753906 162.300781 292.273438 " fill-opacity="1" fill-rule="nonzero"/><path fill="rgb(11.759949%, 8.628845%, 7.449341%)" d="M 278.960938 300.648438 C 284.066406 289.75 289.234375 277.769531 298.859375 269.921875 C 305.976562 264.105469 320.269531 271.351562 327.347656 274.425781 C 334.257812 277.425781 340.675781 281.417969 347.710938 284.128906 C 348.011719 284.246094 350.699219 284.195312 350.113281 283.597656 C 344.359375 277.765625 335.257812 274.320312 327.761719 271.324219 C 319.8125 268.140625 310.28125 265.121094 301.605469 266.542969 C 293.8125 267.824219 289.851562 273.648438 285.609375 279.878906 C 282.726562 284.105469 274.125 295.257812 278.011719 300.648438 C 278.140625 300.832031 278.855469 300.882812 278.960938 300.648438 " fill-opacity="1" fill-rule="nonzero"/><path fill="rgb(11.759949%, 8.628845%, 7.449341%)" d="M 345.828125 287.171875 C 340.472656 297.089844 351.117188 333.261719 327.960938 321.46875 C 317.890625 316.339844 307.472656 304.839844 308.109375 292.875 C 308.132812 292.410156 306.691406 292.507812 306.492188 292.792969 C 297.132812 306.144531 319.441406 322.25 330.210938 325.375 C 335.691406 326.960938 342.164062 326.34375 346.195312 322.058594 C 349.332031 318.722656 349.492188 313.171875 349.480469 308.953125 C 349.449219 301.859375 348.488281 294.269531 347.441406 287.253906 C 347.375 286.808594 346.015625 286.824219 345.828125 287.171875 " fill-opacity="1" fill-rule="nonzero"/><path fill="rgb(11.759949%, 8.628845%, 7.449341%)" d="M 309.199219 292.199219 C 303.875 291.28125 298.328125 292.320312 293.527344 294.78125 C 288.835938 297.179688 280.238281 302.675781 282.375 309.027344 C 282.554688 309.566406 284.113281 309.597656 284.394531 309.132812 C 286.808594 305.117188 288.371094 301.453125 292.09375 298.371094 C 296.644531 294.601562 303.140625 292.257812 309.035156 292.433594 C 309.21875 292.4375 309.546875 292.257812 309.199219 292.199219 " fill-opacity="1" fill-rule="nonzero"/><path fill="rgb(11.759949%, 8.628845%, 7.449341%)" d="M 351.011719 325.050781 C 348.949219 328.632812 352.734375 334.148438 354.359375 337.175781 C 357.976562 343.914062 361.847656 350.542969 365.59375 357.210938 C 370.902344 366.667969 375.742188 376.371094 377.398438 387.195312 C 379.03125 397.882812 374.550781 407.863281 368.464844 416.359375 C 348.410156 444.359375 307.988281 453.683594 276.308594 460.558594 C 244.191406 467.527344 213.050781 459.484375 181.90625 451.644531 C 148.617188 443.273438 115.589844 411.210938 116.496094 375.234375 C 116.964844 356.445312 127.703125 344.011719 142.097656 333.558594 C 155.644531 323.71875 172.089844 313.84375 188.625 310.214844 C 190.375 309.832031 188.28125 309.09375 187.480469 309.1875 C 173.980469 310.796875 161.382812 317.101562 149.632812 323.609375 C 137.605469 330.261719 124.25 338.855469 116.410156 350.460938 C 96.832031 379.425781 117.339844 415.34375 140.472656 434.503906 C 152.984375 444.863281 168.273438 452.113281 184.203125 455.222656 C 198.691406 458.046875 212.78125 462.296875 227.484375 464.410156 C 257.703125 468.761719 286.914062 462.0625 315.636719 452.871094 C 341.617188 444.5625 368.980469 430.742188 380.328125 404.464844 C 386.980469 389.0625 378.589844 372.292969 371.089844 358.984375 C 367.726562 353.019531 364.425781 346.953125 360.671875 341.222656 C 358.476562 337.863281 351.523438 329.632812 353.464844 325.308594 C 353.777344 324.617188 351.347656 324.472656 351.011719 325.050781 " fill-opacity="1" fill-rule="nonzero"/><path fill="rgb(11.759949%, 8.628845%, 7.449341%)" d="M 204.90625 467.757812 C 205.792969 473.78125 218.546875 477.898438 223.238281 480.136719 C 235.4375 485.957031 247.457031 492.15625 259.734375 497.816406 C 288.511719 511.082031 320.28125 521.003906 352.238281 520.886719 C 353.25 520.882812 353.9375 520.113281 352.554688 519.996094 C 321.808594 517.433594 293.261719 510.207031 265.015625 497.746094 C 253.773438 492.789062 243.097656 486.695312 231.886719 481.722656 C 226.78125 479.453125 221.660156 477.222656 216.683594 474.675781 C 213.53125 473.066406 208.933594 471 207.328125 467.632812 C 207.082031 467.125 204.816406 467.148438 204.90625 467.757812 " fill-opacity="1" fill-rule="nonzero"/><path fill="rgb(11.759949%, 8.628845%, 7.449341%)" d="M 343.050781 485.46875 C 352.703125 497.1875 359.203125 511.308594 362.132812 526.214844 C 363.621094 533.765625 363.144531 541.0625 359.980469 548.117188 C 356.800781 555.195312 350.382812 559.570312 346.320312 565.90625 C 345.710938 566.859375 349.0625 566.746094 349.550781 566.425781 C 362.445312 557.875 369.515625 543.425781 367.3125 528.15625 C 365.113281 512.882812 357.414062 495.679688 345.980469 485.164062 C 345.421875 484.644531 342.53125 484.84375 343.050781 485.46875 " fill-opacity="1" fill-rule="nonzero"/><path fill="rgb(11.759949%, 8.628845%, 7.449341%)" d="M 351.515625 571.308594 C 360.796875 565.609375 368.792969 562.097656 379.605469 565.984375 C 385.640625 568.15625 391.203125 571.5625 396.976562 574.328125 C 404.910156 578.140625 412.167969 580.09375 421.03125 579.582031 C 432.214844 578.9375 459.535156 571.816406 449.351562 555.386719 C 448.972656 554.769531 446.132812 554.628906 446.121094 555.550781 C 446.011719 565.25 442.363281 571.097656 433.203125 574.78125 C 423.285156 578.761719 412.644531 578.199219 403.070312 573.863281 C 393.21875 569.402344 384.066406 563.425781 373.128906 562.074219 C 364.097656 560.953125 355.175781 564.898438 348.585938 570.839844 C 348.011719 571.355469 350.964844 571.644531 351.515625 571.308594 " fill-opacity="1" fill-rule="nonzero"/><path fill="rgb(11.759949%, 8.628845%, 7.449341%)" d="M 447.71875 552.742188 C 448.109375 546.636719 448.183594 541.65625 450.507812 535.820312 C 452.753906 530.1875 456.398438 525.015625 459.363281 519.742188 C 464.238281 511.082031 465.890625 501.128906 463.90625 491.417969 C 460.28125 473.660156 443.738281 458.421875 428.988281 449.296875 C 428.675781 449.101562 426.71875 449.183594 427.109375 449.601562 C 440.210938 463.589844 456.480469 475.003906 459.277344 495.425781 C 460.820312 506.707031 455.757812 516.636719 450.351562 526.113281 C 445.859375 533.988281 441.566406 544.257812 446.429688 552.808594 C 446.582031 553.066406 447.695312 553.105469 447.71875 552.742188 " fill-opacity="1" fill-rule="nonzero"/><path fill="rgb(11.759949%, 8.628845%, 7.449341%)" d="M 213.453125 480.28125 C 206.777344 493.082031 202.484375 510.046875 208.457031 523.789062 C 210.929688 529.484375 215.738281 534.277344 219.507812 539.121094 C 223.808594 544.652344 225.054688 550.046875 227.425781 556.378906 C 227.648438 556.964844 229.503906 556.8125 229.804688 556.378906 C 236.085938 547.351562 220.953125 534.410156 216.136719 527.882812 C 211.328125 521.375 209.90625 513.484375 210.359375 505.539062 C 210.851562 496.949219 215.621094 488.945312 215.714844 480.398438 C 215.726562 479.777344 213.695312 479.824219 213.453125 480.28125 " fill-opacity="1" fill-rule="nonzero"/><path fill="rgb(11.759949%, 8.628845%, 7.449341%)" d="M 226.597656 553.441406 C 225.839844 557.246094 229.492188 558.292969 232.699219 558.390625 C 240.867188 558.636719 248.882812 554.597656 256.789062 557.863281 C 262.761719 560.328125 270.5 565.230469 277.300781 562.167969 C 284.230469 559.050781 289.109375 552.773438 280.476562 548.085938 C 279.882812 547.761719 275.484375 547.375 276.265625 548.761719 C 277.472656 550.894531 278.9375 552.121094 279.113281 554.757812 C 279.542969 561.390625 269.03125 559.996094 265.0625 558.238281 C 261.121094 556.496094 257.339844 554.535156 252.984375 554.203125 C 246.90625 553.753906 231.988281 560.265625 229.179688 553.3125 C 228.941406 552.707031 226.734375 552.765625 226.597656 553.441406 " fill-opacity="1" fill-rule="nonzero"/><path fill="rgb(11.759949%, 8.628845%, 7.449341%)" d="M 280.085938 543.613281 C 279.796875 538.625 279.480469 534.082031 280.429688 529.125 C 281.289062 524.675781 283.472656 520.636719 284.304688 516.21875 C 284.472656 515.339844 281.699219 515.632812 281.316406 515.914062 C 273.371094 521.675781 270.945312 534.617188 274.082031 543.613281 C 274.609375 545.136719 280.179688 545.28125 280.085938 543.613281 " fill-opacity="1" fill-rule="nonzero"/><path fill="rgb(11.759949%, 8.628845%, 7.449341%)" d="M 204.546875 307.675781 C 207.648438 304.351562 208.980469 301.800781 208.433594 297.179688 C 208.082031 294.136719 201.027344 286.519531 208.175781 287.664062 C 216.777344 289.050781 217.0625 297.929688 217.4375 304.695312 C 217.5 305.914062 221.648438 305.949219 222.015625 304.929688 C 225.1875 296.226562 232.789062 288.882812 241.511719 285.78125 C 240.203125 285.492188 238.898438 285.199219 237.597656 284.910156 C 234.949219 291.246094 233.992188 295.664062 235.476562 302.710938 C 235.582031 303.183594 237.101562 303.183594 237.203125 302.710938 C 238.558594 296.449219 239.3125 291.152344 242.113281 285.386719 C 242.792969 283.984375 238.757812 284.320312 238.195312 284.519531 C 229.023438 287.757812 220.554688 295.394531 217.4375 304.695312 C 218.992188 304.695312 220.550781 304.695312 222.097656 304.695312 C 221.601562 298.664062 221.398438 293.390625 216.597656 289.117188 C 212.363281 285.359375 205.410156 285.546875 200.289062 286.648438 C 200.042969 286.703125 199.085938 286.988281 199.441406 287.441406 C 204.410156 293.730469 209.136719 299.992188 203.519531 307.570312 C 203.347656 307.800781 204.359375 307.882812 204.546875 307.675781 " fill-opacity="1" fill-rule="nonzero"/><path fill="rgb(11.759949%, 8.628845%, 7.449341%)" d="M 256.488281 312.851562 C 265.671875 311.265625 273.429688 311.96875 282.144531 315.128906 C 282.515625 315.257812 285.757812 315.433594 285.121094 314.464844 C 279.078125 305.292969 270.398438 301.707031 259.6875 303.65625 C 260.550781 303.90625 261.410156 304.152344 262.265625 304.40625 C 266.238281 295.996094 271.046875 291.195312 278.503906 285.464844 C 279.492188 284.707031 276.972656 284.511719 276.644531 284.546875 C 264.863281 285.632812 251.566406 290.542969 243.15625 299.097656 C 242.828125 299.433594 244.5625 299.609375 244.882812 299.375 C 254.445312 292.445312 265.625 286.871094 277.519531 285.75 C 276.902344 285.445312 276.277344 285.140625 275.664062 284.835938 C 271.875 287.757812 268.132812 290.613281 264.792969 294.046875 C 262.003906 296.914062 260.816406 300.652344 258.882812 304.054688 C 258.414062 304.875 260.703125 304.921875 261.039062 304.871094 C 270.363281 303.503906 276.679688 307.308594 281.6875 314.828125 C 282.679688 314.605469 283.671875 314.386719 284.664062 314.164062 C 275.304688 310.808594 264.9375 308.652344 255.34375 312.285156 C 254.398438 312.644531 256.183594 312.902344 256.488281 312.851562 " fill-opacity="1" fill-rule="nonzero"/><path fill="rgb(11.759949%, 8.628845%, 7.449341%)" d="M 466.542969 512.0625 C 469.347656 509.160156 476.253906 509.535156 479.972656 509.144531 C 484.875 508.621094 489.574219 507.28125 494.347656 506.066406 C 506.804688 502.894531 519.152344 499.300781 531.273438 495.027344 C 553.335938 487.234375 580.789062 475.714844 594.042969 455.28125 C 594.597656 454.433594 591.414062 454.445312 590.875 454.953125 C 581.167969 463.957031 571.460938 472.179688 559.988281 478.902344 C 547.769531 486.066406 534.460938 491.296875 521.078125 495.84375 C 508.789062 500.019531 496.214844 503.332031 483.625 506.472656 C 480 507.375 465.609375 506.710938 464.1875 510.988281 L 464.257812 511.175781 C 464.816406 511.761719 464.738281 511.6875 465.566406 512.109375 C 465.824219 512.238281 466.324219 512.289062 466.542969 512.0625 " fill-opacity="1" fill-rule="nonzero"/><path fill="rgb(11.759949%, 8.628845%, 7.449341%)" d="M 504.226562 509.148438 C 501.5 511.710938 512.195312 520.953125 513.832031 522.902344 C 517.996094 527.832031 520.152344 534.621094 521.539062 540.804688 C 523.070312 547.664062 521.03125 553.710938 520.828125 560.464844 C 520.796875 561.269531 523.226562 561.09375 523.570312 560.605469 C 530.5625 550.710938 525.640625 536.285156 520.539062 526.578125 C 518.425781 522.550781 514.894531 519.507812 511.71875 516.324219 C 509.796875 514.394531 506.140625 511.714844 505.101562 509.148438 C 505 508.910156 504.367188 509.019531 504.226562 509.148438 " fill-opacity="1" fill-rule="nonzero"/><path fill="rgb(11.759949%, 8.628845%, 7.449341%)" d="M 525.570312 560.042969 C 529.511719 557.210938 533.375 554.792969 537.875 552.855469 C 545.445312 549.59375 547.828125 553.140625 551.074219 558.398438 C 553.507812 562.324219 558.269531 567.429688 563.34375 567.429688 C 568.738281 567.429688 573.832031 562.824219 578.007812 559.972656 C 583.058594 556.511719 592.777344 554.457031 593.117188 547.125 C 593.152344 546.285156 590.816406 546.613281 590.449219 546.980469 C 583.890625 553.664062 575.734375 557.339844 568 562.425781 C 566.472656 563.429688 565.011719 564.527344 563.359375 565.339844 C 562.890625 565.566406 559.097656 561.527344 558.457031 560.90625 C 555.945312 558.457031 554.734375 555.054688 552.589844 552.34375 C 545.835938 543.792969 527.667969 553.839844 522.941406 559.617188 C 522.425781 560.246094 525.132812 560.351562 525.570312 560.042969 " fill-opacity="1" fill-rule="nonzero"/><path fill="rgb(11.759949%, 8.628845%, 7.449341%)" d="M 593.523438 544.15625 C 595.859375 534.820312 601.914062 527.011719 607.640625 519.484375 C 613.835938 511.332031 619.402344 503.511719 623.5 494.085938 C 631.722656 475.175781 636.390625 454.78125 639.214844 434.421875 C 641.171875 420.308594 640.964844 406.132812 642.304688 392.011719 C 643.503906 379.332031 641.429688 366.394531 638.054688 354.199219 C 629.152344 322.09375 608.425781 295.652344 579.773438 279.035156 C 554.863281 264.578125 526.03125 257.71875 497.722656 253.9375 C 463.410156 249.355469 428.710938 250.179688 394.234375 252.050781 C 363.507812 253.71875 333.113281 256.0625 302.957031 262.550781 C 288.738281 265.609375 274.886719 269.949219 260.886719 273.824219 C 251.765625 276.351562 242.253906 279.53125 235.511719 286.46875 C 235.246094 286.730469 236.816406 286.988281 237.175781 286.644531 C 244.425781 279.554688 254.597656 276.691406 264.140625 274.136719 C 274.863281 271.257812 285.492188 268.078125 296.296875 265.503906 C 320.085938 259.84375 344.410156 256.691406 368.769531 254.882812 C 396.792969 252.804688 425.210938 251.664062 453.3125 252.308594 C 512.257812 253.660156 583.414062 265.171875 617.675781 319.09375 C 629.1875 337.199219 636.515625 358.132812 637.847656 379.589844 C 638.59375 391.539062 637.3125 404.476562 636.566406 416.335938 C 635.015625 441.097656 630.195312 465.851562 621.324219 489.054688 C 617.324219 499.511719 611.886719 508.292969 605.136719 517.175781 C 598.859375 525.445312 592.175781 533.78125 589.988281 544.15625 C 589.816406 544.949219 593.257812 545.203125 593.523438 544.15625 " fill-opacity="1" fill-rule="nonzero"/><path fill="rgb(11.759949%, 8.628845%, 7.449341%)" d="M 637.238281 347.1875 C 636.859375 346.015625 646.296875 346.847656 647.191406 346.953125 C 652.417969 347.558594 657.261719 349.601562 660.679688 353.667969 C 666.183594 360.207031 663.347656 369.636719 660.910156 376.738281 C 658.917969 382.527344 656.046875 388.855469 657.671875 395.058594 C 659.1875 400.847656 666.125 402.457031 671.214844 402.96875 C 671.65625 403.015625 673.957031 402.578125 672.617188 402.050781 C 663.523438 398.480469 661.507812 393.425781 663.902344 384.3125 C 665.976562 376.417969 669.734375 369.375 668.890625 361 C 667.308594 345.328125 646.949219 343.800781 634.96875 344.992188 C 634.28125 345.0625 632.449219 345.875 634.019531 346.363281 C 634.933594 346.632812 635.84375 346.9375 636.742188 347.265625 C 636.796875 347.285156 637.277344 347.332031 637.238281 347.1875 " fill-opacity="1" fill-rule="nonzero"/><path fill="rgb(11.759949%, 8.628845%, 7.449341%)" d="M 641.347656 365.996094 C 649.734375 378.722656 640.300781 394.488281 647.238281 407.886719 C 651.4375 415.992188 660.4375 419.882812 669.070312 420.917969 C 676.035156 421.75 684.179688 420.355469 689.242188 415.191406 C 696.414062 407.882812 686.5 398.371094 681.226562 393.890625 C 681.074219 393.765625 680.160156 393.8125 680.324219 394.035156 C 684.132812 399.21875 687.804688 406.695312 684.300781 412.960938 C 680.417969 419.890625 670.511719 419.351562 664.222656 416.972656 C 641.449219 408.34375 655.328125 380.96875 642.851562 365.839844 C 642.585938 365.523438 641.105469 365.640625 641.347656 365.996094 " fill-opacity="1" fill-rule="nonzero"/><path fill="rgb(11.759949%, 8.628845%, 7.449341%)" d="M 664.390625 382.320312 C 678.109375 371.96875 693.824219 378.984375 699.808594 393.671875 C 702.132812 399.375 701.941406 405.691406 699.632812 411.328125 C 696.191406 419.726562 688.027344 421.175781 681.910156 426.519531 C 681.039062 427.277344 683.300781 427.445312 683.675781 427.386719 C 704.007812 424.292969 713.238281 404.277344 701.964844 387.328125 C 697.367188 380.417969 690.875 377.367188 682.878906 376.039062 C 676.886719 375.050781 665.605469 375.003906 663.316406 382.214844 C 663.230469 382.496094 664.261719 382.421875 664.390625 382.320312 " fill-opacity="1" fill-rule="nonzero"/><path fill="rgb(11.759949%, 8.628845%, 7.449341%)" d="M 661.929688 420.425781 C 651.941406 428.25 656.316406 439.695312 665.382812 445.878906 C 669.90625 448.960938 675.371094 450.542969 680.753906 451.164062 C 684.328125 451.574219 691.535156 451.734375 693.941406 448.457031 C 694.417969 447.8125 692.210938 447.859375 692.007812 447.894531 C 682.425781 449.539062 674.210938 448.785156 666.722656 441.867188 C 659.742188 435.421875 660.539062 428.5625 664.554688 420.847656 C 664.984375 420.023438 662.335938 420.105469 661.929688 420.425781 " fill-opacity="1" fill-rule="nonzero"/><path fill="rgb(11.759949%, 8.628845%, 7.449341%)" d="M 675.644531 421.027344 C 668.890625 426.90625 675.019531 437.757812 680.445312 442.226562 C 683.8125 444.988281 687.757812 447.113281 692.121094 447.71875 C 694.976562 448.109375 699.261719 448.535156 701.351562 446.109375 C 701.792969 445.601562 699.984375 445.519531 699.835938 445.53125 C 692.480469 446.253906 687.140625 443.558594 682.296875 438.046875 C 680.113281 435.554688 678.566406 432.539062 677.761719 429.335938 C 677.074219 426.59375 677.570312 423.851562 677.023438 421.171875 C 676.941406 420.765625 675.878906 420.824219 675.644531 421.027344 " fill-opacity="1" fill-rule="nonzero"/><path fill="rgb(11.759949%, 8.628845%, 7.449341%)" d="M 666.175781 398.691406 C 669.367188 396.953125 672.230469 395.117188 675.941406 394.695312 C 680.804688 394.140625 682.964844 398.15625 686.277344 400.664062 C 686.769531 401.039062 688.96875 401.246094 689.113281 400.378906 C 690.082031 394.617188 680.183594 392.789062 676.246094 392.824219 C 672.941406 392.855469 664.914062 394.175781 664.414062 398.511719 C 664.351562 399.074219 665.941406 398.820312 666.175781 398.691406 " fill-opacity="1" fill-rule="nonzero"/><path fill="rgb(11.759949%, 8.628845%, 7.449341%)" d="M 196.652344 382.214844 C 196.652344 382.214844 197.714844 382.074219 199.703125 381.820312 C 201.6875 381.59375 204.609375 381.234375 208.347656 381.023438 C 212.085938 380.792969 216.636719 380.652344 221.871094 380.847656 C 227.097656 381.058594 233.027344 381.523438 239.371094 382.96875 C 242.546875 383.683594 245.824219 384.617188 249.117188 385.9375 C 252.414062 387.253906 255.738281 388.996094 258.738281 391.523438 C 261.714844 393.984375 264.410156 397.589844 265.042969 402.015625 C 265.125 402.554688 265.132812 403.109375 265.179688 403.660156 C 265.1875 403.769531 265.191406 403.710938 265.191406 403.953125 L 265.1875 404.136719 L 265.167969 404.5 L 265.144531 405.226562 C 265.101562 405.761719 265.007812 406.371094 264.933594 406.9375 L 264.558594 408.550781 C 263.945312 410.683594 262.90625 412.65625 261.644531 414.429688 C 259.089844 417.980469 255.679688 420.730469 252.050781 423.03125 C 248.390625 425.292969 244.449219 427.101562 240.367188 428.535156 C 232.183594 431.359375 223.507812 432.835938 214.816406 433.332031 C 206.089844 433.765625 197.382812 433.195312 188.929688 431.5 C 180.511719 429.824219 172.351562 426.960938 165.316406 422.410156 C 161.824219 420.117188 158.613281 417.324219 156.269531 413.824219 C 155.105469 412.082031 154.191406 410.148438 153.660156 408.105469 C 153.398438 407.089844 153.234375 406.042969 153.175781 405.003906 L 153.144531 404.222656 L 153.132812 403.746094 L 153.15625 403.402344 C 153.203125 402.914062 153.179688 402.539062 153.285156 401.96875 C 153.859375 397.710938 156.074219 394.304688 158.660156 391.714844 C 161.265625 389.121094 164.214844 387.21875 167.132812 385.710938 C 172.992188 382.683594 178.789062 381.117188 183.933594 380.078125 C 189.078125 379.03125 193.628906 378.585938 197.363281 378.324219 C 201.105469 378.0625 204.054688 378.109375 206.054688 378.121094 C 208.058594 378.179688 209.121094 378.210938 209.121094 378.210938 C 209.121094 378.210938 208.058594 378.269531 206.0625 378.375 C 204.066406 378.503906 201.144531 378.761719 197.453125 379.214844 C 193.765625 379.695312 189.300781 380.414062 184.320312 381.746094 C 179.359375 383.089844 173.808594 384.953125 168.394531 388.015625 C 165.707031 389.554688 163.0625 391.457031 160.878906 393.835938 C 158.675781 396.148438 156.996094 399.179688 156.6875 402.261719 C 156.304688 405.601562 157.335938 408.839844 159.382812 411.703125 C 161.40625 414.5625 164.261719 417.023438 167.492188 419.039062 C 173.980469 423.085938 181.761719 425.632812 189.78125 427.207031 C 197.8125 428.796875 206.265625 429.230469 214.582031 428.851562 C 222.921875 428.433594 231.230469 427.054688 238.960938 424.441406 C 242.8125 423.125 246.523438 421.535156 249.90625 419.527344 C 253.253906 417.496094 256.316406 415.070312 258.503906 412.144531 C 259.589844 410.683594 260.433594 409.109375 260.96875 407.472656 L 261.296875 406.230469 C 261.355469 405.832031 261.4375 405.480469 261.496094 405.046875 L 261.542969 404.316406 L 261.566406 403.960938 L 261.578125 403.777344 L 261.566406 403.707031 C 261.542969 403.296875 261.5625 402.878906 261.503906 402.472656 C 261.140625 399.183594 259.171875 396.207031 256.605469 393.964844 C 254.046875 391.691406 251.039062 389.949219 247.992188 388.582031 C 244.9375 387.210938 241.824219 386.179688 238.78125 385.367188 C 232.6875 383.765625 226.914062 382.902344 221.769531 382.425781 C 216.621094 381.945312 212.097656 381.839844 208.375 381.851562 C 204.644531 381.878906 201.722656 381.953125 199.71875 382.050781 C 197.722656 382.15625 196.652344 382.214844 196.652344 382.214844 " fill-opacity="1" fill-rule="nonzero"/><path fill="rgb(11.759949%, 8.628845%, 7.449341%)" d="M 188.226562 403.84375 C 188.226562 408.304688 186.417969 411.921875 184.1875 411.921875 C 181.960938 411.921875 180.152344 408.304688 180.152344 403.84375 C 180.152344 399.386719 181.960938 395.769531 184.1875 395.769531 C 186.417969 395.769531 188.226562 399.386719 188.226562 403.84375 " fill-opacity="1" fill-rule="nonzero"/><path fill="rgb(11.759949%, 8.628845%, 7.449341%)" d="M 230.375 404.722656 C 230.375 409.183594 228.566406 412.796875 226.332031 412.796875 C 224.101562 412.796875 222.292969 409.183594 222.292969 404.722656 C 222.292969 400.261719 224.101562 396.644531 226.332031 396.644531 C 228.566406 396.644531 230.375 400.261719 230.375 404.722656 " fill-opacity="1" fill-rule="nonzero"/><path fill="rgb(11.759949%, 8.628845%, 7.449341%)" d="M 197.710938 345.992188 C 197.710938 349.625 194.679688 352.574219 190.953125 352.574219 C 187.214844 352.574219 184.1875 349.625 184.1875 345.992188 C 184.1875 342.351562 187.214844 339.402344 190.953125 339.402344 C 194.679688 339.402344 197.710938 342.351562 197.710938 345.992188 " fill-opacity="1" fill-rule="nonzero"/><path fill="rgb(11.759949%, 8.628845%, 7.449341%)" d="M 274.09375 357.578125 C 274.09375 361.21875 271.070312 364.164062 267.335938 364.164062 C 263.601562 364.164062 260.574219 361.21875 260.574219 357.578125 C 260.574219 353.941406 263.601562 350.996094 267.335938 350.996094 C 271.070312 350.996094 274.09375 353.941406 274.09375 357.578125 " fill-opacity="1" fill-rule="nonzero"/><path fill="rgb(87.838745%, 43.528748%, 30.589294%)" d="M 213.160156 433.988281 C 207.347656 433.988281 201.738281 433.535156 196.488281 432.707031 C 200.710938 433.226562 204.976562 433.472656 209.261719 433.472656 C 211.113281 433.472656 212.960938 433.425781 214.816406 433.332031 C 223.507812 432.835938 232.183594 431.359375 240.367188 428.535156 C 244.449219 427.101562 248.390625 425.292969 252.050781 423.03125 C 255.679688 420.730469 259.089844 417.980469 261.644531 414.429688 C 262.90625 412.65625 263.945312 410.683594 264.558594 408.550781 L 264.933594 406.9375 C 265.007812 406.371094 265.101562 405.761719 265.144531 405.226562 L 265.167969 404.5 L 265.1875 404.136719 L 265.191406 403.953125 C 265.191406 403.710938 265.1875 403.769531 265.179688 403.660156 C 265.132812 403.109375 265.125 402.554688 265.042969 402.015625 C 264.863281 400.742188 264.511719 399.539062 264.027344 398.410156 C 266.167969 401.253906 267.335938 404.324219 267.335938 407.53125 C 267.335938 422.144531 243.082031 433.988281 213.160156 433.988281 M 208.996094 428.980469 C 202.515625 428.980469 196.019531 428.445312 189.78125 427.207031 C 181.761719 425.632812 173.980469 423.085938 167.492188 419.039062 C 164.535156 417.195312 161.894531 414.980469 159.921875 412.433594 C 159.3125 410.839844 158.992188 409.207031 158.992188 407.53125 C 158.992188 395.515625 175.390625 385.375 197.851562 382.152344 C 198.332031 382.121094 198.960938 382.09375 199.71875 382.050781 C 201.722656 381.953125 204.644531 381.878906 208.375 381.851562 C 208.609375 381.851562 208.84375 381.851562 209.085938 381.851562 C 212.667969 381.851562 216.941406 381.976562 221.769531 382.425781 C 226.914062 382.902344 232.6875 383.765625 238.78125 385.367188 C 241.824219 386.179688 244.9375 387.210938 247.992188 388.582031 C 251.039062 389.949219 254.046875 391.691406 256.605469 393.964844 C 259.171875 396.207031 261.140625 399.183594 261.503906 402.472656 C 261.5625 402.878906 261.542969 403.296875 261.566406 403.707031 L 261.578125 403.777344 L 261.566406 403.960938 L 261.542969 404.316406 L 261.496094 405.046875 C 261.4375 405.480469 261.355469 405.832031 261.296875 406.230469 L 260.96875 407.472656 C 260.433594 409.109375 259.589844 410.683594 258.503906 412.144531 C 256.316406 415.070312 253.253906 417.496094 249.90625 419.527344 C 246.523438 421.535156 242.8125 423.125 238.960938 424.441406 C 231.230469 427.054688 222.921875 428.433594 214.582031 428.851562 C 212.726562 428.9375 210.863281 428.980469 208.996094 428.980469 M 226.332031 396.644531 C 224.101562 396.644531 222.292969 400.261719 222.292969 404.722656 C 222.292969 409.183594 224.101562 412.796875 226.332031 412.796875 C 228.566406 412.796875 230.375 409.183594 230.375 404.722656 C 230.375 400.261719 228.566406 396.644531 226.332031 396.644531 M 184.1875 395.769531 C 181.960938 395.769531 180.152344 399.386719 180.152344 403.84375 C 180.152344 408.304688 181.960938 411.921875 184.1875 411.921875 C 186.417969 411.921875 188.226562 408.304688 188.226562 403.84375 C 188.226562 399.386719 186.417969 395.769531 184.1875 395.769531 " fill-opacity="1" fill-rule="nonzero"/><path fill="rgb(11.369324%, 7.839966%, 7.058716%)" d="M 209.261719 433.472656 C 204.976562 433.472656 200.710938 433.226562 196.488281 432.707031 C 177.820312 429.765625 163.589844 422.003906 159.921875 412.433594 C 161.894531 414.980469 164.535156 417.195312 167.492188 419.039062 C 173.980469 423.085938 181.761719 425.632812 189.78125 427.207031 C 196.019531 428.445312 202.515625 428.980469 208.996094 428.980469 C 210.863281 428.980469 212.726562 428.9375 214.582031 428.851562 C 222.921875 428.433594 231.230469 427.054688 238.960938 424.441406 C 242.8125 423.125 246.523438 421.535156 249.90625 419.527344 C 253.253906 417.496094 256.316406 415.070312 258.503906 412.144531 C 259.589844 410.683594 260.433594 409.109375 260.96875 407.472656 L 261.296875 406.230469 C 261.355469 405.832031 261.4375 405.480469 261.496094 405.046875 L 261.542969 404.316406 L 261.566406 403.960938 L 261.578125 403.777344 L 261.566406 403.707031 C 261.542969 403.296875 261.5625 402.878906 261.503906 402.472656 C 261.140625 399.183594 259.171875 396.207031 256.605469 393.964844 C 254.046875 391.691406 251.039062 389.949219 247.992188 388.582031 C 244.9375 387.210938 241.824219 386.179688 238.78125 385.367188 C 232.6875 383.765625 226.914062 382.902344 221.769531 382.425781 C 216.941406 381.976562 212.667969 381.851562 209.085938 381.851562 C 208.84375 381.851562 208.609375 381.851562 208.375 381.851562 C 204.644531 381.878906 201.722656 381.953125 199.71875 382.050781 C 198.960938 382.09375 198.332031 382.121094 197.851562 382.152344 C 202.707031 381.453125 207.847656 381.078125 213.160156 381.078125 C 236.515625 381.078125 256.417969 388.292969 264.027344 398.410156 C 264.511719 399.539062 264.863281 400.742188 265.042969 402.015625 C 265.125 402.554688 265.132812 403.109375 265.179688 403.660156 C 265.1875 403.769531 265.191406 403.710938 265.191406 403.953125 L 265.1875 404.136719 L 265.167969 404.5 L 265.144531 405.226562 C 265.101562 405.761719 265.007812 406.371094 264.933594 406.9375 L 264.558594 408.550781 C 263.945312 410.683594 262.90625 412.65625 261.644531 414.429688 C 259.089844 417.980469 255.679688 420.730469 252.050781 423.03125 C 248.390625 425.292969 244.449219 427.101562 240.367188 428.535156 C 232.183594 431.359375 223.507812 432.835938 214.816406 433.332031 C 212.960938 433.425781 211.113281 433.472656 209.261719 433.472656 " fill-opacity="1" fill-rule="nonzero"/><path fill="rgb(11.369324%, 7.839966%, 7.058716%)" d="M 184.1875 411.921875 C 181.960938 411.921875 180.152344 408.304688 180.152344 403.84375 C 180.152344 399.386719 181.960938 395.769531 184.1875 395.769531 C 186.417969 395.769531 188.226562 399.386719 188.226562 403.84375 C 188.226562 408.304688 186.417969 411.921875 184.1875 411.921875 " fill-opacity="1" fill-rule="nonzero"/><path fill="rgb(11.369324%, 7.839966%, 7.058716%)" d="M 226.332031 412.796875 C 224.101562 412.796875 222.292969 409.183594 222.292969 404.722656 C 222.292969 400.261719 224.101562 396.644531 226.332031 396.644531 C 228.566406 396.644531 230.375 400.261719 230.375 404.722656 C 230.375 409.183594 228.566406 412.796875 226.332031 412.796875 " fill-opacity="1" fill-rule="nonzero"/></svg>