<svg xmlns="http://www.w3.org/2000/svg" xmlns:xlink="http://www.w3.org/1999/xlink" width="1080" zoomAndPan="magnify" viewBox="0 0 810 809.999993" height="1080" preserveAspectRatio="xMidYMid meet" version="1.0"><defs><clipPath id="id1"><path d="M 500 99.703125 L 545.078125 99.703125 L 545.078125 173 L 500 173 Z M 500 99.703125 " clip-rule="nonzero"/></clipPath><clipPath id="id2"><path d="M 339.074219 106.265625 L 542 106.265625 L 542 728.898438 L 339.074219 728.898438 Z M 339.074219 106.265625 " clip-rule="nonzero"/></clipPath></defs><rect x="-81" width="972" fill="rgb(100%, 8.628845%, 8.628845%)" y="-80.999999" height="971.999992" fill-opacity="1"/><rect x="-81" width="972" fill="rgb(100%, 100%, 100%)" y="-80.999999" height="971.999992" fill-opacity="1"/><rect x="-81" width="972" fill="rgb(100%, 8.628845%, 8.628845%)" y="-80.999999" height="971.999992" fill-opacity="1"/><path fill="rgb(77.648926%, 43.139648%, 68.629456%)" d="M 431.378906 695.5625 L 398.539062 697.082031 L 393.992188 709.707031 L 382.878906 697.082031 L 383.882812 681.980469 L 372.75 495.261719 L 372.847656 494.757812 L 393.058594 393.230469 L 400.988281 394.808594 L 380.878906 495.828125 L 391.921875 680.929688 L 391.972656 680.914062 L 428.351562 686.476562 L 415.21875 688.496094 L 431.378906 695.5625 " fill-opacity="1" fill-rule="nonzero"/><path fill="rgb(84.309387%, 8.239746%, 58.039856%)" d="M 493.085938 367.4375 C 467.046875 372.53125 454.160156 369.300781 447.910156 366.769531 C 444.929688 366.003906 441.546875 364.84375 437.300781 362.382812 C 436.621094 361.976562 436.066406 361.644531 435.328125 361.136719 C 434.589844 360.621094 433.867188 360.074219 433.171875 359.515625 L 432.140625 358.664062 L 430.96875 357.59375 C 430.96875 357.59375 409.148438 399.070312 400.722656 399.574219 C 392.308594 400.082031 366.128906 368.265625 341.511719 351.347656 L 340.09375 353.441406 C 340.09375 353.441406 309.109375 389.136719 308.09375 372.300781 C 307.414062 360.914062 305.34375 346.15625 304.074219 337.78125 C 290.25 352.179688 270.324219 391.707031 270.03125 384.085938 C 269.695312 375.332031 265.101562 373.652344 273.734375 348.058594 C 284.730469 315.480469 327.800781 274.8125 339.421875 266.230469 C 351.039062 257.644531 367.023438 250.296875 375.019531 247.285156 C 386.148438 241.5625 399.640625 238.195312 414.199219 238.195312 C 447.917969 238.195312 475.96875 256.183594 481.96875 279.957031 C 484.757812 288.085938 488.257812 300.632812 487.144531 309.828125 C 489.21875 308.929688 491.15625 307.726562 493.039062 306.484375 C 495.554688 304.785156 497.894531 302.828125 499.925781 300.601562 C 503.945312 296.113281 506.777344 290.398438 507.503906 283.464844 C 507.898438 280.015625 507.835938 276.304688 507.339844 272.46875 C 506.816406 268.636719 505.867188 264.679688 504.574219 260.722656 L 503.625 257.933594 L 502.316406 254.628906 C 501.398438 252.417969 500.484375 250.199219 499.566406 247.996094 C 497.71875 243.417969 495.90625 238.863281 494.296875 234.253906 C 491.1875 225.558594 486.964844 211.042969 486.148438 208.367188 C 485.339844 205.6875 482.21875 196.722656 479.21875 182.046875 C 465.316406 114.074219 479.859375 93.699219 487.988281 87.757812 L 487.976562 87.671875 C 487.976562 87.671875 488.554688 87.28125 489.546875 86.738281 C 490.179688 86.367188 490.75 86.089844 491.21875 85.898438 C 495.925781 83.714844 505.039062 80.96875 513.867188 86.796875 C 513.925781 86.828125 513.964844 86.867188 514.019531 86.90625 C 520.21875 90.382812 524.355469 96.550781 524.355469 103.585938 C 524.355469 106.75 523.503906 109.730469 522.023438 112.378906 C 519.789062 117.65625 514.003906 126.207031 507.679688 125.808594 C 501.90625 125.449219 497.828125 123.035156 496.554688 122.894531 C 495.285156 122.753906 492.648438 125.066406 492.585938 127.511719 C 492.527344 129.96875 492.148438 133.070312 492.21875 136.664062 C 492.304688 142.234375 492.746094 148.53125 493.675781 155.355469 C 494.578125 162.1875 495.910156 169.546875 497.75 177.242188 C 499.558594 184.9375 501.929688 192.960938 504.855469 201.09375 C 507.746094 209.238281 511.15625 217.503906 515.054688 225.707031 C 516.949219 229.828125 519.054688 233.902344 521.167969 237.972656 C 522.285156 240.066406 523.40625 242.167969 524.527344 244.265625 L 526.238281 247.449219 L 528.085938 251.257812 C 530.363281 256.152344 532.324219 261.335938 533.777344 266.808594 C 535.257812 272.269531 536.289062 278.03125 536.507812 283.988281 C 536.554688 285.398438 536.554688 286.820312 536.515625 288.25 C 536.636719 298.28125 535.597656 359.121094 493.085938 367.4375 " fill-opacity="1" fill-rule="nonzero"/><g clip-path="url(#id1)"><path fill="rgb(18.429565%, 10.978699%, 14.898682%)" d="M 500.097656 101.558594 C 500.097656 102.539062 500.886719 103.328125 501.867188 103.328125 C 502.839844 103.328125 503.636719 102.539062 503.636719 101.558594 C 503.636719 100.585938 502.847656 99.792969 501.867188 99.792969 C 500.894531 99.792969 500.097656 100.585938 500.097656 101.558594 Z M 541.65625 131.550781 C 541.65625 131.550781 548.097656 146.265625 543.296875 159.902344 C 538.503906 173.539062 537.738281 172.023438 537.738281 172.023438 C 537.738281 172.023438 532.558594 154.683594 527.765625 146.605469 C 522.964844 138.515625 537.617188 127.511719 541.65625 131.550781 " fill-opacity="1" fill-rule="nonzero"/></g><g clip-path="url(#id2)"><path fill="rgb(86.268616%, 52.159119%, 75.289917%)" d="M 446.328125 306.628906 C 446.488281 306.097656 446.1875 305.535156 445.648438 305.375 C 445.121094 305.207031 444.550781 305.515625 444.390625 306.046875 C 444.191406 306.707031 424.128906 371.917969 378.261719 367.125 C 362.75 365.507812 348.398438 354.292969 343.761719 350.339844 C 347.292969 349.65625 353.488281 348.019531 354.164062 344.898438 C 354.519531 343.304688 353.480469 341.714844 351.082031 340.171875 C 349.941406 339.441406 348.074219 338.015625 348.410156 336.761719 C 349.058594 334.261719 356.84375 331.796875 365.757812 331.257812 C 374.070312 330.75 377.847656 325.988281 377.871094 322.773438 C 377.882812 320.90625 376.703125 319.613281 374.863281 319.472656 C 372.710938 319.304688 370.578125 317.714844 370.109375 315.929688 C 369.828125 314.863281 370.230469 313.953125 371.308594 313.238281 C 375.363281 310.539062 409.707031 280.101562 411.167969 278.8125 C 411.582031 278.441406 411.621094 277.800781 411.25 277.382812 C 410.878906 276.964844 410.242188 276.925781 409.828125 277.300781 C 409.46875 277.613281 374.128906 308.9375 370.191406 311.558594 C 368.398438 312.757812 367.652344 314.53125 368.152344 316.441406 C 368.832031 319.042969 371.71875 321.261719 374.71875 321.492188 C 375 321.515625 375.859375 321.582031 375.851562 322.753906 C 375.832031 325.125 372.570312 328.816406 365.632812 329.238281 C 359.082031 329.636719 347.679688 331.558594 346.449219 336.25 C 345.953125 338.152344 347.148438 340.042969 349.992188 341.875 C 351.53125 342.863281 352.339844 343.808594 352.191406 344.46875 C 351.773438 346.367188 345.484375 348.117188 341.363281 348.699219 L 339.300781 348.996094 L 340.8125 350.429688 C 341.53125 351.117188 358.570312 367.105469 378.058594 369.136719 C 379.75 369.316406 381.417969 369.398438 383.042969 369.398438 C 426.988281 369.398438 446.136719 307.285156 446.328125 306.628906 Z M 507.128906 107.328125 C 506.578125 108.757812 509.148438 121.597656 511.847656 123.828125 C 514.539062 126.058594 527.605469 145.21875 528.308594 147.777344 C 528.328125 147.851562 535.464844 126.886719 541.488281 131.402344 C 542.835938 132.414062 528.355469 109.347656 523.636719 108 C 518.917969 106.65625 507.675781 105.898438 507.128906 107.328125 Z M 500.097656 707.6875 L 513.234375 719.808594 L 486.957031 715.769531 L 477.359375 728.898438 L 473.597656 695.507812 L 473.269531 695.652344 L 471.015625 690.738281 L 470.789062 690.515625 L 470.910156 690.515625 L 396.011719 527.464844 L 395.507812 389.488281 L 405.609375 389.449219 L 406.109375 525.238281 L 482.207031 690.894531 L 514.246094 706.171875 L 500.097656 707.6875 " fill-opacity="1" fill-rule="nonzero"/></g></svg>