<svg xmlns="http://www.w3.org/2000/svg" xmlns:xlink="http://www.w3.org/1999/xlink" width="1080" zoomAndPan="magnify" viewBox="0 0 810 809.999993" height="1080" preserveAspectRatio="xMidYMid meet" version="1.0"><defs><clipPath id="id1"><path d="M 237.71875 156.613281 L 542 156.613281 L 542 653.113281 L 237.71875 653.113281 Z M 237.71875 156.613281 " clip-rule="nonzero"/></clipPath><clipPath id="id2"><path d="M 469 182.207031 L 547.8125 182.207031 L 547.8125 255.648438 L 469 255.648438 Z M 469 182.207031 " clip-rule="nonzero"/></clipPath></defs><rect x="-81" width="972" fill="rgb(100%, 87.059021%, 34.899902%)" y="-80.999999" height="971.999992" fill-opacity="1"/><rect x="-81" width="972" fill="rgb(100%, 100%, 100%)" y="-80.999999" height="971.999992" fill-opacity="1"/><rect x="-81" width="972" fill="rgb(100%, 87.059021%, 34.899902%)" y="-80.999999" height="971.999992" fill-opacity="1"/><g clip-path="url(#id1)"><path fill="rgb(27.059937%, 71.369934%, 44.309998%)" d="M 541.484375 183.824219 C 540.351562 179.140625 534.761719 173.734375 530.425781 170.734375 C 511.558594 157.699219 482.488281 150.621094 459.238281 163.199219 C 450.664062 167.84375 429.796875 184.015625 420.980469 195.929688 C 394.515625 231.671875 366.917969 292.902344 337.824219 336.230469 L 338.355469 337.296875 C 327.367188 355.101562 319.222656 375.386719 312.0625 396.441406 C 293.785156 448.492188 274.597656 505.113281 270.945312 560.8125 C 270.945312 560.8125 267.582031 568.597656 267.578125 568.601562 C 259.722656 586.757812 225.582031 624.535156 242.238281 646.191406 C 253.339844 660.613281 289.074219 648.609375 303.554688 645.699219 C 348.082031 636.75 357.855469 599.933594 370 560.492188 L 383.183594 562.523438 C 391.75 566.269531 411.882812 546.582031 430.78125 525.082031 L 430.878906 525.273438 C 429.625 533.257812 438.011719 545.777344 444.59375 554.179688 C 431.800781 559.425781 424.808594 571.417969 438.320312 577.457031 C 438.46875 579.890625 439.136719 582.164062 440.519531 584.101562 C 446.089844 591.917969 464.640625 587.875 464.640625 587.875 L 452.035156 577.257812 C 452.035156 577.257812 464.269531 565.207031 470.207031 562.984375 C 484.3125 559.273438 486.90625 577.257812 486.90625 577.257812 C 486.90625 577.257812 493.960938 566.363281 491.734375 556.71875 C 489.765625 548.1875 480.96875 542.859375 472.605469 543.269531 C 478.8125 533.746094 497.785156 501.699219 512.816406 444.957031 C 519.011719 422.484375 537.496094 356.753906 533.695312 315.734375 C 534.105469 300.679688 530.328125 288.144531 521.421875 280.289062 L 521.421875 263.535156 L 522.785156 255.429688 L 532.679688 217.6875 L 532.695312 217.601562 C 532.890625 217.648438 533.082031 217.679688 533.277344 217.722656 C 538.625 218.746094 542.621094 188.511719 541.484375 183.824219 " fill-opacity="1" fill-rule="nonzero"/></g><g clip-path="url(#id2)"><path fill="rgb(92.939758%, 63.529968%, 7.839966%)" d="M 547.769531 204.972656 C 547.753906 204.691406 547.734375 204.40625 547.714844 204.117188 C 547.667969 203.589844 547.621094 203.050781 547.554688 202.507812 C 547.539062 202.332031 547.515625 202.160156 547.492188 201.980469 C 547.4375 201.550781 547.378906 201.109375 547.304688 200.679688 C 547.269531 200.46875 547.238281 200.269531 547.199219 200.0625 C 547.164062 199.84375 547.121094 199.625 547.082031 199.410156 C 546.886719 198.355469 546.648438 197.292969 546.375 196.230469 C 546.160156 195.394531 545.921875 194.5625 545.664062 193.730469 C 545.589844 193.492188 545.515625 193.257812 545.433594 193.019531 C 545.300781 192.585938 545.152344 192.164062 545.003906 191.746094 C 545.003906 191.738281 545.003906 191.730469 545 191.730469 C 544.042969 189.015625 542.855469 186.339844 541.484375 183.824219 C 539.851562 192.757812 535.90625 200.621094 525.898438 200.871094 C 517.195312 201.09375 509.015625 197.460938 500.644531 195.710938 C 492.800781 194.074219 474.800781 187.246094 469.117188 182.367188 C 471.648438 191.109375 482.695312 210.320312 504.496094 215.566406 C 511.101562 217.164062 525.894531 216.984375 532.671875 217.683594 L 526.171875 239.210938 L 522.785156 255.425781 C 527.855469 253.402344 533.269531 250.359375 537.328125 246.304688 L 532.695312 217.601562 L 532.695312 217.605469 L 532.695312 217.597656 C 532.890625 217.640625 533.082031 217.675781 533.277344 217.71875 C 538.628906 218.746094 545.429688 217.6875 546.414062 215.207031 C 547.550781 212.324219 547.96875 208.792969 547.769531 204.972656 " fill-opacity="1" fill-rule="nonzero"/></g><path fill="rgb(92.939758%, 63.529968%, 7.839966%)" d="M 518.554688 277.601562 L 517.796875 277.722656 C 549.773438 306.035156 519.480469 349.863281 501.203125 376.351562 C 475.617188 413.789062 388.273438 543.140625 370 560.492188 L 383.1875 562.523438 C 399.414062 569.617188 457.210938 492.589844 469.382812 478.402344 C 469.382812 478.402344 572.257812 312.085938 518.554688 277.601562 " fill-opacity="1" fill-rule="nonzero"/><path fill="rgb(92.939758%, 63.529968%, 7.839966%)" d="M 253.578125 614.078125 C 243.972656 628.761719 245.671875 632.449219 249.027344 634.640625 C 252.382812 636.832031 256.121094 636.691406 265.730469 622.011719 C 275.339844 607.332031 283.832031 581.476562 283.832031 581.476562 C 283.832031 581.476562 263.191406 599.398438 253.578125 614.078125 " fill-opacity="1" fill-rule="nonzero"/><path fill="rgb(92.939758%, 63.529968%, 7.839966%)" d="M 278.398438 616.820312 C 269.769531 631.382812 271.570312 634.867188 274.902344 636.832031 C 278.230469 638.800781 281.824219 638.5 290.449219 623.941406 C 298.339844 610.625 298.78125 610.433594 306.140625 584.097656 C 306.140625 584.097656 287.023438 602.253906 278.398438 616.820312 " fill-opacity="1" fill-rule="nonzero"/><path fill="rgb(92.939758%, 63.529968%, 7.839966%)" d="M 309.199219 614.039062 C 300.273438 628.425781 302 631.945312 305.289062 633.976562 C 308.578125 636.011719 312.179688 635.789062 321.101562 621.40625 C 330.027344 607.023438 337.609375 581.890625 337.609375 581.890625 C 337.609375 581.890625 318.125 599.65625 309.199219 614.039062 " fill-opacity="1" fill-rule="nonzero"/><path fill="rgb(92.939758%, 63.529968%, 7.839966%)" d="M 437.726562 341.25 C 436.542969 349.140625 437.125 358.574219 449.328125 361.785156 L 449.441406 361.8125 C 457.894531 363.761719 468.53125 358.652344 475.769531 352.390625 C 476.976562 356.664062 479.535156 360.214844 483.234375 362.472656 C 485.890625 364.101562 488.890625 364.898438 492.015625 364.898438 C 496.699219 364.898438 501.65625 363.105469 506.152344 359.609375 L 501.363281 353.460938 C 496.417969 357.304688 491.160156 358.1875 487.300781 355.828125 C 483.589844 353.558594 482.015625 348.824219 483.09375 343.171875 L 475.84375 340.574219 C 471.980469 347.652344 458.640625 355.878906 451.246094 354.238281 C 443.929688 352.289062 444.140625 347.796875 446.429688 337.28125 C 446.816406 335.496094 447.21875 333.652344 447.488281 331.90625 L 441.332031 328.175781 C 439.140625 329.777344 436.9375 331.675781 434.800781 333.507812 C 424.386719 342.449219 417.539062 347.492188 408.539062 338.945312 C 403.660156 334.074219 402.847656 326.554688 406.359375 318.832031 L 399.265625 315.609375 C 394.429688 326.246094 395.867188 337.296875 403.097656 344.523438 C 416.644531 357.378906 428.609375 348.9375 437.726562 341.25 " fill-opacity="1" fill-rule="nonzero"/><path fill="rgb(92.939758%, 63.529968%, 7.839966%)" d="M 403.960938 479.210938 C 404.621094 479.28125 405.296875 479.3125 405.980469 479.3125 C 415.308594 479.3125 426.292969 472.996094 430.183594 458.3125 L 422.648438 456.320312 C 419.628906 467.726562 411.472656 472.144531 404.746094 471.460938 C 398.863281 470.867188 392.355469 466.195312 391.707031 454.871094 L 383.925781 455.3125 C 384.855469 471.550781 395.296875 478.335938 403.960938 479.210938 " fill-opacity="1" fill-rule="nonzero"/><path fill="rgb(93.328857%, 29.798889%, 11.759949%)" d="M 534.265625 217.882812 C 533.929688 217.835938 532.886719 217.644531 532.695312 217.597656 L 532.679688 217.683594 C 532.679688 217.683594 529.769531 224.992188 527.730469 232.039062 C 525.6875 239.082031 525.132812 244.167969 525.132812 244.167969 C 532.96875 248.6875 536.21875 261.394531 543.199219 266.046875 C 549.195312 252.863281 545.839844 227.335938 534.265625 217.882812 " fill-opacity="1" fill-rule="nonzero"/><path fill="rgb(100%, 100%, 100%)" d="M 486.90625 200.699219 C 493.589844 214.886719 507.1875 218.941406 522.402344 214.886719 C 521.382812 200.699219 496.929688 188.679688 486.90625 199.828125 L 486.90625 200.699219 " fill-opacity="1" fill-rule="nonzero"/><path fill="rgb(20.779419%, 19.60907%, 55.288696%)" d="M 503.617188 200.296875 C 506.746094 200.296875 509.277344 202.828125 509.277344 205.949219 C 509.277344 209.070312 506.746094 211.597656 503.617188 211.597656 C 500.496094 211.597656 497.964844 209.070312 497.964844 205.949219 C 497.964844 202.828125 500.496094 200.296875 503.617188 200.296875 " fill-opacity="1" fill-rule="nonzero"/><path fill="rgb(20.779419%, 19.60907%, 55.288696%)" d="M 375.882812 514.949219 C 365.773438 510.777344 369.855469 494.039062 369.898438 493.871094 L 366.121094 492.914062 L 362.34375 491.945312 C 362.101562 492.902344 356.546875 515.402344 372.910156 522.148438 C 375.132812 523.0625 377.285156 523.46875 379.351562 523.46875 C 389.589844 523.46875 397.671875 513.578125 400.925781 507.332031 L 394.011719 503.734375 C 393.933594 503.886719 385.832031 519.046875 375.882812 514.949219 " fill-opacity="1" fill-rule="nonzero"/><path fill="rgb(20.779419%, 19.60907%, 55.288696%)" d="M 507.941406 287.660156 C 507.09375 292.28125 504.050781 295.820312 499.601562 297.371094 C 495.027344 298.964844 490.027344 298.066406 486.550781 295.03125 C 482.085938 291.132812 480.410156 284.160156 481.734375 275.238281 C 481.949219 274.285156 482.121094 273.316406 482.242188 272.335938 L 474.554688 271.078125 C 474.367188 272.015625 474.199219 272.929688 474.0625 273.820312 C 472.28125 281.167969 466.710938 286.871094 458.761719 289.324219 C 451.746094 291.488281 444.765625 290.363281 441.390625 286.527344 C 438.761719 283.539062 438.375 278.839844 440.203125 273.050781 C 440.9375 271.5625 441.554688 269.980469 442.035156 268.316406 L 434.746094 265.617188 C 434.035156 267.179688 433.449219 268.660156 432.980469 270.074219 C 430.667969 274.460938 426.941406 277.527344 422.648438 278.394531 C 402.816406 282.398438 393.671875 255.621094 395.84375 240.328125 C 396.160156 238.101562 396.535156 235.84375 396.976562 233.585938 C 377.914062 266.625 317.601562 363.378906 310.4375 384.433594 C 292.164062 436.484375 274.601562 505.113281 270.945312 560.8125 C 280.386719 568.359375 299.84375 576.808594 323.941406 577.253906 C 333.078125 577.417969 334.902344 568.121094 338.558594 559.902344 C 342.214844 549.855469 335.820312 537.074219 336.734375 527.027344 C 353.179688 536.160156 356.363281 508.691406 354.191406 489.804688 C 352.015625 470.917969 351.351562 453.058594 355.921875 450.320312 C 361.402344 446.667969 369.625 461.277344 378.761719 455.796875 C 383.8125 452.4375 384.410156 437.824219 383.75 421.882812 C 383.515625 416.210938 383.128906 410.371094 382.726562 404.800781 C 385.625 406.789062 388.789062 408.140625 391.921875 408.820312 C 398.242188 410.203125 406.269531 409.160156 412.933594 403.527344 C 413.691406 408.722656 415.816406 412.5 417.984375 415.117188 C 423.65625 421.957031 432.125 424.34375 439.144531 424.34375 C 440.28125 424.34375 441.371094 424.277344 442.414062 424.164062 C 455.449219 422.792969 462.546875 410.5 468.8125 399.65625 C 470.40625 396.882812 471.921875 394.261719 473.453125 391.96875 L 466.96875 387.648438 C 465.296875 390.152344 463.722656 392.875 462.058594 395.761719 C 456.46875 405.445312 450.683594 415.460938 441.574219 416.421875 C 436.34375 417.007812 428.59375 415.707031 423.988281 410.148438 C 420.101562 405.460938 419.40625 398.570312 421.976562 390.214844 L 414.625 387.636719 C 409.753906 399.96875 400.570312 402.738281 393.585938 401.214844 C 389.246094 400.269531 384.824219 397.464844 381.863281 392.964844 C 381.335938 385.429688 381.042969 379.347656 381.507812 376.347656 C 382.710938 359.457031 386.261719 342.777344 391.09375 326.566406 C 393.773438 317.585938 397.171875 308.855469 400.644531 300.15625 C 402.339844 295.914062 402.867188 289.160156 406.660156 286.101562 C 411.832031 281.925781 418.171875 287.242188 424.195312 286.03125 C 426.824219 285.5 429.304688 284.460938 431.550781 282.996094 C 432.21875 287.113281 434.015625 289.9375 435.539062 291.667969 C 440.988281 297.867188 451.007812 299.867188 461.0625 296.765625 C 466.316406 295.144531 470.851562 292.355469 474.375 288.726562 C 475.878906 295.007812 479.03125 298.804688 481.425781 300.894531 C 485.199219 304.195312 490.0625 305.933594 495.046875 305.933594 C 497.429688 305.933594 499.839844 305.539062 502.167969 304.726562 C 509.238281 302.261719 514.257812 296.40625 515.609375 289.066406 L 507.941406 287.660156 " fill-opacity="1" fill-rule="nonzero"/></svg>