<svg xmlns="http://www.w3.org/2000/svg" xmlns:xlink="http://www.w3.org/1999/xlink" width="1080" zoomAndPan="magnify" viewBox="0 0 810 809.999993" height="1080" preserveAspectRatio="xMidYMid meet" version="1.0"><rect x="-81" width="972" fill="rgb(100%, 87.059021%, 34.899902%)" y="-80.999999" height="971.999992" fill-opacity="1"/><rect x="-81" width="972" fill="rgb(100%, 100%, 100%)" y="-80.999999" height="971.999992" fill-opacity="1"/><rect x="-81" width="972" fill="rgb(100%, 87.059021%, 34.899902%)" y="-80.999999" height="971.999992" fill-opacity="1"/><path fill="rgb(64.309692%, 45.098877%, 26.269531%)" d="M 309.230469 311.351562 C 309.230469 311.351562 308.980469 311.464844 308.460938 311.691406 C 304.625 313.402344 286.902344 321.277344 266.484375 329.957031 C 256.273438 334.292969 245.386719 338.828125 235.265625 342.882812 C 225.160156 346.929688 215.761719 350.507812 208.820312 352.851562 L 208.828125 352.851562 L 208.695312 352.890625 L 208.671875 352.898438 L 208.933594 354.238281 L 208.933594 352.875 L 208.671875 352.898438 L 208.933594 354.238281 L 208.933594 352.875 L 208.933594 354.9375 L 209.566406 352.972656 C 209.46875 352.933594 209.160156 352.875 208.933594 352.875 L 208.933594 354.9375 L 209.566406 352.972656 L 209.355469 353.613281 L 209.613281 352.980469 L 209.566406 352.972656 L 209.355469 353.613281 L 209.613281 352.980469 L 209.492188 352.925781 C 209.167969 352.761719 208.054688 351.984375 206.621094 350.328125 C 205.371094 348.894531 203.886719 346.832031 202.371094 344.285156 C 199.703125 339.832031 196.9375 333.929688 194.367188 327.375 C 190.480469 317.539062 186.984375 306.273438 183.855469 295.730469 C 182.28125 290.449219 180.796875 285.339844 179.363281 280.59375 C 177.925781 275.851562 176.546875 271.488281 175.070312 267.503906 C 171.496094 257.828125 160.742188 252.882812 151.066406 256.464844 C 141.390625 260.050781 136.441406 270.796875 140.027344 280.472656 C 141 283.109375 142.191406 286.800781 143.492188 291.089844 C 145.777344 298.609375 148.421875 307.976562 151.503906 317.804688 C 153.824219 325.1875 156.378906 332.84375 159.296875 340.320312 C 161.488281 345.933594 163.871094 351.441406 166.570312 356.710938 C 168.589844 360.667969 170.789062 364.488281 173.261719 368.125 C 176.992188 373.566406 181.324219 378.675781 187.125 382.910156 C 190.019531 385 193.320312 386.851562 197.019531 388.171875 C 200.699219 389.496094 204.789062 390.257812 208.933594 390.25 C 212.953125 390.257812 216.992188 389.542969 220.773438 388.261719 L 220.78125 388.261719 C 229.410156 385.34375 240.003906 381.269531 251.269531 376.738281 C 268.128906 369.941406 286.386719 362.136719 300.472656 356.023438 C 314.550781 349.90625 324.453125 345.480469 324.496094 345.460938 C 333.917969 341.246094 338.136719 330.191406 333.917969 320.773438 C 329.710938 311.351562 318.65625 307.132812 309.230469 311.351562 " fill-opacity="1" fill-rule="nonzero"/><path fill="rgb(64.309692%, 45.098877%, 26.269531%)" d="M 412.25 345.820312 C 412.371094 345.859375 431.828125 353.441406 454.128906 361.253906 C 465.289062 365.15625 477.15625 369.113281 487.84375 372.25 C 493.195312 373.816406 498.25 375.1875 502.921875 376.25 C 505.257812 376.777344 507.496094 377.238281 509.683594 377.605469 C 511.875 377.960938 514 378.246094 516.253906 378.375 C 516.757812 378.40625 517.25 378.414062 517.714844 378.414062 C 520.445312 378.421875 523.269531 377.953125 525.855469 377.0625 C 528.28125 376.234375 530.480469 375.058594 532.351562 373.726562 C 535.890625 371.222656 538.289062 368.316406 540.105469 365.542969 C 541.695312 363.09375 542.871094 360.679688 543.851562 358.269531 C 545.546875 354.042969 546.675781 349.800781 547.574219 345.382812 C 548.90625 338.769531 549.683594 331.765625 550.1875 324.585938 C 550.675781 317.410156 550.859375 310.070312 550.859375 303.011719 C 550.859375 292.429688 550.445312 282.476562 549.953125 274.8125 C 549.710938 270.96875 549.449219 267.714844 549.199219 265.152344 C 549.066406 263.863281 548.945312 262.75 548.808594 261.722656 C 548.734375 261.203125 548.671875 260.699219 548.566406 260.117188 C 548.515625 259.824219 548.460938 259.507812 548.371094 259.101562 C 548.28125 258.695312 548.183594 258.226562 547.949219 257.449219 C 545.003906 247.550781 534.601562 241.925781 524.714844 244.867188 C 514.820312 247.8125 509.191406 258.21875 512.132812 268.113281 L 527.355469 263.578125 L 511.816406 266.886719 C 511.875 267.113281 511.941406 267.441406 512.132812 268.105469 L 527.355469 263.578125 L 511.816406 266.886719 L 522.175781 264.683594 L 511.746094 266.492188 C 511.753906 266.554688 511.769531 266.667969 511.816406 266.886719 L 522.175781 264.683594 L 511.746094 266.492188 L 515.847656 265.785156 L 511.738281 266.441406 L 511.746094 266.492188 L 515.847656 265.785156 L 511.738281 266.441406 L 511.746094 266.515625 C 511.777344 266.734375 511.851562 267.316406 511.929688 268.082031 C 512.214844 270.8125 512.621094 275.875 512.9375 282.015625 C 513.253906 288.179688 513.488281 295.492188 513.488281 303.011719 C 513.488281 309.355469 513.316406 315.84375 512.914062 321.867188 C 512.605469 326.378906 512.167969 330.636719 511.597656 334.292969 C 511.175781 337.035156 510.675781 339.4375 510.164062 341.308594 C 509.789062 342.703125 509.402344 343.800781 509.125 344.457031 C 509.019531 344.699219 508.929688 344.886719 508.875 345 L 508.792969 345.144531 L 512.207031 347.238281 L 509.214844 344.601562 C 508.90625 344.953125 508.800781 345.136719 508.792969 345.144531 L 512.207031 347.238281 L 509.214844 344.601562 L 516.660156 351.164062 L 512.160156 342.378906 C 510.59375 343.191406 509.660156 344.101562 509.214844 344.601562 L 516.660156 351.164062 L 512.160156 342.378906 L 517.714844 353.222656 L 517.714844 341.042969 C 515.855469 341.019531 513.691406 341.570312 512.160156 342.378906 L 517.714844 353.222656 L 517.714844 341.042969 L 517.714844 352.746094 L 518.378906 341.058594 C 518.144531 341.050781 517.917969 341.042969 517.714844 341.042969 L 517.714844 352.746094 L 518.378906 341.058594 C 518.015625 341.042969 517.074219 340.945312 515.824219 340.734375 C 513.464844 340.34375 510.027344 339.582031 506.058594 338.535156 C 499.09375 336.710938 490.449219 334.050781 481.550781 331.105469 C 468.175781 326.695312 454.179688 321.640625 443.578125 317.714844 C 438.273438 315.746094 433.8125 314.058594 430.691406 312.867188 C 429.132812 312.273438 427.902344 311.804688 427.074219 311.480469 C 426.652344 311.316406 426.335938 311.195312 426.125 311.113281 C 425.914062 311.035156 425.816406 310.992188 425.816406 310.992188 C 416.199219 307.246094 405.363281 312.007812 401.625 321.625 C 397.875 331.238281 402.628906 342.074219 412.25 345.820312 " fill-opacity="1" fill-rule="nonzero"/><path fill="rgb(64.309692%, 45.098877%, 26.269531%)" d="M 272.386719 469.738281 C 272.234375 469.859375 271.679688 470.25 270.902344 470.746094 C 269.433594 471.6875 267.179688 473.039062 264.496094 474.613281 C 259.785156 477.371094 253.707031 480.84375 247.230469 484.761719 C 242.355469 487.695312 237.246094 490.890625 232.199219 494.304688 C 224.632812 499.449219 217.253906 504.964844 210.871094 511.304688 C 207.683594 514.5 204.714844 517.925781 202.136719 521.945312 C 200.855469 523.957031 199.671875 526.140625 198.679688 528.558594 C 197.691406 530.964844 196.886719 533.632812 196.464844 536.5625 C 196.214844 538.339844 196.109375 540.082031 196.109375 541.785156 C 196.125 546.835938 197 551.476562 198.292969 556.066406 C 200.59375 564.054688 204.246094 571.996094 208.859375 580.324219 C 215.792969 592.785156 224.980469 606.011719 235.550781 619.304688 C 246.117188 632.582031 258.046875 645.859375 270.449219 658.066406 C 277.796875 665.308594 289.628906 665.21875 296.871094 657.863281 C 304.113281 650.507812 304.015625 638.679688 296.667969 631.4375 C 279.476562 614.527344 262.914062 594.890625 251.089844 577.519531 C 245.167969 568.859375 240.449219 560.738281 237.441406 554.179688 C 235.9375 550.910156 234.859375 548.039062 234.246094 545.839844 C 233.601562 543.640625 233.464844 542.125 233.480469 541.785156 L 233.480469 541.726562 L 231.785156 541.613281 L 233.464844 541.851562 L 233.480469 541.726562 L 231.785156 541.613281 L 233.464844 541.851562 L 228.609375 541.160156 L 233.320312 542.539062 C 233.367188 542.402344 233.417969 542.167969 233.464844 541.859375 L 228.609375 541.160156 L 233.320312 542.539062 L 230.863281 541.816406 L 233.269531 542.695312 L 233.320312 542.539062 L 230.863281 541.816406 L 233.269531 542.695312 L 232.65625 542.464844 L 233.261719 542.726562 L 233.269531 542.695312 L 232.65625 542.464844 L 233.261719 542.726562 C 233.261719 542.667969 233.855469 541.542969 235.175781 540.015625 C 237.449219 537.308594 241.746094 533.472656 246.9375 529.644531 C 254.746094 523.84375 264.503906 517.890625 273.191406 512.796875 C 277.542969 510.242188 281.632812 507.898438 285.21875 505.78125 C 287.007812 504.71875 288.671875 503.722656 290.230469 502.742188 C 291.792969 501.757812 293.222656 500.820312 294.722656 499.707031 C 302.996094 493.535156 304.707031 481.824219 298.535156 473.550781 C 292.371094 465.277344 280.660156 463.574219 272.386719 469.746094 " fill-opacity="1" fill-rule="nonzero"/><path fill="rgb(64.309692%, 45.098877%, 26.269531%)" d="M 420.941406 488.183594 C 420.78125 488.359375 402.574219 507.355469 384.082031 529.464844 C 374.820312 540.550781 365.492188 552.359375 358.105469 563.414062 C 354.40625 568.972656 351.179688 574.316406 348.605469 579.703125 C 347.324219 582.402344 346.199219 585.121094 345.304688 588.0625 C 344.429688 591.023438 343.714844 594.210938 343.699219 598.152344 C 343.699219 598.996094 343.734375 599.929688 343.839844 600.949219 L 343.839844 600.886719 C 344.972656 612.199219 347.828125 631.769531 355.296875 653.320312 C 359.042969 664.089844 363.960938 675.363281 370.527344 686.296875 C 377.097656 697.230469 385.355469 707.847656 395.785156 717.050781 C 403.523438 723.882812 415.332031 723.144531 422.160156 715.40625 C 428.988281 707.667969 428.25 695.859375 420.503906 689.03125 C 413.464844 682.816406 407.519531 675.300781 402.566406 667.050781 C 395.128906 654.691406 389.984375 640.714844 386.644531 628.0625 C 383.292969 615.410156 381.714844 604.105469 381.023438 597.171875 L 381.015625 597.105469 L 370.925781 598.152344 L 381.074219 598.152344 C 381.074219 597.910156 381.0625 597.5625 381.015625 597.105469 L 370.925781 598.152344 L 381.074219 598.152344 L 375.175781 598.152344 L 381 599.167969 C 381.015625 599.070312 381.074219 598.753906 381.074219 598.152344 L 375.175781 598.152344 L 381 599.167969 L 380.050781 598.996094 L 380.992188 599.199219 L 381 599.167969 L 380.050781 598.996094 L 380.992188 599.199219 C 380.992188 599.183594 381.179688 598.453125 381.632812 597.375 C 382.46875 595.304688 384.203125 592.003906 386.5625 588.234375 C 390.691406 581.574219 396.699219 573.351562 403.300781 565.03125 C 413.207031 552.523438 424.4375 539.675781 433.132812 530.042969 C 437.488281 525.214844 441.210938 521.183594 443.835938 518.378906 C 445.144531 516.976562 446.179688 515.878906 446.886719 515.132812 C 447.234375 514.761719 447.503906 514.484375 447.683594 514.296875 L 447.875 514.085938 L 447.933594 514.03125 C 455.070312 506.578125 454.820312 494.753906 447.367188 487.605469 C 439.902344 480.46875 428.078125 480.730469 420.941406 488.183594 " fill-opacity="1" fill-rule="nonzero"/><path fill="rgb(64.309692%, 45.098877%, 26.269531%)" d="M 474.023438 463.828125 C 474.023438 527.460938 428.945312 531.605469 373.34375 531.605469 C 317.746094 531.605469 272.664062 527.460938 272.664062 463.828125 C 272.664062 400.191406 317.746094 283.847656 373.34375 283.847656 C 428.945312 283.847656 474.023438 400.191406 474.023438 463.828125 " fill-opacity="1" fill-rule="nonzero"/><path fill="rgb(86.268616%, 65.489197%, 51.368713%)" d="M 393.441406 462.035156 C 393.441406 525.667969 374.15625 529.8125 350.390625 529.8125 C 326.621094 529.8125 307.34375 525.667969 307.34375 462.035156 C 307.34375 398.398438 364.050781 285.640625 387.820312 285.640625 C 411.582031 285.640625 393.441406 398.398438 393.441406 462.035156 " fill-opacity="1" fill-rule="nonzero"/><path fill="rgb(64.309692%, 45.098877%, 26.269531%)" d="M 451.015625 199.554688 C 453.164062 230.601562 460.660156 255.371094 484.414062 253.726562 C 508.183594 252.078125 532.0625 213.976562 529.902344 182.929688 C 527.761719 151.882812 506.585938 139.222656 490.148438 140.355469 C 466.382812 142.003906 448.875 168.507812 451.015625 199.554688 " fill-opacity="1" fill-rule="nonzero"/><path fill="rgb(92.549133%, 70.199585%, 55.288696%)" d="M 459.675781 198.953125 C 461.242188 221.597656 466.699219 239.675781 484.039062 238.476562 C 501.371094 237.277344 518.792969 209.472656 517.21875 186.828125 C 515.652344 164.175781 500.210938 154.9375 488.226562 155.765625 C 470.886719 156.964844 458.113281 176.308594 459.675781 198.953125 " fill-opacity="1" fill-rule="nonzero"/><path fill="rgb(64.309692%, 45.098877%, 26.269531%)" d="M 286.691406 226.074219 C 294.429688 256.214844 295.113281 282.085938 272.039062 288 C 248.964844 293.902344 214.308594 265.25 206.589844 235.101562 C 198.867188 204.957031 214.972656 186.277344 230.933594 182.191406 C 254.015625 176.277344 278.980469 195.921875 286.691406 226.074219 " fill-opacity="1" fill-rule="nonzero"/><path fill="rgb(92.549133%, 70.199585%, 55.288696%)" d="M 278.300781 228.226562 C 283.925781 250.214844 284.4375 269.085938 267.59375 273.402344 C 250.765625 277.714844 225.484375 256.796875 219.847656 234.804688 C 214.210938 212.816406 225.972656 199.191406 237.617188 196.214844 C 254.445312 191.898438 272.664062 206.230469 278.300781 228.226562 " fill-opacity="1" fill-rule="nonzero"/><path fill="rgb(92.549133%, 70.199585%, 55.288696%)" d="M 256.042969 226.699219 C 266.09375 288.980469 324.738281 331.324219 387.007812 321.277344 C 449.289062 311.226562 491.632812 252.589844 481.582031 190.308594 C 471.535156 128.027344 412.898438 85.675781 350.617188 95.734375 C 288.339844 105.789062 245.996094 164.429688 256.042969 226.699219 " fill-opacity="1" fill-rule="nonzero"/><path fill="rgb(64.309692%, 45.098877%, 26.269531%)" d="M 350.675781 95.789062 L 350.683594 95.8125 L 350.675781 95.789062 C 412.960938 85.742188 471.597656 128.085938 481.648438 190.367188 C 487.511719 226.726562 475.523438 261.820312 452.144531 286.757812 C 474.179688 251.121094 467.429688 170.664062 424.066406 151.785156 C 412.996094 146.964844 397.367188 146.851562 385.816406 150.242188 C 378.03125 152.523438 369.402344 157.097656 361.519531 162.863281 L 361.519531 162.886719 L 361.511719 162.878906 L 361.496094 162.886719 L 361.496094 162.878906 C 352.199219 159.871094 342.566406 158.25 334.460938 158.523438 C 322.433594 158.945312 307.640625 163.957031 298.640625 172.019531 C 263.410156 203.585938 282.304688 282.078125 314.429688 308.972656 C 284.398438 292.671875 261.972656 263.109375 256.109375 226.757812 C 246.0625 164.476562 288.40625 105.839844 350.675781 95.789062 " fill-opacity="1" fill-rule="nonzero"/><path fill="rgb(64.309692%, 45.098877%, 26.269531%)" d="M 589.78125 221.128906 C 586.34375 220.941406 583.933594 220.195312 581.988281 219.207031 C 580.535156 218.453125 579.3125 217.535156 578.183594 216.382812 C 576.511719 214.664062 575.0625 212.359375 574 209.457031 C 572.945312 206.570312 572.335938 203.117188 572.335938 199.480469 C 572.328125 194.316406 573.59375 188.863281 575.9375 184.289062 C 577.105469 181.996094 578.542969 179.910156 580.1875 178.085938 C 581.851562 176.261719 583.722656 174.695312 585.878906 173.390625 C 589.765625 171.046875 593.179688 169.546875 596.101562 168.636719 C 599.019531 167.730469 601.4375 167.40625 603.511719 167.40625 C 605.433594 167.414062 607.089844 167.679688 608.695312 168.183594 C 611.484375 169.058594 614.273438 170.699219 617.210938 173.503906 C 619.390625 175.597656 621.597656 178.328125 623.632812 181.621094 C 626.707031 186.554688 629.402344 192.726562 631.386719 199.449219 C 633.382812 206.171875 634.679688 213.449219 635.191406 220.527344 C 635.742188 228.242188 636.027344 235.855469 636.027344 243.359375 C 636.027344 274.632812 631.175781 303.945312 621.410156 330.222656 C 611.648438 356.507812 597.03125 379.785156 577.121094 399.414062 C 559.109375 417.136719 539.78125 429.769531 518.953125 438.125 C 498.121094 446.460938 475.703125 450.542969 451.386719 450.550781 C 443.96875 450.550781 436.375 450.160156 428.613281 449.398438 C 418.339844 448.394531 409.191406 455.894531 408.183594 466.171875 C 407.171875 476.4375 414.679688 485.585938 424.949219 486.59375 C 433.863281 487.46875 442.679688 487.921875 451.386719 487.921875 C 479.894531 487.929688 507.277344 483.074219 532.855469 472.820312 C 558.4375 462.585938 582.117188 446.964844 603.34375 426.039062 C 627.332031 402.421875 644.964844 374.214844 656.449219 343.230469 C 667.957031 312.234375 673.390625 278.484375 673.398438 243.359375 C 673.398438 234.933594 673.082031 226.417969 672.464844 217.84375 C 671.746094 207.949219 669.96875 197.988281 667.082031 188.386719 C 664.921875 181.183594 662.140625 174.175781 658.636719 167.574219 C 653.382812 157.695312 646.503906 148.589844 637.292969 141.582031 C 632.683594 138.09375 627.488281 135.171875 621.777344 133.152344 C 616.066406 131.125 609.871094 130.023438 603.511719 130.03125 C 597.40625 130.03125 591.175781 131.03125 585.003906 132.953125 C 578.816406 134.875 572.683594 137.703125 566.570312 141.394531 C 561.203125 144.628906 556.496094 148.582031 552.507812 152.984375 C 546.523438 159.585938 542.148438 167.167969 539.269531 175.078125 C 536.390625 182.992188 534.972656 191.257812 534.964844 199.480469 C 534.972656 206.335938 535.953125 213.171875 538.039062 219.757812 C 539.605469 224.699219 541.792969 229.5 544.679688 233.976562 C 548.996094 240.699219 554.957031 246.726562 562.386719 251.066406 C 569.796875 255.429688 578.574219 258 587.898438 258.453125 C 598.207031 258.972656 606.984375 251.039062 607.503906 240.730469 C 608.023438 230.421875 600.082031 221.648438 589.78125 221.128906 " fill-opacity="1" fill-rule="nonzero"/><path fill="rgb(35.289001%, 19.219971%, 7.839966%)" d="M 345.070312 230.78125 C 345.070312 234.664062 341.917969 237.820312 338.03125 237.820312 C 334.144531 237.820312 330.992188 234.664062 330.992188 230.78125 C 330.992188 226.886719 334.144531 223.742188 338.03125 223.742188 C 341.917969 223.742188 345.070312 226.886719 345.070312 230.78125 " fill-opacity="1" fill-rule="nonzero"/><path fill="rgb(35.289001%, 19.219971%, 7.839966%)" d="M 398.46875 223.742188 C 398.46875 227.625 395.304688 230.78125 391.421875 230.78125 C 387.535156 230.78125 384.390625 227.625 384.390625 223.742188 C 384.390625 219.847656 387.535156 216.699219 391.421875 216.699219 C 395.304688 216.699219 398.46875 219.847656 398.46875 223.742188 " fill-opacity="1" fill-rule="nonzero"/><path fill="rgb(91.758728%, 61.569214%, 41.569519%)" d="M 361.40625 258.097656 C 361.40625 258.097656 361.007812 257.753906 360.222656 257.34375 C 359.441406 256.914062 358.296875 256.359375 356.902344 255.753906 C 355.523438 255.175781 353.855469 254.429688 352.144531 254.074219 C 351.933594 254.015625 351.746094 254.015625 351.558594 253.992188 C 351.390625 254 351.390625 253.984375 351.089844 254.074219 C 350.804688 254.121094 350.722656 254.210938 350.585938 254.269531 L 350.148438 254.558594 C 349.554688 254.988281 349.109375 255.664062 348.816406 256.433594 C 348.492188 257.1875 348.378906 258.039062 348.402344 258.835938 C 348.394531 259.207031 348.484375 259.652344 348.550781 259.90625 L 348.792969 260.585938 L 349.003906 261.007812 C 349.652344 262.273438 351.113281 262.996094 352.484375 263.546875 C 353.855469 264.105469 355.113281 264.542969 355.929688 264.972656 C 356.34375 265.175781 356.660156 265.363281 356.863281 265.5 C 357.074219 265.632812 357.179688 265.703125 357.179688 265.703125 C 357.179688 265.703125 356.667969 265.65625 355.761719 265.574219 C 354.867188 265.5 353.609375 265.460938 352.019531 265.234375 C 351.226562 265.105469 350.351562 264.894531 349.417969 264.488281 C 348.492188 264.074219 347.535156 263.34375 346.855469 262.347656 C 346.683594 262.070312 346.539062 261.785156 346.386719 261.496094 L 346.109375 260.796875 C 345.882812 260.109375 345.792969 259.5625 345.753906 258.941406 C 345.703125 257.714844 345.964844 256.515625 346.464844 255.402344 C 346.96875 254.285156 347.835938 253.285156 348.957031 252.636719 C 349.238281 252.476562 349.53125 252.363281 349.855469 252.265625 C 350.195312 252.175781 350.578125 252.085938 350.78125 252.09375 C 350.976562 252.070312 351.460938 252.046875 351.769531 252.101562 C 352.0625 252.160156 352.363281 252.214844 352.605469 252.304688 C 354.585938 253.011719 356.101562 253.945312 357.421875 254.796875 C 358.730469 255.648438 359.742188 256.449219 360.421875 257.058594 C 361.105469 257.675781 361.398438 258.097656 361.40625 258.097656 " fill-opacity="1" fill-rule="nonzero"/><path fill="rgb(91.758728%, 61.569214%, 41.569519%)" d="M 372.117188 256.289062 C 372.117188 256.289062 372.363281 255.832031 372.960938 255.144531 C 373.5625 254.460938 374.480469 253.53125 375.671875 252.539062 C 376.878906 251.535156 378.273438 250.425781 380.148438 249.484375 C 380.382812 249.363281 380.675781 249.273438 380.957031 249.175781 C 381.257812 249.09375 381.746094 249.054688 381.933594 249.054688 C 382.144531 249.019531 382.523438 249.0625 382.871094 249.109375 C 383.214844 249.167969 383.511719 249.246094 383.8125 249.371094 C 385.003906 249.871094 385.988281 250.765625 386.621094 251.8125 C 387.253906 252.863281 387.65625 254.023438 387.746094 255.242188 C 387.789062 255.867188 387.761719 256.417969 387.617188 257.125 L 387.429688 257.84375 C 387.316406 258.152344 387.203125 258.460938 387.074219 258.753906 C 386.515625 259.832031 385.65625 260.667969 384.785156 261.195312 C 383.902344 261.707031 383.058594 262.023438 382.289062 262.242188 C 380.738281 262.664062 379.5 262.847656 378.613281 263.027344 C 377.730469 263.222656 377.226562 263.335938 377.226562 263.335938 C 377.226562 263.335938 377.324219 263.246094 377.511719 263.09375 C 377.707031 262.929688 377.992188 262.710938 378.378906 262.460938 C 379.140625 261.933594 380.335938 261.347656 381.632812 260.625 C 382.921875 259.914062 384.285156 259.019531 384.769531 257.683594 L 384.933594 257.246094 L 385.085938 256.53125 C 385.128906 256.28125 385.152344 255.824219 385.101562 255.453125 C 385.039062 254.664062 384.820312 253.832031 384.40625 253.117188 C 384.023438 252.394531 383.496094 251.777344 382.871094 251.421875 L 382.394531 251.195312 C 382.257812 251.152344 382.160156 251.066406 381.867188 251.054688 C 381.566406 251 381.566406 251.015625 381.386719 251.03125 C 381.210938 251.074219 381.023438 251.105469 380.820312 251.1875 C 379.175781 251.746094 377.601562 252.6875 376.296875 253.417969 C 374.988281 254.1875 373.917969 254.875 373.199219 255.402344 C 372.46875 255.90625 372.117188 256.289062 372.117188 256.289062 " fill-opacity="1" fill-rule="nonzero"/><path fill="rgb(35.289001%, 19.219971%, 7.839966%)" d="M 327.324219 276.992188 C 327.324219 276.992188 328.753906 277.871094 331.242188 279.402344 C 331.867188 279.769531 332.515625 280.269531 333.3125 280.644531 C 334.097656 281.023438 334.949219 281.429688 335.859375 281.867188 C 336.757812 282.304688 337.722656 282.769531 338.738281 283.253906 C 339.792969 283.644531 340.902344 284.058594 342.0625 284.488281 C 343.238281 284.886719 344.398438 285.460938 345.703125 285.761719 C 346.984375 286.09375 348.324219 286.441406 349.6875 286.800781 C 351.039062 287.222656 352.484375 287.40625 353.945312 287.644531 C 355.417969 287.835938 356.886719 288.203125 358.421875 288.339844 C 361.496094 288.574219 364.648438 288.898438 367.886719 288.761719 C 371.113281 288.875 374.363281 288.355469 377.617188 288.074219 C 380.828125 287.425781 384.089844 287.003906 387.148438 285.964844 C 390.277344 285.183594 393.179688 283.902344 396.042969 282.792969 C 397.4375 282.167969 398.738281 281.382812 400.066406 280.742188 C 400.722656 280.410156 401.378906 280.074219 402.019531 279.742188 C 402.652344 279.386719 403.222656 278.964844 403.8125 278.582031 C 404.988281 277.804688 406.132812 277.042969 407.246094 276.3125 C 408.324219 275.542969 409.238281 274.640625 410.195312 273.855469 C 411.121094 273.042969 412.0625 272.3125 412.863281 271.527344 C 413.636719 270.699219 414.363281 269.921875 415.054688 269.183594 C 415.742188 268.453125 416.390625 267.765625 416.984375 267.125 C 417.535156 266.441406 417.964844 265.769531 418.402344 265.183594 C 420.125 262.824219 421.105469 261.476562 421.105469 261.476562 C 421.105469 261.476562 420.277344 262.929688 418.824219 265.476562 C 418.445312 266.101562 418.0625 266.832031 417.578125 267.570312 C 417.035156 268.265625 416.441406 269.019531 415.808594 269.832031 C 415.175781 270.636719 414.503906 271.503906 413.789062 272.410156 C 413.042969 273.296875 412.101562 274.074219 411.210938 274.964844 C 410.269531 275.824219 409.367188 276.800781 408.296875 277.660156 C 407.203125 278.476562 406.066406 279.328125 404.898438 280.199219 C 404.308594 280.628906 403.734375 281.097656 403.109375 281.503906 C 402.460938 281.875 401.800781 282.257812 401.144531 282.648438 C 399.816406 283.410156 398.460938 284.210938 397.035156 284.917969 C 394.105469 286.140625 391.128906 287.617188 387.875 288.429688 C 384.707031 289.539062 381.332031 290.019531 378 290.707031 C 374.617188 290.984375 371.242188 291.480469 367.894531 291.332031 C 364.542969 291.464844 361.285156 290.976562 358.121094 290.660156 C 356.546875 290.464844 355.023438 290.085938 353.53125 289.777344 C 352.03125 289.460938 350.5625 289.175781 349.191406 288.671875 C 347.8125 288.234375 346.464844 287.796875 345.160156 287.382812 C 343.855469 286.992188 342.679688 286.34375 341.511719 285.875 C 340.351562 285.363281 339.246094 284.878906 338.195312 284.40625 C 337.195312 283.816406 336.253906 283.253906 335.363281 282.726562 C 334.488281 282.199219 333.660156 281.707031 332.898438 281.25 C 332.136719 280.796875 331.542969 280.246094 330.941406 279.824219 C 328.648438 278.023438 327.324219 276.992188 327.324219 276.992188 " fill-opacity="1" fill-rule="nonzero"/></svg>