<svg xmlns="http://www.w3.org/2000/svg" xmlns:xlink="http://www.w3.org/1999/xlink" width="1080" zoomAndPan="magnify" viewBox="0 0 810 809.999993" height="1080" preserveAspectRatio="xMidYMid meet" version="1.0"><rect x="-81" width="972" fill="rgb(0%, 29.019165%, 67.83905%)" y="-80.999999" height="971.999992" fill-opacity="1"/><rect x="-81" width="972" fill="rgb(100%, 100%, 100%)" y="-80.999999" height="971.999992" fill-opacity="1"/><rect x="-81" width="972" fill="rgb(0%, 29.019165%, 67.83905%)" y="-80.999999" height="971.999992" fill-opacity="1"/><path fill="rgb(37.649536%, 71.369934%, 77.648926%)" d="M 225.726562 482.234375 C 225.726562 482.234375 223.679688 542.300781 203.195312 541.375 C 182.714844 540.4375 127.414062 523.808594 130.488281 506.136719 C 133.5625 488.472656 197.050781 444.730469 197.050781 444.730469 Z M 225.726562 482.234375 " fill-opacity="1" fill-rule="nonzero"/><path fill="rgb(37.649536%, 71.369934%, 77.648926%)" d="M 502.625 467.515625 C 502.625 467.515625 504.671875 527.582031 525.15625 526.652344 C 545.636719 525.714844 600.9375 509.085938 597.863281 491.414062 C 594.785156 473.753906 531.296875 430.007812 531.296875 430.007812 Z M 502.625 467.515625 " fill-opacity="1" fill-rule="nonzero"/><path fill="rgb(37.649536%, 71.369934%, 77.648926%)" d="M 546.898438 383.507812 C 546.898438 383.507812 566.671875 369.800781 569.515625 355.078125 C 572.367188 340.355469 601.148438 278.488281 631.003906 273.121094 C 660.859375 267.75 687.683594 268.519531 708.601562 296.804688 C 717.84375 309.300781 728.246094 361.203125 709.046875 373.210938 C 676.28125 393.695312 641.648438 357.980469 641.648438 357.980469 C 641.648438 357.980469 642.519531 366.402344 659.101562 376.523438 C 675.6875 386.644531 695.664062 380.652344 703.035156 382.578125 C 708.929688 384.117188 658.792969 414.476562 611.242188 424.691406 C 563.691406 434.90625 535.511719 428.628906 535.511719 428.628906 Z M 546.898438 383.507812 " fill-opacity="1" fill-rule="nonzero"/><path fill="rgb(67.449951%, 78.42865%, 21.569824%)" d="M 103.617188 379.601562 C 103.617188 379.601562 103.617188 379.601562 130.460938 371.125 C 157.300781 362.648438 253.367188 280.714844 328.242188 283.539062 C 403.117188 286.363281 435.613281 300.492188 448.328125 306.144531 C 461.042969 311.792969 548.628906 365.476562 561.34375 362.652344 C 574.058594 359.828125 565.582031 361.238281 574.058594 359.828125 C 582.535156 358.414062 556.300781 420.539062 481.425781 460.09375 C 406.550781 499.648438 392.421875 518.011719 261.035156 495.410156 C 129.652344 472.808594 103.617188 379.601562 103.617188 379.601562 Z M 103.617188 379.601562 " fill-opacity="1" fill-rule="nonzero"/><path fill="rgb(34.899902%, 58.81958%, 25.489807%)" d="M 345.8125 481.507812 L 338.835938 394.996094 L 273.753906 332.746094 L 273.753906 291.984375 L 279.40625 291.984375 L 279.40625 330.328125 L 344.292969 392.394531 L 351.445312 481.054688 Z M 345.8125 481.507812 " fill-opacity="1" fill-rule="nonzero"/><path fill="rgb(34.899902%, 58.81958%, 25.489807%)" d="M 124.082031 403.113281 L 120.957031 398.402344 L 169.773438 366.0625 L 228.964844 366.0625 L 274.8125 329.332031 L 278.34375 333.742188 L 230.953125 371.710938 L 171.472656 371.710938 Z M 124.082031 403.113281 " fill-opacity="1" fill-rule="nonzero"/><path fill="rgb(34.899902%, 58.81958%, 25.489807%)" d="M 343.464844 395.785156 L 339.664062 391.609375 L 403.53125 333.445312 L 453.746094 370.132812 L 514.652344 353.84375 L 552.523438 387.339844 L 548.78125 391.574219 L 513.1875 360.085938 L 452.597656 376.292969 L 403.921875 340.730469 Z M 343.464844 395.785156 " fill-opacity="1" fill-rule="nonzero"/><path fill="rgb(34.899902%, 58.81958%, 25.489807%)" d="M 215.796875 447.992188 L 210.269531 446.800781 L 227.199219 368.304688 L 232.726562 369.496094 Z M 215.796875 447.992188 " fill-opacity="1" fill-rule="nonzero"/><path fill="rgb(34.899902%, 58.81958%, 25.489807%)" d="M 467.410156 437.140625 L 450.460938 373.957031 L 455.921875 372.492188 L 472.871094 435.675781 Z M 467.410156 437.140625 " fill-opacity="1" fill-rule="nonzero"/><path fill="rgb(34.899902%, 58.81958%, 25.489807%)" d="M 167.925781 369.746094 L 162.277344 352.175781 L 167.65625 350.441406 L 173.308594 368.015625 Z M 167.925781 369.746094 " fill-opacity="1" fill-rule="nonzero"/><path fill="rgb(34.899902%, 58.81958%, 25.489807%)" d="M 406.519531 337.261719 L 400.882812 336.90625 L 403.710938 291.804688 L 409.347656 292.15625 Z M 406.519531 337.261719 " fill-opacity="1" fill-rule="nonzero"/><path fill="rgb(34.899902%, 58.81958%, 25.489807%)" d="M 511.09375 342.511719 L 516.746094 342.511719 L 516.746094 356.964844 L 511.09375 356.964844 Z M 511.09375 342.511719 " fill-opacity="1" fill-rule="nonzero"/><path fill="rgb(34.899902%, 58.81958%, 25.489807%)" d="M 104.226562 373.210938 C 120.570312 365.550781 222.894531 501.058594 365.582031 474.21875 C 508.265625 447.378906 554.886719 354.757812 574.667969 360.101562 C 594.445312 365.441406 516.039062 525.117188 328.144531 518.054688 C 140.25 510.992188 81.621094 383.808594 104.226562 373.210938 Z M 104.226562 373.210938 " fill-opacity="1" fill-rule="nonzero"/><path fill="rgb(100%, 94.898987%, 92.158508%)" d="M 693.15625 317.769531 C 691.382812 327.074219 682.386719 333.171875 673.0625 331.40625 C 663.753906 329.632812 657.640625 320.65625 659.410156 311.339844 C 661.175781 302.035156 670.167969 295.90625 679.488281 297.667969 C 688.8125 299.433594 694.925781 308.453125 693.15625 317.769531 Z M 693.15625 317.769531 " fill-opacity="1" fill-rule="nonzero"/><path fill="rgb(23.919678%, 8.239746%, 6.269836%)" d="M 693.226562 312.707031 C 691.910156 319.71875 685.148438 324.296875 678.140625 322.953125 C 671.132812 321.636719 666.523438 314.882812 667.851562 307.886719 C 669.1875 300.855469 675.953125 296.253906 682.964844 297.597656 C 689.972656 298.9375 694.574219 305.710938 693.226562 312.707031 Z M 693.226562 312.707031 " fill-opacity="1" fill-rule="nonzero"/></svg>