<svg xmlns="http://www.w3.org/2000/svg" xmlns:xlink="http://www.w3.org/1999/xlink" width="1080" zoomAndPan="magnify" viewBox="0 0 810 809.999993" height="1080" preserveAspectRatio="xMidYMid meet" version="1.0"><defs><clipPath id="id1"><path d="M 311 419 L 374 419 L 374 591.085938 L 311 591.085938 Z M 311 419 " clip-rule="nonzero"/></clipPath><clipPath id="id2"><path d="M 510 419 L 572 419 L 572 591.085938 L 510 591.085938 Z M 510 419 " clip-rule="nonzero"/></clipPath><clipPath id="id3"><path d="M 103 219.085938 L 168 219.085938 L 168 302 L 103 302 Z M 103 219.085938 " clip-rule="nonzero"/></clipPath><clipPath id="id4"><path d="M 102 219.085938 L 169 219.085938 L 169 303 L 102 303 Z M 102 219.085938 " clip-rule="nonzero"/></clipPath><clipPath id="id5"><path d="M 293 219.085938 L 357 219.085938 L 357 302 L 293 302 Z M 293 219.085938 " clip-rule="nonzero"/></clipPath><clipPath id="id6"><path d="M 292 219.085938 L 358 219.085938 L 358 303 L 292 303 Z M 292 219.085938 " clip-rule="nonzero"/></clipPath></defs><rect x="-81" width="972" fill="rgb(49.409485%, 85.099792%, 34.118652%)" y="-80.999999" height="971.999992" fill-opacity="1"/><rect x="-81" width="972" fill="rgb(100%, 100%, 100%)" y="-80.999999" height="971.999992" fill-opacity="1"/><rect x="-81" width="972" fill="rgb(49.409485%, 85.099792%, 34.118652%)" y="-80.999999" height="971.999992" fill-opacity="1"/><path fill="rgb(96.469116%, 96.859741%, 97.24884%)" d="M 603.722656 380.445312 C 611.722656 430.289062 718.390625 475.636719 708.976562 469.910156 C 664.394531 442.800781 603.722656 344.703125 603.722656 344.703125 L 603.722656 380.445312 " fill-opacity="1" fill-rule="nonzero"/><path fill="rgb(11.759949%, 8.628845%, 7.449341%)" d="M 603.59375 380.457031 L 603.546875 371.507812 L 603.425781 362.574219 L 603.015625 344.703125 L 602.960938 342.242188 L 604.332031 344.328125 C 607.851562 349.691406 611.554688 354.957031 615.164062 360.269531 L 626.183594 376.074219 C 629.871094 381.332031 633.617188 386.550781 637.414062 391.730469 L 643.167969 399.445312 C 645.066406 402.035156 647.019531 404.582031 648.953125 407.144531 C 652.859375 412.238281 656.828125 417.285156 660.886719 422.246094 C 664.992188 427.183594 669.070312 432.140625 673.355469 436.910156 C 677.648438 441.667969 681.941406 446.4375 686.523438 450.921875 C 691.09375 455.417969 695.8125 459.777344 700.859375 463.726562 L 704.71875 466.5625 C 706.039062 467.472656 707.398438 468.335938 708.738281 469.230469 C 709.082031 469.46875 709.371094 469.597656 709.796875 469.957031 L 709.921875 470.105469 C 709.996094 469.980469 710.054688 470.675781 709.796875 470.75 C 709.566406 470.875 709.5 470.832031 709.46875 470.839844 L 709.332031 470.824219 C 709.195312 470.800781 709.09375 470.773438 708.988281 470.742188 C 708.78125 470.6875 708.582031 470.617188 708.386719 470.550781 C 707.613281 470.277344 706.867188 469.96875 706.117188 469.660156 L 701.683594 467.730469 C 695.792969 465.109375 690.046875 462.191406 684.3125 459.253906 C 678.585938 456.308594 672.925781 453.203125 667.367188 449.941406 C 664.585938 448.300781 661.816406 446.640625 659.09375 444.90625 C 656.378906 443.164062 653.699219 441.363281 651.042969 439.523438 C 645.722656 435.855469 640.578125 431.929688 635.664062 427.71875 C 630.75 423.503906 626.101562 418.984375 621.808594 414.136719 C 617.519531 409.289062 613.574219 404.121094 610.375 398.496094 C 607.160156 392.910156 604.613281 386.855469 603.59375 380.46875 Z M 603.863281 380.433594 C 604.386719 383.597656 605.296875 386.683594 606.488281 389.652344 C 607.707031 392.621094 609.203125 395.464844 610.894531 398.183594 C 614.324219 403.601562 618.445312 408.539062 622.902344 413.117188 C 627.371094 417.699219 632.179688 421.921875 637.128906 425.96875 C 642.078125 430.011719 647.191406 433.867188 652.398438 437.601562 C 655.003906 439.453125 657.648438 441.261719 660.320312 443.03125 C 662.976562 444.820312 665.65625 446.585938 668.359375 448.300781 C 673.777344 451.746094 679.285156 455.039062 684.890625 458.183594 C 690.488281 461.328125 696.226562 464.226562 702.039062 466.949219 C 703.492188 467.628906 704.957031 468.289062 706.441406 468.882812 C 707.179688 469.183594 707.929688 469.480469 708.667969 469.734375 C 708.851562 469.796875 709.042969 469.859375 709.21875 469.902344 L 709.457031 469.957031 L 709.476562 469.960938 C 709.496094 469.972656 709.476562 469.933594 709.292969 470.027344 C 709.089844 470.082031 709.132812 470.707031 709.167969 470.550781 L 709.191406 470.585938 C 709 470.433594 708.570312 470.1875 708.253906 469.972656 C 706.902344 469.097656 705.539062 468.253906 704.199219 467.347656 L 700.257812 464.511719 C 695.097656 460.628906 690.191406 456.425781 685.460938 452.035156 C 680.710938 447.660156 676.179688 443.066406 671.773438 438.34375 C 662.960938 428.917969 654.738281 418.964844 646.769531 408.84375 C 642.785156 403.769531 638.890625 398.628906 635.117188 393.40625 C 631.335938 388.195312 627.601562 382.9375 623.933594 377.648438 C 620.230469 372.371094 616.746094 366.953125 613.246094 361.539062 C 609.738281 356.136719 606.421875 350.617188 603.121094 345.070312 L 604.433594 344.703125 L 604.027344 362.574219 L 603.910156 371.507812 L 603.863281 380.433594 " fill-opacity="1" fill-rule="nonzero"/><path fill="rgb(76.469421%, 76.469421%, 78.42865%)" d="M 271.914062 461.273438 C 271.914062 461.273438 270.726562 543.191406 261.589844 575.851562 L 313.257812 575.851562 C 313.257812 575.851562 321.171875 465.613281 284.65625 420.460938 " fill-opacity="1" fill-rule="nonzero"/><path fill="rgb(11.759949%, 8.628845%, 7.449341%)" d="M 271.914062 461.273438 C 272.058594 470.886719 271.921875 480.492188 271.726562 490.105469 C 271.617188 494.910156 271.492188 499.710938 271.3125 504.515625 L 270.988281 511.722656 C 270.878906 514.121094 270.761719 516.523438 270.613281 518.921875 L 270.183594 526.128906 L 269.640625 533.328125 C 269.46875 535.722656 269.207031 538.121094 268.996094 540.523438 C 268.789062 542.921875 268.550781 545.316406 268.265625 547.710938 C 267.972656 550.105469 267.757812 552.503906 267.40625 554.894531 L 266.359375 562.070312 L 265.054688 569.226562 C 264.53125 571.605469 263.949219 573.980469 263.394531 576.355469 L 261.589844 573.980469 L 287.425781 573.867188 L 313.257812 573.820312 L 311.234375 575.707031 C 311.667969 569.109375 311.871094 562.402344 311.960938 555.738281 C 312.011719 552.402344 312.019531 549.070312 311.988281 545.734375 C 311.960938 542.390625 311.917969 539.058594 311.835938 535.722656 C 311.769531 532.386719 311.636719 529.050781 311.488281 525.71875 C 311.347656 522.382812 311.136719 519.054688 310.917969 515.722656 C 310.667969 512.394531 310.417969 509.070312 310.101562 505.753906 C 309.820312 502.425781 309.429688 499.113281 309.058594 495.804688 C 308.636719 492.496094 308.21875 489.1875 307.691406 485.894531 C 307.453125 484.242188 307.191406 482.601562 306.886719 480.957031 C 306.59375 479.320312 306.34375 477.667969 306.023438 476.035156 C 305.386719 472.761719 304.730469 469.496094 303.949219 466.257812 C 303.597656 464.625 303.183594 463.011719 302.746094 461.40625 C 302.308594 459.796875 301.925781 458.171875 301.433594 456.585938 L 300.015625 451.785156 L 298.402344 447.058594 C 297.890625 445.472656 297.210938 443.949219 296.625 442.382812 C 296.050781 440.816406 295.371094 439.296875 294.667969 437.785156 C 293.984375 436.265625 293.320312 434.730469 292.511719 433.269531 C 291.714844 431.804688 291.03125 430.277344 290.136719 428.863281 C 289.265625 427.441406 288.453125 425.976562 287.539062 424.578125 L 284.65625 420.460938 L 287.785156 424.402344 C 288.789062 425.75 289.691406 427.167969 290.65625 428.546875 C 291.632812 429.925781 292.375 431.4375 293.25 432.871094 C 294.132812 434.3125 294.871094 435.824219 295.632812 437.320312 C 296.40625 438.820312 297.15625 440.328125 297.8125 441.875 C 298.472656 443.425781 299.230469 444.9375 299.816406 446.515625 L 301.660156 451.226562 L 303.308594 456.003906 C 303.890625 457.585938 304.3125 459.21875 304.8125 460.828125 C 305.308594 462.441406 305.777344 464.054688 306.191406 465.691406 C 307.089844 468.9375 307.851562 472.21875 308.601562 475.507812 C 309.304688 478.800781 310.019531 482.09375 310.566406 485.417969 C 311.179688 488.726562 311.671875 492.058594 312.179688 495.386719 C 312.632812 498.726562 313.101562 502.054688 313.460938 505.402344 C 313.871094 508.75 314.144531 512.101562 314.453125 515.449219 C 314.722656 518.808594 314.980469 522.160156 315.167969 525.519531 C 315.371094 528.878906 315.542969 532.246094 315.664062 535.601562 C 315.929688 542.328125 315.984375 549.054688 315.9375 555.785156 C 315.871094 562.523438 315.699219 569.222656 315.289062 576 L 315.167969 577.886719 L 313.257812 577.886719 L 287.425781 577.832031 L 261.589844 577.726562 L 259.203125 577.714844 L 259.792969 575.34375 L 261.496094 568.472656 L 262.871094 561.472656 L 264.003906 554.410156 C 264.40625 552.058594 264.675781 549.675781 265.015625 547.3125 C 265.359375 544.949219 265.644531 542.570312 265.90625 540.195312 C 266.175781 537.8125 266.484375 535.441406 266.710938 533.054688 C 267.1875 528.285156 267.671875 523.519531 268.082031 518.738281 C 268.308594 516.355469 268.503906 513.96875 268.6875 511.574219 L 269.242188 504.398438 C 269.609375 499.613281 269.960938 494.832031 270.277344 490.039062 C 270.59375 485.25 270.886719 480.457031 271.148438 475.660156 L 271.914062 461.273438 " fill-opacity="1" fill-rule="nonzero"/><path fill="rgb(11.759949%, 8.628845%, 7.449341%)" d="M 265.105469 558.746094 C 265.105469 560.28125 264.621094 561.183594 264.167969 562.570312 C 263.789062 563.75 263.429688 568.894531 263.125 570.414062 C 262.859375 571.722656 261.3125 575.332031 261.859375 575.550781 C 262.449219 575.796875 263.28125 575.714844 263.9375 575.742188 C 265.484375 575.820312 266.96875 575.605469 268.535156 575.539062 C 271.015625 575.433594 273.515625 575.308594 276.03125 575.308594 C 278.160156 575.308594 280.28125 575.558594 282.429688 575.558594 C 285.933594 575.558594 289.253906 575.683594 292.734375 575.640625 C 295.851562 575.601562 298.824219 575.726562 301.882812 575.890625 C 303.433594 575.976562 305.003906 575.976562 306.570312 575.976562 C 308.476562 575.976562 310.320312 575.527344 312.203125 575.726562 C 312.453125 575.75 312.929688 575.921875 313.144531 575.75 C 313.597656 575.378906 313.152344 575.308594 313.121094 574.980469 C 313.039062 574.1875 314.039062 562.972656 314.039062 562.320312 C 314.039062 561.6875 313.9375 557.246094 313.632812 555.160156 C 308.601562 555.15625 303.511719 555.714844 298.472656 555.976562 C 292.828125 556.273438 287.171875 556.660156 281.515625 556.660156 C 278.007812 556.660156 274.53125 557.101562 271.027344 557.246094 C 269.992188 557.292969 268.957031 557.285156 267.914062 557.328125 C 267.207031 557.359375 265.753906 557.238281 265.167969 557.644531 L 264.867188 557.675781 C 264.792969 558 264.902344 558.246094 265.1875 558.328125 " fill-opacity="1" fill-rule="nonzero"/><path fill="rgb(76.469421%, 76.469421%, 78.42865%)" d="M 464.929688 461.214844 C 464.929688 461.214844 463.738281 543.125 454.605469 575.789062 L 506.273438 575.789062 C 506.273438 575.789062 514.1875 465.554688 477.671875 420.402344 " fill-opacity="1" fill-rule="nonzero"/><path fill="rgb(11.759949%, 8.628845%, 7.449341%)" d="M 464.929688 461.214844 C 465.074219 470.824219 464.9375 480.433594 464.742188 490.039062 C 464.632812 494.851562 464.507812 499.648438 464.328125 504.457031 L 464 511.664062 C 463.894531 514.0625 463.777344 516.460938 463.625 518.863281 L 463.199219 526.0625 L 462.648438 533.261719 C 462.484375 535.664062 462.222656 538.058594 462.011719 540.464844 C 461.804688 542.855469 461.566406 545.257812 461.28125 547.652344 C 460.988281 550.046875 460.773438 552.445312 460.421875 554.832031 L 459.375 562.007812 L 458.070312 569.167969 C 457.546875 571.539062 456.964844 573.921875 456.410156 576.296875 L 454.605469 573.921875 L 480.441406 573.808594 L 506.273438 573.753906 L 504.242188 575.648438 C 504.683594 569.042969 504.886719 562.34375 504.976562 555.679688 C 505.027344 552.34375 505.027344 549.003906 505.003906 545.667969 C 504.976562 542.332031 504.933594 538.996094 504.851562 535.65625 C 504.777344 532.320312 504.652344 528.988281 504.503906 525.65625 C 504.355469 522.324219 504.152344 518.992188 503.933594 515.664062 C 503.683594 512.335938 503.425781 509.011719 503.109375 505.6875 C 502.835938 502.367188 502.445312 499.054688 502.074219 495.742188 C 501.652344 492.433594 501.234375 489.128906 500.707031 485.832031 C 500.46875 484.183594 500.207031 482.535156 499.902344 480.898438 C 499.609375 479.257812 499.359375 477.609375 499.039062 475.976562 C 498.402344 472.703125 497.746094 469.433594 496.964844 466.191406 C 496.609375 464.566406 496.199219 462.953125 495.757812 461.34375 C 495.324219 459.738281 494.941406 458.109375 494.449219 456.519531 L 493.023438 451.726562 L 491.417969 447 C 490.90625 445.410156 490.226562 443.882812 489.640625 442.324219 C 489.0625 440.757812 488.386719 439.234375 487.683594 437.726562 C 487 436.203125 486.335938 434.671875 485.527344 433.210938 C 484.730469 431.746094 484.039062 430.214844 483.152344 428.804688 C 482.28125 427.382812 481.464844 425.917969 480.554688 424.515625 L 477.671875 420.402344 L 480.800781 424.34375 C 481.800781 425.691406 482.703125 427.105469 483.667969 428.488281 C 484.640625 429.863281 485.390625 431.371094 486.265625 432.8125 C 487.148438 434.246094 487.886719 435.761719 488.640625 437.261719 C 489.414062 438.761719 490.171875 440.269531 490.828125 441.816406 C 491.488281 443.367188 492.246094 444.878906 492.828125 446.457031 L 494.671875 451.167969 L 496.324219 455.945312 C 496.90625 457.527344 497.328125 459.152344 497.828125 460.765625 C 498.324219 462.382812 498.792969 463.996094 499.203125 465.632812 C 500.097656 468.878906 500.867188 472.160156 501.617188 475.441406 C 502.320312 478.734375 503.035156 482.035156 503.582031 485.355469 C 504.195312 488.667969 504.6875 491.996094 505.195312 495.328125 C 505.640625 498.660156 506.117188 501.996094 506.476562 505.34375 C 506.886719 508.683594 507.160156 512.042969 507.46875 515.390625 C 507.738281 518.742188 507.992188 522.101562 508.183594 525.460938 C 508.382812 528.820312 508.558594 532.179688 508.679688 535.542969 C 508.945312 542.265625 508.996094 548.996094 508.945312 555.722656 C 508.886719 562.460938 508.714844 569.164062 508.304688 575.933594 L 508.183594 577.828125 L 506.273438 577.820312 L 480.441406 577.773438 L 454.605469 577.660156 L 452.21875 577.648438 L 452.808594 575.285156 L 454.511719 568.410156 L 455.886719 561.414062 L 457.015625 554.351562 C 457.421875 552 457.691406 549.617188 458.03125 547.253906 C 458.367188 544.886719 458.660156 542.511719 458.921875 540.128906 C 459.183594 537.746094 459.5 535.378906 459.726562 532.988281 C 460.203125 528.222656 460.683594 523.453125 461.097656 518.679688 C 461.324219 516.289062 461.519531 513.902344 461.703125 511.511719 L 462.257812 504.335938 C 462.621094 499.554688 462.976562 494.765625 463.292969 489.980469 C 463.609375 485.191406 463.902344 480.394531 464.164062 475.601562 L 464.929688 461.214844 " fill-opacity="1" fill-rule="nonzero"/><path fill="rgb(11.759949%, 8.628845%, 7.449341%)" d="M 458.117188 558.6875 C 458.117188 560.222656 457.636719 561.117188 457.183594 562.511719 C 456.796875 563.6875 456.445312 568.835938 456.136719 570.359375 C 455.875 571.664062 454.324219 575.273438 454.875 575.492188 C 455.464844 575.730469 456.289062 575.652344 456.953125 575.683594 C 458.5 575.753906 459.984375 575.546875 461.546875 575.476562 C 464.03125 575.367188 466.53125 575.25 469.039062 575.25 C 471.175781 575.25 473.296875 575.5 475.445312 575.5 C 478.949219 575.5 482.269531 575.625 485.746094 575.582031 C 488.867188 575.539062 491.839844 575.664062 494.898438 575.832031 C 496.441406 575.914062 498.015625 575.910156 499.582031 575.910156 C 501.492188 575.914062 503.335938 575.46875 505.21875 575.660156 C 505.46875 575.6875 505.945312 575.863281 506.160156 575.683594 C 506.613281 575.320312 506.164062 575.25 506.128906 574.914062 C 506.050781 574.128906 507.054688 562.910156 507.054688 562.261719 C 507.054688 561.628906 506.945312 557.1875 506.648438 555.101562 C 501.617188 555.09375 496.527344 555.65625 491.488281 555.917969 C 485.84375 556.214844 480.1875 556.601562 474.53125 556.601562 C 471.023438 556.601562 467.542969 557.042969 464.042969 557.1875 C 463.007812 557.226562 461.972656 557.226562 460.929688 557.269531 C 460.222656 557.300781 458.761719 557.179688 458.183594 557.585938 L 457.878906 557.613281 C 457.808594 557.941406 457.910156 558.1875 458.203125 558.265625 " fill-opacity="1" fill-rule="nonzero"/><path fill="rgb(96.469116%, 96.859741%, 97.24884%)" d="M 612.488281 374.984375 C 612.488281 454.042969 517.105469 518.125 399.441406 518.125 C 281.777344 518.125 186.390625 454.042969 186.390625 374.984375 C 186.390625 295.933594 281.777344 231.847656 399.441406 231.847656 C 517.105469 231.847656 612.488281 295.933594 612.488281 374.984375 " fill-opacity="1" fill-rule="nonzero"/><path fill="rgb(11.759949%, 8.628845%, 7.449341%)" d="M 612.285156 374.984375 C 612.285156 374.984375 612.238281 373.882812 612.148438 371.75 C 612.109375 370.683594 612.046875 369.363281 611.984375 367.792969 C 611.804688 366.226562 611.597656 364.421875 611.359375 362.367188 C 610.234375 354.238281 607.667969 342.183594 600.484375 328.507812 C 596.949219 321.683594 592.34375 314.453125 586.4375 307.308594 C 580.527344 300.167969 573.414062 293.039062 565.140625 286.253906 C 548.609375 272.652344 527.320312 260.625 502.628906 251.570312 C 490.285156 247.03125 477.078125 243.25 463.1875 240.398438 C 449.304688 237.550781 434.746094 235.496094 419.710938 234.585938 C 389.628906 232.714844 357.582031 235.050781 325.65625 242.859375 C 321.6875 243.929688 317.664062 244.847656 313.722656 246.109375 C 311.738281 246.707031 309.75 247.300781 307.761719 247.894531 C 305.796875 248.570312 303.824219 249.242188 301.855469 249.910156 C 297.878906 251.183594 294.023438 252.820312 290.089844 254.28125 C 288.160156 255.101562 286.222656 255.925781 284.28125 256.746094 L 281.378906 257.984375 L 278.511719 259.332031 C 276.609375 260.234375 274.695312 261.148438 272.785156 262.050781 C 270.910156 263.035156 269.027344 264.019531 267.152344 265.007812 C 265.253906 265.960938 263.417969 267.03125 261.578125 268.101562 C 259.75 269.1875 257.863281 270.1875 256.070312 271.347656 C 248.789062 275.796875 241.832031 280.828125 235.132812 286.21875 C 228.441406 291.628906 222.25 297.679688 216.519531 304.152344 C 210.816406 310.644531 205.640625 317.660156 201.402344 325.238281 C 192.785156 340.300781 187.664062 357.46875 187.511719 374.984375 C 187.488281 383.714844 188.636719 392.445312 190.90625 400.886719 C 193.167969 409.324219 196.527344 417.460938 200.734375 425.105469 C 204.945312 432.769531 210.101562 439.871094 215.792969 446.449219 C 221.503906 453.011719 227.699219 459.152344 234.390625 464.648438 C 247.746094 475.691406 262.613281 484.582031 278 491.730469 L 280.882812 493.082031 L 283.800781 494.332031 C 285.753906 495.152344 287.695312 495.980469 289.636719 496.804688 C 291.605469 497.554688 293.578125 498.296875 295.542969 499.050781 C 297.496094 499.816406 299.484375 500.496094 301.472656 501.144531 C 303.457031 501.804688 305.4375 502.472656 307.421875 503.132812 C 309.421875 503.722656 311.417969 504.3125 313.414062 504.898438 C 317.378906 506.140625 321.425781 507.042969 325.40625 508.09375 C 357.480469 515.820312 389.679688 517.59375 419.730469 515.71875 C 434.789062 514.757812 449.335938 512.632812 463.226562 509.757812 C 477.121094 506.867188 490.328125 503.0625 502.664062 498.496094 C 514.984375 493.898438 526.511719 488.691406 536.972656 482.820312 C 547.449219 476.964844 556.890625 470.527344 565.167969 463.738281 C 573.445312 456.957031 580.550781 449.828125 586.460938 442.6875 C 592.371094 435.527344 596.976562 428.304688 600.53125 421.484375 C 607.761719 407.824219 610.285156 395.738281 611.394531 387.609375 C 611.621094 385.5625 611.828125 383.75 612 382.183594 C 612.066406 380.613281 612.113281 379.285156 612.160156 378.21875 C 612.246094 376.082031 612.285156 374.980469 612.285156 374.980469 Z M 612.691406 374.992188 C 612.691406 374.992188 612.65625 376.09375 612.578125 378.230469 C 612.535156 379.304688 612.488281 380.632812 612.4375 382.203125 C 612.261719 383.777344 612.066406 385.597656 611.839844 387.664062 C 610.757812 395.847656 608.238281 407.964844 601.171875 421.808594 C 597.652344 428.703125 593.132812 436.046875 587.347656 443.402344 C 581.539062 450.71875 574.515625 458.070312 566.300781 465.097656 C 549.871094 479.144531 528.6875 491.980469 503.785156 501.480469 C 491.339844 506.230469 478.007812 510.214844 463.972656 513.265625 C 449.9375 516.34375 435.171875 518.25 419.949219 519.195312 C 416.140625 519.351562 412.3125 519.636719 408.445312 519.691406 C 406.511719 519.714844 404.574219 519.742188 402.636719 519.769531 L 399.710938 519.816406 L 396.769531 519.761719 C 392.871094 519.65625 388.976562 519.65625 385.003906 519.363281 C 381.042969 519.125 377.054688 518.929688 373.078125 518.5 C 357.140625 517.035156 340.957031 514.40625 324.875 510.226562 C 320.878906 509.09375 316.820312 508.125 312.847656 506.804688 C 310.847656 506.175781 308.84375 505.550781 306.839844 504.921875 C 304.863281 504.222656 302.871094 503.519531 300.890625 502.820312 C 296.882812 501.492188 293.007812 499.78125 289.035156 498.285156 C 287.085938 497.445312 285.132812 496.605469 283.179688 495.761719 L 280.246094 494.488281 L 277.359375 493.105469 C 275.433594 492.175781 273.511719 491.246094 271.582031 490.316406 C 269.6875 489.3125 267.796875 488.300781 265.894531 487.292969 C 263.984375 486.316406 262.132812 485.21875 260.273438 484.117188 C 258.433594 483.011719 256.527344 481.988281 254.726562 480.800781 C 247.371094 476.25 240.375 471.09375 233.585938 465.621094 C 226.816406 460.117188 220.546875 453.960938 214.742188 447.363281 C 208.957031 440.75 203.707031 433.59375 199.40625 425.855469 C 195.046875 418.15625 191.519531 409.945312 189.101562 401.378906 C 186.671875 392.820312 185.371094 383.917969 185.277344 374.984375 L 185.472656 368.328125 C 185.59375 366.113281 185.910156 363.867188 186.121094 361.632812 C 186.207031 360.507812 186.398438 359.40625 186.609375 358.308594 L 187.207031 355.011719 C 187.535156 352.800781 188.195312 350.65625 188.726562 348.488281 C 191.03125 339.859375 194.453125 331.546875 198.742188 323.746094 C 203.011719 315.917969 208.242188 308.675781 214.015625 301.976562 C 219.800781 295.289062 226.070312 289.042969 232.84375 283.449219 C 239.613281 277.863281 246.699219 272.71875 254.082031 268.132812 C 255.898438 266.941406 257.816406 265.917969 259.667969 264.796875 C 261.535156 263.695312 263.402344 262.601562 265.324219 261.613281 C 267.230469 260.597656 269.136719 259.585938 271.035156 258.574219 C 272.976562 257.640625 274.910156 256.703125 276.847656 255.777344 L 279.75 254.386719 L 282.699219 253.109375 C 284.65625 252.261719 286.625 251.417969 288.582031 250.570312 C 292.566406 249.0625 296.484375 247.382812 300.507812 246.0625 C 302.503906 245.371094 304.503906 244.675781 306.492188 243.984375 C 308.511719 243.363281 310.523438 242.75 312.53125 242.132812 C 316.53125 240.828125 320.613281 239.867188 324.625 238.761719 C 340.785156 234.628906 357.046875 232.164062 373.023438 230.839844 C 377.019531 230.445312 381.003906 230.285156 384.960938 230.082031 C 388.914062 229.828125 392.863281 229.875 396.777344 229.78125 L 399.746094 229.746094 L 402.648438 229.796875 C 404.582031 229.832031 406.511719 229.871094 408.433594 229.90625 C 412.273438 229.964844 416.152344 230.269531 419.96875 230.433594 C 435.210938 231.4375 449.972656 233.414062 464.007812 236.523438 C 478.046875 239.605469 491.378906 243.613281 503.820312 248.390625 C 528.714844 257.941406 549.902344 270.78125 566.324219 284.84375 C 574.546875 291.878906 581.566406 299.21875 587.378906 306.550781 C 588.773438 308.421875 590.140625 310.253906 591.480469 312.054688 C 592.785156 313.875 593.941406 315.746094 595.132812 317.519531 C 596.371094 319.273438 597.324219 321.140625 598.378906 322.894531 C 598.890625 323.773438 599.394531 324.644531 599.894531 325.5 C 600.34375 326.390625 600.78125 327.269531 601.210938 328.140625 C 608.332031 341.960938 610.808594 354.125 611.871094 362.300781 C 612.089844 364.359375 612.285156 366.183594 612.453125 367.753906 C 612.507812 369.332031 612.550781 370.667969 612.585938 371.738281 C 612.65625 373.882812 612.691406 374.984375 612.691406 374.984375 L 612.691406 374.992188 " fill-opacity="1" fill-rule="nonzero"/><path fill="rgb(96.469116%, 96.859741%, 97.24884%)" d="M 325.304688 464 C 325.304688 464 324.003906 553.433594 314.039062 589.09375 L 370.445312 589.09375 C 370.445312 589.09375 379.085938 468.742188 339.21875 419.441406 " fill-opacity="1" fill-rule="nonzero"/><g clip-path="url(#id1)"><path fill="rgb(11.759949%, 8.628845%, 7.449341%)" d="M 325.304688 464 C 325.433594 474.496094 325.269531 484.980469 325.03125 495.476562 C 324.90625 500.714844 324.761719 505.964844 324.554688 511.203125 L 324.171875 519.070312 C 324.042969 521.691406 323.90625 524.3125 323.730469 526.933594 C 323.433594 532.171875 323.046875 537.414062 322.640625 542.648438 C 322.457031 545.269531 322.175781 547.882812 321.953125 550.503906 C 321.726562 553.117188 321.46875 555.738281 321.160156 558.351562 C 320.84375 560.96875 320.613281 563.585938 320.230469 566.195312 L 319.082031 574.023438 L 317.65625 581.824219 C 317.085938 584.421875 316.441406 587.003906 315.84375 589.601562 L 314.039062 587.226562 L 342.238281 587.113281 L 370.445312 587.0625 L 368.414062 588.945312 C 368.890625 581.734375 369.109375 574.421875 369.210938 567.144531 C 369.265625 563.5 369.273438 559.855469 369.242188 556.210938 C 369.207031 552.5625 369.160156 548.917969 369.0625 545.273438 C 368.992188 541.628906 368.847656 537.992188 368.683594 534.351562 C 368.519531 530.707031 368.296875 527.070312 368.050781 523.4375 C 367.777344 519.804688 367.496094 516.171875 367.152344 512.542969 C 366.855469 508.910156 366.429688 505.296875 366.03125 501.675781 C 365.566406 498.066406 365.121094 494.445312 364.542969 490.855469 C 364.03125 487.246094 363.351562 483.664062 362.703125 480.082031 L 361.621094 474.726562 C 361.257812 472.945312 360.808594 471.183594 360.40625 469.410156 C 360.011719 467.628906 359.554688 465.871094 359.070312 464.113281 C 358.582031 462.363281 358.167969 460.589844 357.617188 458.851562 L 356.058594 453.621094 L 354.289062 448.457031 C 353.722656 446.71875 352.984375 445.058594 352.335938 443.355469 C 351.996094 442.507812 351.6875 441.652344 351.324219 440.816406 L 350.195312 438.332031 C 349.441406 436.671875 348.714844 435.003906 347.828125 433.40625 C 346.953125 431.8125 346.199219 430.136719 345.222656 428.601562 C 344.273438 427.046875 343.382812 425.453125 342.375 423.925781 L 339.21875 419.441406 L 342.621094 423.753906 C 343.714844 425.226562 344.699219 426.773438 345.738281 428.285156 C 346.277344 429.035156 346.738281 429.828125 347.191406 430.625 L 348.566406 433.007812 C 349.527344 434.582031 350.324219 436.230469 351.152344 437.875 L 352.398438 440.335938 C 352.796875 441.160156 353.148438 442.015625 353.527344 442.847656 C 354.242188 444.539062 355.0625 446.195312 355.703125 447.914062 L 357.703125 453.054688 L 359.496094 458.273438 C 360.132812 460 360.585938 461.785156 361.121094 463.542969 C 361.65625 465.304688 362.160156 467.066406 362.601562 468.855469 C 363.054688 470.636719 363.554688 472.410156 363.964844 474.195312 L 365.199219 479.570312 C 365.941406 483.171875 366.722656 486.769531 367.324219 490.390625 C 367.996094 494.003906 368.539062 497.636719 369.097656 501.269531 C 369.59375 504.910156 370.109375 508.546875 370.503906 512.199219 C 370.960938 515.84375 371.253906 519.503906 371.589844 523.167969 C 371.878906 526.824219 372.152344 530.492188 372.363281 534.15625 C 372.578125 537.820312 372.765625 541.488281 372.890625 545.160156 C 373.183594 552.492188 373.238281 559.84375 373.183594 567.183594 C 373.113281 574.535156 372.929688 581.851562 372.46875 589.242188 L 372.355469 591.132812 L 370.445312 591.132812 L 342.238281 591.085938 L 314.039062 590.964844 L 311.648438 590.960938 L 312.234375 588.59375 L 314.089844 581.074219 L 315.59375 573.425781 L 316.824219 565.707031 C 317.269531 563.140625 317.5625 560.539062 317.9375 557.953125 C 318.3125 555.371094 318.628906 552.777344 318.921875 550.183594 C 319.210938 547.578125 319.558594 544.988281 319.800781 542.386719 C 320.335938 537.179688 320.851562 531.96875 321.277344 526.753906 C 321.515625 524.144531 321.71875 521.535156 321.910156 518.929688 L 323.066406 503.253906 L 323.589844 495.410156 C 323.921875 490.179688 324.226562 484.945312 324.503906 479.710938 L 325.304688 464 " fill-opacity="1" fill-rule="nonzero"/></g><path fill="rgb(11.759949%, 8.628845%, 7.449341%)" d="M 317.867188 570.417969 C 317.867188 572.097656 317.34375 573.074219 316.847656 574.597656 C 316.429688 575.886719 316.042969 581.5 315.710938 583.15625 C 315.417969 584.59375 313.726562 588.527344 314.328125 588.773438 C 314.972656 589.035156 315.878906 588.941406 316.597656 588.976562 C 318.289062 589.058594 319.902344 588.828125 321.613281 588.753906 C 324.328125 588.628906 327.058594 588.5 329.792969 588.5 C 332.128906 588.5 334.4375 588.773438 336.785156 588.773438 C 340.613281 588.773438 344.238281 588.910156 348.03125 588.867188 C 351.4375 588.820312 354.6875 588.957031 358.03125 589.136719 C 359.714844 589.230469 361.429688 589.226562 363.136719 589.230469 C 365.230469 589.230469 367.242188 588.742188 369.296875 588.957031 C 369.570312 588.988281 370.085938 589.171875 370.320312 588.980469 C 370.8125 588.582031 370.324219 588.5 370.289062 588.140625 C 370.207031 587.277344 371.296875 575.035156 371.296875 574.324219 C 371.296875 573.628906 371.183594 568.785156 370.855469 566.511719 C 365.359375 566.507812 359.804688 567.109375 354.300781 567.398438 C 348.140625 567.722656 341.964844 568.148438 335.789062 568.148438 C 331.953125 568.148438 328.160156 568.625 324.339844 568.78125 C 323.207031 568.828125 322.078125 568.828125 320.9375 568.871094 C 320.164062 568.898438 318.574219 568.78125 317.9375 569.214844 L 317.609375 569.246094 C 317.53125 569.609375 317.644531 569.875 317.960938 569.960938 " fill-opacity="1" fill-rule="nonzero"/><path fill="rgb(96.469116%, 96.859741%, 97.24884%)" d="M 523.753906 464 C 523.753906 464 522.457031 553.433594 512.488281 589.09375 L 568.898438 589.09375 C 568.898438 589.09375 577.535156 468.742188 537.671875 419.441406 " fill-opacity="1" fill-rule="nonzero"/><g clip-path="url(#id2)"><path fill="rgb(11.759949%, 8.628845%, 7.449341%)" d="M 523.753906 464 C 523.886719 474.496094 523.71875 484.980469 523.480469 495.476562 C 523.355469 500.714844 523.214844 505.964844 523.003906 511.203125 L 522.617188 519.070312 C 522.492188 521.691406 522.355469 524.3125 522.183594 526.933594 C 521.886719 532.171875 521.5 537.414062 521.09375 542.648438 C 520.910156 545.269531 520.628906 547.882812 520.402344 550.503906 C 520.175781 553.117188 519.921875 555.738281 519.609375 558.351562 C 519.296875 560.96875 519.0625 563.585938 518.683594 566.195312 L 517.53125 574.023438 L 516.109375 581.824219 C 515.53125 584.421875 514.894531 587.003906 514.292969 589.601562 L 512.488281 587.226562 L 540.691406 587.113281 L 568.898438 587.0625 L 566.867188 588.945312 C 567.34375 581.734375 567.5625 574.421875 567.664062 567.144531 C 567.71875 563.5 567.722656 559.855469 567.695312 556.210938 C 567.65625 552.5625 567.609375 548.917969 567.515625 545.273438 C 567.445312 541.628906 567.292969 537.992188 567.132812 534.351562 C 566.972656 530.707031 566.746094 527.070312 566.503906 523.4375 C 566.230469 519.804688 565.941406 516.171875 565.605469 512.542969 C 565.304688 508.910156 564.882812 505.296875 564.484375 501.675781 C 564.019531 498.066406 563.574219 494.445312 562.996094 490.855469 C 562.484375 487.246094 561.804688 483.664062 561.15625 480.082031 L 560.070312 474.726562 C 559.707031 472.945312 559.261719 471.183594 558.855469 469.410156 C 558.464844 467.628906 558 465.871094 557.523438 464.113281 C 557.035156 462.363281 556.613281 460.589844 556.070312 458.851562 L 554.511719 453.621094 L 552.742188 448.457031 C 552.175781 446.71875 551.4375 445.058594 550.789062 443.355469 C 550.449219 442.507812 550.140625 441.652344 549.777344 440.816406 L 548.644531 438.332031 C 547.894531 436.671875 547.167969 435.003906 546.28125 433.40625 C 545.40625 431.8125 544.648438 430.136719 543.679688 428.601562 C 542.726562 427.046875 541.828125 425.453125 540.828125 423.925781 L 537.671875 419.441406 L 541.070312 423.753906 C 542.167969 425.226562 543.148438 426.773438 544.191406 428.285156 C 544.726562 429.035156 545.191406 429.828125 545.636719 430.625 L 547.019531 433.007812 C 547.976562 434.582031 548.777344 436.230469 549.605469 437.875 L 550.847656 440.335938 C 551.246094 441.160156 551.597656 442.015625 551.972656 442.847656 C 552.695312 444.539062 553.515625 446.195312 554.152344 447.914062 L 556.152344 453.054688 L 557.945312 458.273438 C 558.582031 460 559.035156 461.785156 559.570312 463.542969 C 560.101562 465.304688 560.613281 467.066406 561.054688 468.855469 C 561.507812 470.636719 562.007812 472.410156 562.417969 474.195312 L 563.652344 479.570312 C 564.394531 483.171875 565.175781 486.769531 565.777344 490.390625 C 566.449219 494.003906 566.992188 497.636719 567.550781 501.269531 C 568.046875 504.910156 568.5625 508.546875 568.957031 512.199219 C 569.414062 515.84375 569.699219 519.503906 570.039062 523.167969 C 570.332031 526.824219 570.605469 530.492188 570.8125 534.15625 C 571.027344 537.820312 571.21875 541.488281 571.34375 545.160156 C 571.636719 552.492188 571.6875 559.84375 571.636719 567.183594 C 571.5625 574.535156 571.378906 581.851562 570.921875 589.242188 L 570.808594 591.132812 L 568.898438 591.132812 L 540.691406 591.085938 L 512.488281 590.964844 L 510.101562 590.960938 L 510.683594 588.59375 L 512.542969 581.074219 L 514.042969 573.425781 L 515.277344 565.707031 C 515.71875 563.140625 516.015625 560.539062 516.390625 557.953125 C 516.765625 555.371094 517.082031 552.777344 517.371094 550.183594 C 517.664062 547.578125 518.007812 544.988281 518.253906 542.386719 C 518.789062 537.179688 519.300781 531.96875 519.730469 526.753906 C 519.960938 524.144531 520.164062 521.535156 520.363281 518.929688 L 521.515625 503.253906 L 522.039062 495.410156 C 522.375 490.179688 522.675781 484.945312 522.957031 479.710938 L 523.753906 464 " fill-opacity="1" fill-rule="nonzero"/></g><path fill="rgb(11.759949%, 8.628845%, 7.449341%)" d="M 516.316406 570.417969 C 516.316406 572.097656 515.792969 573.074219 515.300781 574.597656 C 514.882812 575.886719 514.496094 581.5 514.164062 583.15625 C 513.871094 584.59375 512.179688 588.527344 512.78125 588.773438 C 513.425781 589.035156 514.328125 588.941406 515.050781 588.976562 C 516.742188 589.058594 518.355469 588.828125 520.070312 588.753906 C 522.777344 588.628906 525.511719 588.5 528.246094 588.5 C 530.578125 588.5 532.890625 588.773438 535.234375 588.773438 C 539.0625 588.773438 542.691406 588.910156 546.484375 588.867188 C 549.890625 588.820312 553.140625 588.957031 556.480469 589.136719 C 558.167969 589.230469 559.882812 589.226562 561.589844 589.230469 C 563.679688 589.230469 565.691406 588.742188 567.746094 588.957031 C 568.019531 588.988281 568.539062 589.171875 568.769531 588.980469 C 569.265625 588.582031 568.777344 588.5 568.742188 588.140625 C 568.660156 587.277344 569.746094 575.035156 569.746094 574.324219 C 569.746094 573.628906 569.636719 568.785156 569.308594 566.511719 C 563.8125 566.507812 558.25 567.109375 552.753906 567.398438 C 546.589844 567.722656 540.417969 568.148438 534.242188 568.148438 C 530.40625 568.148438 526.613281 568.625 522.789062 568.78125 C 521.660156 568.828125 520.527344 568.828125 519.390625 568.871094 C 518.617188 568.898438 517.027344 568.78125 516.390625 569.214844 L 516.0625 569.246094 C 515.984375 569.609375 516.097656 569.875 516.414062 569.960938 " fill-opacity="1" fill-rule="nonzero"/><path fill="rgb(11.759949%, 8.628845%, 7.449341%)" d="M 374.769531 232.792969 C 364.574219 240.273438 372.476562 266.824219 374.519531 277.023438 C 375.875 285.175781 370.4375 297.414062 373.160156 304.210938 C 379.273438 318.484375 423.453125 320.523438 437.046875 321.203125 C 458.113281 323.246094 473.742188 321.878906 486.660156 304.210938 C 493.453125 294.695312 497.53125 287.214844 494.132812 275.660156 C 492.09375 270.222656 488.695312 266.824219 488.015625 260.027344 C 487.335938 252.554688 489.375 251.191406 482.578125 247.796875 C 473.742188 243.714844 457.964844 237.011719 448.449219 235.652344 C 438.253906 233.617188 378.847656 230.078125 374.769531 232.792969 " fill-opacity="1" fill-rule="nonzero"/><path fill="rgb(11.759949%, 8.628845%, 7.449341%)" d="M 541.441406 328.859375 C 534.675781 328.84375 529.65625 342.789062 527.296875 347.828125 C 525.292969 351.777344 519.0625 355.320312 518.082031 359.113281 C 516.179688 367.207031 534.5625 382.109375 540.207031 386.71875 C 548.632812 394.285156 555.796875 398.664062 566.972656 395.15625 C 572.921875 393.207031 577.046875 391.285156 579.257812 385.230469 C 580.101562 382.238281 579.714844 379.695312 581.578125 376.550781 C 583.664062 373.117188 584.972656 373.175781 583.128906 369.554688 C 580.609375 364.992188 575.945312 357.09375 572.277344 353.484375 C 568.535156 349.371094 544.058594 328.980469 541.441406 328.859375 " fill-opacity="1" fill-rule="nonzero"/><path fill="rgb(11.759949%, 8.628845%, 7.449341%)" d="M 407.554688 390.59375 C 400.789062 390.578125 395.769531 404.523438 393.410156 409.5625 C 391.40625 413.511719 385.175781 417.054688 384.195312 420.847656 C 382.292969 428.9375 400.675781 443.84375 406.320312 448.453125 C 414.746094 456.019531 421.910156 460.398438 433.085938 456.882812 C 439.035156 454.941406 443.160156 453.019531 445.371094 446.960938 C 446.214844 443.972656 445.828125 441.429688 447.699219 438.285156 C 449.777344 434.84375 451.085938 434.910156 449.242188 431.289062 C 446.722656 426.726562 442.058594 418.828125 438.390625 415.21875 C 434.644531 411.105469 410.171875 390.714844 407.554688 390.59375 " fill-opacity="1" fill-rule="nonzero"/><path fill="rgb(11.759949%, 8.628845%, 7.449341%)" d="M 360.042969 476.566406 C 356.339844 473.648438 347.578125 479.140625 344.121094 480.890625 C 341.328125 482.195312 336.386719 481.460938 334.210938 483.117188 C 329.691406 486.738281 333.367188 502.835938 334.484375 507.785156 C 335.847656 515.5625 337.902344 521.046875 345.542969 523.929688 C 349.640625 525.425781 352.734375 526.144531 356.554688 523.769531 C 358.304688 522.488281 359.183594 520.933594 361.5625 520.007812 C 364.179688 519.015625 364.871094 519.617188 365.417969 516.832031 C 366.003906 513.246094 366.835938 506.910156 366.378906 503.347656 C 366.09375 499.476562 361.429688 477.757812 360.042969 476.566406 " fill-opacity="1" fill-rule="nonzero"/><path fill="rgb(11.759949%, 8.628845%, 7.449341%)" d="M 563.191406 525.769531 C 561.148438 524.164062 556.316406 527.1875 554.410156 528.160156 C 552.867188 528.878906 550.140625 528.46875 548.9375 529.386719 C 546.449219 531.382812 548.472656 540.261719 549.09375 542.992188 C 549.847656 547.28125 550.972656 550.3125 555.195312 551.902344 C 557.453125 552.726562 559.160156 553.117188 561.261719 551.8125 C 562.234375 551.109375 562.714844 550.246094 564.03125 549.734375 C 565.472656 549.1875 565.855469 549.519531 566.15625 547.984375 C 566.480469 546.007812 566.9375 542.503906 566.679688 540.546875 C 566.527344 538.414062 563.953125 526.433594 563.191406 525.769531 " fill-opacity="1" fill-rule="nonzero"/><path fill="rgb(11.759949%, 8.628845%, 7.449341%)" d="M 271.414062 409.445312 C 264.652344 409.425781 259.625 423.375 257.265625 428.410156 C 255.265625 432.359375 249.039062 435.902344 248.050781 439.695312 C 246.15625 447.785156 250.195312 465.792969 255.832031 470.402344 C 264.257812 477.972656 285.773438 479.246094 296.949219 475.734375 C 302.890625 473.792969 307.023438 471.867188 309.226562 465.8125 C 310.078125 462.820312 309.691406 460.277344 311.554688 457.132812 C 313.640625 453.691406 314.949219 453.757812 313.097656 450.136719 C 310.585938 445.574219 291.453125 441.667969 287.789062 438.058594 C 284.042969 433.9375 274.035156 409.5625 271.414062 409.445312 " fill-opacity="1" fill-rule="nonzero"/><path fill="rgb(11.759949%, 8.628845%, 7.449341%)" d="M 470.488281 455.457031 C 466.582031 458.546875 470.074219 468.910156 471.027344 472.894531 C 471.683594 476.089844 469.710938 480.996094 470.886719 483.636719 C 473.503906 489.175781 484.09375 497.714844 489.464844 497.785156 C 497.800781 498.285156 510.796875 489.152344 515.640625 482 C 518.175781 478.144531 519.675781 475.136719 518.175781 470.636719 C 517.289062 468.515625 515.902344 467.222656 515.53125 464.554688 C 515.15625 461.617188 515.941406 461.054688 513.214844 459.808594 C 509.671875 458.332031 496.835938 464.851562 493.066406 464.453125 C 489.015625 463.796875 472.058594 454.324219 470.488281 455.457031 " fill-opacity="1" fill-rule="nonzero"/><path fill="rgb(11.759949%, 8.628845%, 7.449341%)" d="M 628.429688 388.070312 C 626.023438 387.855469 623.804688 392.660156 622.808594 394.375 C 621.976562 395.722656 619.648438 396.792969 619.183594 398.109375 C 618.253906 400.933594 619.132812 407.464844 621 409.277344 C 623.761719 412.230469 631.378906 413.351562 635.460938 412.449219 C 637.640625 411.9375 639.171875 411.386719 640.140625 409.292969 C 640.535156 408.257812 640.476562 407.339844 641.238281 406.28125 C 642.082031 405.121094 642.546875 405.183594 642.007812 403.839844 C 641.25 402.136719 634.5625 400.152344 633.371094 398.753906 C 632.164062 397.175781 629.359375 388.195312 628.429688 388.070312 " fill-opacity="1" fill-rule="nonzero"/><path fill="rgb(16.468811%, 64.309692%, 25.878906%)" d="M 228.226562 431.792969 C 230.375 430.882812 232.640625 429.996094 234.527344 428.78125 C 235.9375 427.863281 236.390625 426.792969 237.488281 425.683594 C 239.753906 423.390625 243.144531 422.46875 246.097656 420.859375 C 249.097656 419.226562 252.5625 418.40625 255.808594 417.121094 C 259.351562 415.71875 262.050781 413.964844 265.917969 412.980469 C 274.167969 410.882812 281.257812 407.90625 289.851562 407.03125 C 294.804688 406.523438 299.65625 405.773438 304.652344 405.421875 C 309.371094 405.089844 314.015625 404.28125 318.71875 403.964844 C 321.46875 403.78125 324.394531 403.976562 327.15625 403.976562 C 319.648438 403.644531 311.269531 407.007812 304.277344 409.234375 C 297.328125 411.449219 290.851562 414.09375 284.46875 417.203125 C 281.277344 418.757812 277.921875 420.003906 275.03125 421.859375 C 272.273438 423.628906 269.878906 425.695312 267.007812 427.332031 C 260.207031 431.214844 251.992188 433.480469 244.667969 436.75 C 246.300781 436.886719 253.261719 436.773438 255.160156 436.617188 C 259.601562 436.242188 264.640625 437.988281 268.8125 438.578125 C 272.367188 439.078125 275.28125 438.941406 278.691406 439.320312 C 282.152344 439.703125 285.746094 439.570312 289.203125 439.835938 C 296.210938 440.351562 303.378906 440.886719 310.316406 441.609375 C 313.746094 441.960938 317.277344 441.824219 320.652344 442.402344 C 322.511719 442.714844 324.410156 443.03125 326.257812 443.335938 C 327.257812 443.496094 330.851562 443.914062 331.4375 444.539062 L 331.800781 444.667969 C 315.191406 444.859375 299.117188 443.53125 282.527344 443.53125 C 271.3125 443.53125 260.035156 443.496094 248.769531 443.367188 C 251.996094 444.960938 266.265625 451.726562 268.085938 452.585938 C 271.253906 454.066406 273.292969 455.15625 275.679688 457.355469 C 278.347656 459.800781 278.421875 461.980469 279.550781 464.761719 C 280.097656 466.109375 281.089844 467.253906 280.765625 468.753906 C 272.125 467.996094 264.757812 464.917969 257.542969 461.542969 C 253.652344 459.71875 241.273438 451.121094 237.082031 451.320312 C 232.304688 451.542969 227.808594 456.914062 227.148438 459.925781 C 226.761719 461.691406 225.65625 468.21875 225.171875 469.707031 C 222.175781 469.832031 223.542969 483.09375 220.523438 483.09375 C 217.546875 483.09375 211.316406 469.957031 210.40625 467.777344 C 208.871094 464.109375 210.90625 449.898438 204.3125 450.601562 C 200.753906 450.976562 197.464844 451.894531 193.757812 452.058594 C 180.9375 452.644531 168.414062 455.574219 155.261719 454.917969 C 157.769531 453.5 160.929688 452.734375 163.863281 452.019531 C 166.519531 451.371094 168.722656 450.042969 171.351562 449.480469 C 175.230469 448.664062 179.109375 447.964844 183.039062 447.230469 C 186.980469 446.5 190.855469 445.933594 194.847656 445.472656 C 196.65625 445.257812 208.667969 443.144531 207.761719 442.238281 C 207.523438 442 204.074219 440.816406 203.460938 440.601562 C 200.167969 439.433594 198.84375 437.714844 195.574219 436.238281 C 192.417969 434.808594 188.84375 432.347656 185.175781 431.53125 C 181.074219 430.609375 168.980469 423.035156 166.230469 419.917969 C 171.898438 421.449219 174.105469 422.832031 178.3125 425.820312 C 181.324219 427.957031 185.980469 429.285156 189.253906 431.257812 C 192.761719 433.367188 197.644531 433.644531 201.945312 434.527344 C 204.796875 435.113281 210.121094 435.660156 213.113281 435.320312 C 213.316406 431.792969 212.261719 429.5 209.703125 426.808594 C 207.09375 424.070312 204.410156 421.121094 203.082031 418.125 C 202.050781 415.792969 199.40625 415.21875 198.78125 412.855469 C 198.144531 410.480469 199.1875 406.460938 199.402344 403.996094 C 201.355469 405.28125 203.84375 406.769531 205.636719 408.378906 C 206.808594 409.425781 210.136719 417.324219 212.882812 418.929688 C 214.40625 419.824219 218.300781 424.277344 219.230469 425.554688 C 220.011719 426.625 226.308594 431.554688 226.292969 432.4375 L 228.226562 431.792969 " fill-opacity="1" fill-rule="nonzero"/><path fill="rgb(11.759949%, 8.628845%, 7.449341%)" d="M 228.710938 434.175781 C 226.988281 433.003906 251.742188 419.847656 253.683594 418.949219 C 269.71875 411.5 286.636719 407.472656 304.21875 405.773438 C 310.382812 405.179688 316.574219 404.953125 322.761719 404.796875 C 328.996094 404.636719 330.515625 403.238281 323.261719 404.09375 C 313.710938 405.234375 304.410156 408.730469 295.550781 412.285156 C 287.277344 415.59375 279.257812 419.199219 271.503906 423.585938 C 261.375 429.328125 251.671875 433.847656 240.78125 437.878906 C 240.023438 438.160156 241.328125 438.394531 241.546875 438.382812 C 255.09375 437.648438 267.484375 428.304688 278.898438 421.855469 C 294.222656 413.203125 313.429688 405.109375 331.121094 404.703125 C 332.929688 404.660156 332.949219 403.523438 331.121094 403.53125 C 304.476562 403.546875 277.871094 405.804688 253.332031 416.953125 C 245.714844 420.40625 238.113281 424.070312 230.976562 428.441406 C 229.460938 429.371094 222.964844 433.558594 227.683594 434.5625 C 227.839844 434.597656 229.203125 434.515625 228.710938 434.175781 " fill-opacity="1" fill-rule="nonzero"/><path fill="rgb(11.759949%, 8.628845%, 7.449341%)" d="M 250.695312 439.148438 C 255.367188 436.046875 264.019531 438.464844 269.242188 439.285156 C 274.476562 440.113281 279.699219 440.484375 284.992188 440.785156 C 298.597656 441.5625 312.234375 441.710938 325.671875 444.207031 C 328.65625 444.757812 329.484375 444.140625 325.304688 444.210938 C 321.445312 444.28125 317.582031 444.207031 313.722656 444.128906 C 306.027344 443.972656 298.339844 443.539062 290.65625 443.167969 C 276.988281 442.515625 263.304688 442.246094 249.667969 443.507812 C 249.269531 443.550781 247.574219 443.984375 248.496094 444.605469 C 259.792969 452.179688 276.472656 454.601562 279.941406 469.710938 C 280.726562 469.484375 281.515625 469.261719 282.300781 469.035156 C 269.847656 467.28125 258.957031 461.65625 248.480469 455.015625 C 244.308594 452.371094 240.542969 449.941406 235.46875 450.894531 C 224.339844 452.984375 221.714844 475.335938 218.921875 483.867188 C 220.347656 483.796875 221.785156 483.726562 223.21875 483.648438 C 215.769531 473.976562 209.917969 463.363281 210.296875 450.832031 C 210.316406 450.195312 208.828125 450.132812 208.457031 450.136719 C 190.601562 450.375 173.238281 455.414062 155.351562 455.242188 C 155.945312 455.632812 156.542969 456.03125 157.140625 456.425781 C 173.046875 445.847656 192.71875 449.457031 210.136719 443.449219 C 210.632812 443.28125 211.167969 442.746094 210.507812 442.359375 C 196.382812 434.121094 180.15625 429.722656 167.359375 419.269531 C 166.210938 419.609375 165.066406 419.941406 163.917969 420.277344 C 179.789062 428.070312 196.78125 436.625 214.753906 437.589844 C 215.316406 437.617188 218.359375 437.683594 217.8125 436.425781 C 214.042969 427.828125 193.347656 413.421875 202.253906 403.378906 C 200.984375 403.445312 199.710938 403.507812 198.441406 403.570312 C 204.035156 407.402344 206.433594 413.648438 210.222656 419.007812 C 213.960938 424.300781 220.265625 428.917969 225.34375 432.894531 C 226.332031 433.671875 230.90625 433.027344 229.511719 431.96875 C 223.238281 427.183594 216.667969 422.058594 212.300781 415.410156 C 209.214844 410.710938 206.714844 406.089844 202.046875 402.765625 C 201.15625 402.140625 198.996094 402.128906 198.230469 402.957031 C 188.492188 413.480469 209.167969 428.023438 213.019531 436.929688 C 214.039062 436.539062 215.054688 436.152344 216.074219 435.765625 C 198.902344 434.8125 182.515625 426.855469 167.359375 419.269531 C 166.609375 418.902344 162.179688 418.949219 163.574219 420.109375 C 169.695312 425.203125 176.589844 428.886719 183.753906 432.265625 C 187.332031 433.957031 190.96875 435.527344 194.574219 437.171875 C 197.253906 438.394531 199.894531 439.695312 202.515625 441.054688 C 206.039062 442.890625 204.964844 442.882812 200.960938 443.929688 C 184.765625 448.191406 168.121094 445.867188 153.558594 455.628906 C 152.390625 456.414062 154.976562 456.8125 155.351562 456.820312 C 173.253906 456.949219 190.605469 451.898438 208.457031 451.535156 C 207.851562 451.296875 207.238281 451.070312 206.625 450.832031 C 206.59375 463.144531 211.984375 474.257812 218.996094 484.089844 C 219.546875 484.855469 222.828125 485.136719 223.21875 484.089844 C 225.457031 478.097656 229.328125 449.136719 239.5 452.238281 C 246.175781 454.269531 252.59375 459.761719 258.738281 463.019531 C 265.835938 466.769531 273.386719 469.195312 281.3125 470.398438 C 281.632812 470.445312 283.8125 470.457031 283.667969 469.710938 C 280.5 454.0625 263.417969 451.589844 251.882812 443.855469 C 251.492188 444.21875 251.105469 444.582031 250.710938 444.949219 C 277.519531 442.339844 304.285156 446.015625 331.121094 445.332031 C 332.019531 445.308594 333.695312 444.582031 331.960938 444.15625 C 314.464844 439.875 296.238281 440.160156 278.371094 439.070312 C 270.570312 438.59375 256.546875 433.324219 249.6875 438.929688 C 249.335938 439.207031 250.472656 439.296875 250.695312 439.148438 " fill-opacity="1" fill-rule="nonzero"/><path fill="rgb(96.469116%, 96.859741%, 97.24884%)" d="M 143.976562 318.003906 C 138.082031 330.75 129.4375 339.292969 124.667969 337.085938 C 119.898438 334.882812 120.808594 322.761719 126.703125 310.011719 C 132.597656 297.273438 141.242188 288.726562 146.011719 290.929688 C 150.78125 293.140625 149.867188 305.257812 143.976562 318.003906 " fill-opacity="1" fill-rule="nonzero"/><path fill="rgb(11.759949%, 8.628845%, 7.449341%)" d="M 143.976562 318.003906 C 143.976562 318.003906 144.15625 317.59375 144.488281 316.8125 C 144.839844 316.042969 145.292969 314.890625 145.859375 313.414062 C 146.394531 311.929688 147.015625 310.117188 147.5625 307.988281 C 148.128906 305.867188 148.640625 303.429688 148.816406 300.734375 C 148.890625 299.394531 148.917969 297.988281 148.722656 296.558594 C 148.5625 295.140625 148.191406 293.644531 147.328125 292.453125 C 147.097656 292.1875 146.871094 291.949219 146.609375 291.699219 L 146.101562 291.390625 L 145.851562 291.234375 L 145.632812 291.175781 C 145.285156 291.066406 144.941406 290.953125 144.5625 290.984375 C 144.382812 290.988281 144.199219 290.960938 144.011719 290.984375 L 143.453125 291.089844 C 141.957031 291.417969 140.554688 292.304688 139.265625 293.320312 C 136.695312 295.402344 134.507812 298.125 132.515625 301.007812 C 130.527344 303.917969 128.816406 307.023438 127.316406 310.296875 C 125.796875 313.539062 124.53125 316.890625 123.601562 320.277344 C 122.703125 323.660156 122.035156 327.089844 122.117188 330.402344 C 122.175781 332.039062 122.410156 333.683594 123.128906 335.035156 L 123.410156 335.53125 C 123.511719 335.683594 123.640625 335.792969 123.75 335.9375 C 123.941406 336.214844 124.28125 336.4375 124.625 336.648438 C 124.875 336.871094 125.28125 336.898438 125.601562 337.042969 C 125.957031 337.085938 126.320312 337.113281 126.683594 337.109375 C 128.148438 336.996094 129.527344 336.304688 130.710938 335.511719 C 131.925781 334.738281 132.980469 333.804688 133.957031 332.875 C 135.890625 331 137.414062 329.027344 138.664062 327.222656 C 139.933594 325.429688 140.910156 323.78125 141.695312 322.410156 C 142.457031 321.027344 143.042969 319.933594 143.398438 319.164062 C 143.773438 318.410156 143.976562 318.003906 143.976562 318.003906 Z M 143.976562 318.003906 C 143.976562 318.003906 143.78125 318.410156 143.417969 319.175781 C 143.066406 319.945312 142.5 321.046875 141.757812 322.445312 C 140.988281 323.828125 140.027344 325.488281 138.785156 327.304688 C 137.5625 329.140625 136.035156 331.113281 134.171875 333.089844 C 133.21875 334.058594 132.179688 335.042969 130.960938 335.882812 C 129.769531 336.738281 128.375 337.519531 126.734375 337.710938 C 126.328125 337.726562 125.898438 337.714844 125.480469 337.675781 C 125.078125 337.527344 124.648438 337.515625 124.253906 337.234375 C 123.917969 337.03125 123.570312 336.839844 123.261719 336.472656 C 123.105469 336.304688 122.929688 336.148438 122.804688 335.972656 L 122.457031 335.417969 C 121.59375 333.90625 121.300781 332.164062 121.175781 330.449219 C 120.957031 326.980469 121.535156 323.441406 122.433594 319.96875 C 123.332031 316.484375 124.582031 313.050781 126.089844 309.730469 C 127.625 306.457031 129.460938 303.242188 131.519531 300.316406 C 133.582031 297.378906 135.902344 294.640625 138.6875 292.566406 C 140.082031 291.550781 141.59375 290.644531 143.304688 290.328125 C 143.734375 290.246094 144.160156 290.191406 144.601562 290.25 C 145.042969 290.238281 145.460938 290.382812 145.875 290.53125 C 145.996094 290.574219 146.042969 290.566406 146.214844 290.65625 L 146.464844 290.824219 L 146.960938 291.152344 C 147.265625 291.4375 147.574219 291.769531 147.824219 292.097656 C 148.746094 293.480469 149.050781 295.046875 149.167969 296.511719 C 149.316406 297.980469 149.242188 299.40625 149.117188 300.761719 C 148.816406 303.464844 148.304688 305.910156 147.703125 308.023438 C 147.125 310.148438 146.476562 311.960938 145.925781 313.4375 C 145.339844 314.90625 144.863281 316.050781 144.507812 316.820312 C 144.160156 317.59375 143.976562 318.003906 143.976562 318.003906 " fill-opacity="1" fill-rule="nonzero"/><path fill="rgb(96.469116%, 96.859741%, 97.24884%)" d="M 320.023438 318.003906 C 325.917969 330.75 334.558594 339.292969 339.328125 337.085938 C 344.097656 334.882812 343.183594 322.761719 337.296875 310.011719 C 331.402344 297.273438 322.753906 288.726562 317.984375 290.929688 C 313.214844 293.140625 314.128906 305.257812 320.023438 318.003906 " fill-opacity="1" fill-rule="nonzero"/><path fill="rgb(11.759949%, 8.628845%, 7.449341%)" d="M 320.023438 318.003906 C 320.023438 318.003906 319.835938 317.59375 319.492188 316.820312 C 319.128906 316.050781 318.660156 314.90625 318.074219 313.4375 C 317.519531 311.960938 316.871094 310.148438 316.292969 308.023438 C 315.6875 305.910156 315.175781 303.464844 314.878906 300.761719 C 314.753906 299.40625 314.675781 297.980469 314.824219 296.511719 C 314.949219 295.046875 315.253906 293.480469 316.167969 292.097656 C 316.417969 291.769531 316.734375 291.4375 317.039062 291.152344 L 317.53125 290.824219 L 317.78125 290.65625 C 317.949219 290.566406 318.003906 290.574219 318.121094 290.53125 C 318.535156 290.382812 318.949219 290.238281 319.390625 290.25 C 319.832031 290.191406 320.261719 290.246094 320.6875 290.328125 C 322.402344 290.644531 323.917969 291.550781 325.308594 292.566406 C 328.089844 294.640625 330.414062 297.378906 332.480469 300.316406 C 334.539062 303.242188 336.375 306.457031 337.910156 309.730469 C 339.414062 313.050781 340.667969 316.484375 341.566406 319.96875 C 342.464844 323.441406 343.035156 326.980469 342.820312 330.449219 C 342.691406 332.164062 342.40625 333.90625 341.535156 335.417969 L 341.195312 335.972656 C 341.070312 336.148438 340.890625 336.304688 340.738281 336.472656 C 340.429688 336.839844 340.082031 337.03125 339.742188 337.234375 C 339.351562 337.515625 338.914062 337.527344 338.511719 337.675781 C 338.09375 337.714844 337.671875 337.726562 337.265625 337.710938 C 335.621094 337.519531 334.230469 336.738281 333.03125 335.882812 C 331.816406 335.042969 330.78125 334.058594 329.828125 333.089844 C 327.960938 331.113281 326.433594 329.140625 325.207031 327.304688 C 323.964844 325.488281 323.003906 323.828125 322.238281 322.445312 C 321.5 321.046875 320.925781 319.945312 320.582031 319.175781 C 320.21875 318.410156 320.023438 318.003906 320.023438 318.003906 Z M 320.023438 318.003906 C 320.023438 318.003906 320.21875 318.410156 320.59375 319.164062 C 320.957031 319.933594 321.539062 321.027344 322.296875 322.410156 C 323.082031 323.78125 324.066406 325.429688 325.332031 327.222656 C 326.578125 329.027344 328.101562 331 330.042969 332.875 C 331.015625 333.804688 332.074219 334.738281 333.28125 335.511719 C 334.46875 336.304688 335.84375 336.996094 337.3125 337.109375 C 337.671875 337.113281 338.039062 337.085938 338.390625 337.042969 C 338.714844 336.898438 339.125 336.871094 339.375 336.648438 C 339.714844 336.4375 340.058594 336.214844 340.242188 335.9375 C 340.355469 335.792969 340.488281 335.683594 340.589844 335.53125 L 340.867188 335.035156 C 341.589844 333.683594 341.816406 332.039062 341.882812 330.402344 C 341.957031 327.089844 341.292969 323.660156 340.398438 320.277344 C 339.46875 316.890625 338.195312 313.539062 336.675781 310.296875 C 335.183594 307.023438 333.472656 303.917969 331.476562 301.007812 C 329.484375 298.125 327.296875 295.402344 324.726562 293.320312 C 323.441406 292.304688 322.039062 291.417969 320.546875 291.089844 L 319.984375 290.984375 C 319.800781 290.960938 319.617188 290.988281 319.433594 290.984375 C 319.058594 290.953125 318.710938 291.066406 318.367188 291.175781 L 318.144531 291.234375 L 317.890625 291.390625 L 317.390625 291.699219 C 317.128906 291.949219 316.894531 292.1875 316.664062 292.453125 C 315.800781 293.644531 315.4375 295.140625 315.269531 296.558594 C 315.078125 297.988281 315.105469 299.394531 315.179688 300.734375 C 315.355469 303.429688 315.871094 305.867188 316.429688 307.988281 C 316.980469 310.117188 317.605469 311.929688 318.140625 313.414062 C 318.699219 314.890625 319.160156 316.042969 319.511719 316.8125 C 319.84375 317.59375 320.023438 318.003906 320.023438 318.003906 " fill-opacity="1" fill-rule="nonzero"/><path fill="rgb(96.469116%, 96.859741%, 97.24884%)" d="M 319.140625 321.921875 C 319.140625 375.785156 279.914062 419.441406 231.519531 419.441406 C 183.128906 419.441406 143.898438 375.785156 143.898438 321.921875 C 143.898438 268.0625 183.128906 224.394531 231.519531 224.394531 C 279.914062 224.394531 319.140625 268.0625 319.140625 321.921875 " fill-opacity="1" fill-rule="nonzero"/><path fill="rgb(11.759949%, 8.628845%, 7.449341%)" d="M 319.003906 321.917969 C 319.003906 321.917969 318.992188 321.351562 318.960938 320.25 C 318.898438 319.152344 318.949219 317.515625 318.753906 315.394531 C 318.507812 311.148438 317.855469 304.914062 316.007812 297.191406 C 314.164062 289.476562 310.894531 280.304688 305.398438 270.746094 C 299.929688 261.199219 291.992188 251.363281 281.3125 243.125 C 275.996094 239 269.96875 235.324219 263.304688 232.484375 C 260 231.011719 256.503906 229.839844 252.9375 228.753906 C 251.121094 228.328125 249.332031 227.753906 247.460938 227.441406 C 246.53125 227.261719 245.597656 227.078125 244.660156 226.890625 C 243.722656 226.753906 242.773438 226.625 241.820312 226.488281 C 239.917969 226.164062 238.011719 226.125 236.09375 225.925781 C 235.105469 225.898438 234.109375 225.875 233.117188 225.835938 L 231.621094 225.800781 L 230.179688 225.835938 C 226.238281 225.847656 222.265625 226.335938 218.289062 226.945312 C 214.328125 227.683594 210.363281 228.640625 206.46875 229.96875 C 202.597656 231.359375 198.722656 232.871094 195.011719 234.84375 C 180.089844 242.519531 167.199219 255.1875 158.429688 270.546875 C 149.585938 285.886719 144.859375 303.835938 144.644531 321.941406 C 144.625 330.933594 145.585938 340.019531 147.8125 348.757812 C 148.3125 350.957031 149.03125 353.085938 149.664062 355.25 C 150.417969 357.371094 151.09375 359.511719 151.972656 361.578125 C 153.605469 365.761719 155.578125 369.792969 157.753906 373.675781 C 166.53125 389.183594 179.578125 401.992188 194.703125 409.597656 C 198.453125 411.546875 202.367188 413.070312 206.285156 414.410156 C 210.226562 415.695312 214.226562 416.613281 218.21875 417.304688 C 219.222656 417.441406 220.222656 417.574219 221.21875 417.710938 C 222.21875 417.859375 223.214844 417.953125 224.207031 418.007812 C 225.195312 418.078125 226.183594 418.15625 227.171875 418.222656 C 228.179688 418.246094 229.1875 418.261719 230.191406 418.289062 L 231.65625 418.3125 L 233.132812 418.261719 C 234.117188 418.234375 235.09375 418.199219 236.070312 418.167969 C 238.011719 417.964844 239.953125 417.90625 241.851562 417.574219 C 242.804688 417.4375 243.75 417.292969 244.699219 417.15625 C 245.632812 416.972656 246.566406 416.78125 247.496094 416.589844 C 249.371094 416.269531 251.171875 415.683594 252.984375 415.242188 C 256.558594 414.136719 260.046875 412.953125 263.359375 411.46875 C 270.023438 408.609375 276.042969 404.90625 281.351562 400.765625 C 292.023438 392.5 299.957031 382.65625 305.421875 373.101562 C 310.917969 363.539062 314.1875 354.367188 316.027344 346.65625 C 317.859375 338.925781 318.519531 332.683594 318.757812 328.445312 C 318.949219 326.324219 318.902344 324.679688 318.960938 323.585938 C 318.992188 322.488281 319.003906 321.917969 319.003906 321.917969 Z M 319.277344 321.921875 C 319.277344 321.921875 319.265625 322.496094 319.246094 323.589844 C 319.199219 324.691406 319.265625 326.324219 319.09375 328.460938 C 318.890625 332.726562 318.296875 338.984375 316.527344 346.773438 C 316.019531 348.699219 315.585938 350.757812 314.914062 352.859375 C 314.339844 354.992188 313.597656 357.179688 312.8125 359.453125 C 311.167969 363.972656 309.101562 368.773438 306.453125 373.679688 C 301.15625 383.460938 293.484375 393.796875 282.667969 402.433594 C 277.28125 406.746094 271.148438 410.621094 264.324219 413.660156 C 260.949219 415.257812 257.332031 416.441406 253.640625 417.554688 C 251.765625 417.996094 249.914062 418.578125 247.976562 418.902344 C 247.019531 419.089844 246.0625 419.277344 245.089844 419.464844 C 244.113281 419.601562 243.136719 419.742188 242.15625 419.878906 C 240.195312 420.199219 238.195312 420.253906 236.199219 420.449219 C 235.195312 420.472656 234.1875 420.503906 233.179688 420.527344 L 231.664062 420.566406 L 230.125 420.527344 C 229.125 420.492188 228.121094 420.453125 227.113281 420.414062 C 226.089844 420.316406 225.058594 420.222656 224.03125 420.132812 C 223 420.050781 221.96875 419.929688 220.949219 419.753906 C 219.933594 419.589844 218.910156 419.4375 217.878906 419.277344 C 213.800781 418.484375 209.726562 417.453125 205.730469 416.054688 C 201.753906 414.605469 197.800781 412.964844 194.023438 410.890625 C 178.851562 402.75 165.835938 389.765625 157.023438 374.09375 C 154.800781 370.191406 152.789062 366.136719 151.117188 361.925781 C 150.210938 359.847656 149.519531 357.683594 148.742188 355.554688 C 148.089844 353.378906 147.351562 351.222656 146.828125 349.007812 C 144.433594 340.210938 143.296875 331.085938 143.15625 321.898438 C 143.125 312.8125 144.089844 303.550781 146.335938 294.699219 C 146.839844 292.46875 147.554688 290.300781 148.191406 288.101562 C 148.953125 285.953125 149.632812 283.773438 150.515625 281.667969 C 152.160156 277.417969 154.148438 273.320312 156.34375 269.359375 C 165.167969 253.542969 178.339844 240.410156 193.714844 232.347656 C 197.539062 230.292969 201.519531 228.640625 205.546875 227.242188 C 209.582031 225.878906 213.699219 224.898438 217.808594 224.140625 C 221.933594 223.519531 226.046875 223.03125 230.132812 223.03125 C 230.664062 223.019531 231.117188 222.996094 231.699219 222.996094 L 233.195312 223.042969 C 234.195312 223.074219 235.183594 223.105469 236.175781 223.140625 C 238.1875 223.34375 240.230469 223.40625 242.183594 223.742188 C 243.167969 223.882812 244.148438 224.019531 245.125 224.164062 C 246.097656 224.355469 247.0625 224.550781 248.019531 224.742188 C 249.957031 225.074219 251.8125 225.671875 253.6875 226.125 C 257.378906 227.253906 260.996094 228.464844 264.378906 230.066406 C 271.199219 233.121094 277.328125 237.015625 282.710938 241.34375 C 293.511719 250.015625 301.1875 260.359375 306.476562 270.144531 C 309.125 275.054688 311.183594 279.851562 312.828125 284.378906 C 313.613281 286.65625 314.359375 288.839844 314.929688 290.972656 C 315.609375 293.074219 316.042969 295.136719 316.542969 297.066406 C 318.308594 304.847656 318.902344 311.113281 319.097656 315.378906 C 319.273438 317.503906 319.199219 319.148438 319.246094 320.25 C 319.265625 321.351562 319.277344 321.921875 319.277344 321.921875 " fill-opacity="1" fill-rule="nonzero"/><g clip-path="url(#id3)"><path fill="rgb(100%, 100%, 100%)" d="M 118.730469 219.089844 C 118.730469 219.089844 111.074219 263.238281 131.9375 266.238281 L 160.585938 264.566406 C 160.585938 264.566406 175.105469 277.851562 160.585938 301.511719 C 160.585938 301.511719 123.320312 303.789062 109.257812 289.199219 C 109.257812 289.199219 91.761719 269.246094 118.730469 219.089844 " fill-opacity="1" fill-rule="nonzero"/></g><g clip-path="url(#id4)"><path fill="rgb(11.759949%, 8.628845%, 7.449341%)" d="M 118.730469 219.089844 L 115.324219 226.332031 L 114.464844 228.128906 L 113.703125 229.976562 L 112.199219 233.675781 C 111.714844 234.914062 111.148438 236.121094 110.738281 237.386719 L 109.476562 241.167969 C 109.070312 242.429688 108.589844 243.675781 108.25 244.953125 L 107.25 248.808594 C 106.480469 251.34375 106.09375 253.964844 105.582031 256.554688 C 105.285156 257.847656 105.226562 259.171875 105.058594 260.480469 C 104.945312 261.789062 104.695312 263.09375 104.707031 264.410156 L 104.601562 268.351562 L 104.820312 272.273438 C 104.902344 273.582031 105.164062 274.863281 105.328125 276.15625 C 105.527344 277.441406 105.898438 278.691406 106.171875 279.960938 C 106.929688 282.425781 107.84375 284.863281 109.160156 287.011719 C 109.484375 287.554688 109.828125 288.070312 110.148438 288.445312 C 110.613281 288.871094 111.058594 289.324219 111.535156 289.738281 C 112.507812 290.554688 113.539062 291.3125 114.621094 292.003906 C 118.980469 294.742188 123.992188 296.4375 129.085938 297.648438 C 134.195312 298.851562 139.433594 299.546875 144.699219 299.933594 C 147.328125 300.125 149.972656 300.234375 152.609375 300.273438 C 155.242188 300.308594 157.910156 300.28125 160.5 300.167969 L 159.441406 300.804688 L 161.8125 296.5625 L 162.789062 294.355469 C 163.085938 293.609375 163.496094 292.902344 163.703125 292.128906 L 164.449219 289.835938 C 164.734375 289.078125 164.871094 288.292969 165.039062 287.511719 C 165.179688 286.730469 165.414062 285.957031 165.484375 285.160156 L 165.71875 282.789062 C 165.792969 281.996094 165.71875 281.207031 165.730469 280.414062 C 165.753906 279.621094 165.632812 278.835938 165.53125 278.046875 L 165.390625 276.875 L 165.121094 275.71875 L 164.859375 274.566406 L 164.484375 273.445312 C 164.359375 273.070312 164.238281 272.6875 164.101562 272.324219 L 163.625 271.242188 C 163.335938 270.503906 162.917969 269.835938 162.550781 269.132812 C 162.132812 268.464844 161.734375 267.789062 161.25 267.175781 C 160.804688 266.542969 160.257812 265.921875 159.78125 265.441406 L 160.65625 265.75 C 155.878906 266 151.105469 266.296875 146.324219 266.507812 L 131.992188 267.175781 L 131.867188 267.179688 L 131.804688 267.167969 L 130.0625 266.773438 C 129.484375 266.632812 128.9375 266.375 128.375 266.179688 C 127.285156 265.703125 126.238281 265.109375 125.308594 264.363281 C 124.816406 264.03125 124.417969 263.589844 123.988281 263.183594 C 123.542969 262.789062 123.183594 262.320312 122.816406 261.863281 C 122.425781 261.421875 122.105469 260.9375 121.796875 260.445312 C 121.46875 259.960938 121.164062 259.46875 120.914062 258.945312 C 120.347656 257.929688 119.914062 256.867188 119.503906 255.800781 L 118.945312 254.179688 L 118.484375 252.535156 C 118.21875 251.433594 117.960938 250.328125 117.789062 249.207031 C 117.585938 248.09375 117.46875 246.972656 117.332031 245.855469 C 116.878906 241.371094 116.867188 236.867188 117.128906 232.402344 C 117.378906 227.929688 117.914062 223.480469 118.730469 219.089844 Z M 118.730469 219.089844 C 118.144531 223.519531 117.855469 227.976562 117.753906 232.425781 C 117.671875 236.871094 117.855469 241.328125 118.46875 245.710938 C 118.648438 246.800781 118.808594 247.894531 119.050781 248.96875 C 119.253906 250.050781 119.550781 251.113281 119.832031 252.171875 L 120.308594 253.738281 L 120.875 255.273438 C 121.289062 256.277344 121.726562 257.269531 122.273438 258.199219 C 122.515625 258.675781 122.808594 259.128906 123.117188 259.5625 C 123.410156 260.011719 123.71875 260.445312 124.078125 260.832031 C 124.421875 261.238281 124.75 261.652344 125.15625 261.988281 C 125.546875 262.339844 125.90625 262.730469 126.351562 263.003906 C 127.179688 263.644531 128.101562 264.132812 129.0625 264.523438 C 129.554688 264.679688 130.027344 264.898438 130.539062 265.011719 L 132.066406 265.316406 L 131.882812 265.308594 L 146.199219 264.304688 C 150.96875 263.945312 155.742188 263.691406 160.511719 263.375 L 161.042969 263.34375 L 161.386719 263.691406 C 162.085938 264.382812 162.636719 265.011719 163.167969 265.726562 C 163.714844 266.417969 164.167969 267.167969 164.632812 267.902344 C 165.050781 268.667969 165.507812 269.414062 165.84375 270.222656 L 166.378906 271.414062 C 166.53125 271.820312 166.664062 272.234375 166.8125 272.648438 L 167.230469 273.886719 L 167.539062 275.15625 L 167.835938 276.429688 L 168.007812 277.722656 C 168.121094 278.585938 168.257812 279.441406 168.242188 280.316406 C 168.242188 281.179688 168.320312 282.050781 168.246094 282.921875 L 168.019531 285.503906 C 167.945312 286.367188 167.707031 287.195312 167.558594 288.046875 C 167.382812 288.894531 167.234375 289.746094 166.945312 290.554688 L 166.164062 293.007812 C 165.9375 293.84375 165.519531 294.59375 165.203125 295.386719 L 164.1875 297.738281 L 161.734375 302.214844 L 161.40625 302.816406 L 160.667969 302.851562 C 157.933594 303.007812 155.261719 303.019531 152.5625 302.953125 C 149.871094 302.894531 147.179688 302.765625 144.5 302.542969 C 139.128906 302.109375 133.769531 301.359375 128.5 300.070312 C 123.253906 298.78125 118.027344 296.980469 113.347656 293.992188 C 112.1875 293.242188 111.074219 292.40625 110.011719 291.503906 C 109.488281 291.039062 108.996094 290.539062 108.488281 290.054688 C 107.929688 289.421875 107.554688 288.816406 107.195312 288.207031 C 105.75 285.777344 104.867188 283.152344 104.117188 280.515625 C 103.855469 279.167969 103.503906 277.839844 103.324219 276.484375 C 103.183594 275.128906 102.945312 273.785156 102.890625 272.425781 L 102.761719 268.351562 L 102.96875 264.304688 C 102.984375 262.945312 103.277344 261.617188 103.421875 260.277344 C 103.625 258.945312 103.722656 257.59375 104.050781 256.289062 C 104.636719 253.660156 105.101562 251.003906 105.941406 248.449219 L 107.101562 244.597656 C 107.492188 243.3125 108.03125 242.082031 108.480469 240.820312 L 109.90625 237.0625 C 110.371094 235.808594 110.988281 234.617188 111.519531 233.390625 L 113.175781 229.746094 L 114.015625 227.921875 L 114.949219 226.148438 L 118.730469 219.089844 " fill-opacity="1" fill-rule="nonzero"/></g><g clip-path="url(#id5)"><path fill="rgb(100%, 100%, 100%)" d="M 341.933594 219.089844 C 341.933594 219.089844 349.585938 263.238281 328.726562 266.238281 L 300.082031 264.566406 C 300.082031 264.566406 285.558594 277.851562 300.082031 301.511719 C 300.082031 301.511719 337.34375 303.789062 351.40625 289.199219 C 351.40625 289.199219 368.902344 269.246094 341.933594 219.089844 " fill-opacity="1" fill-rule="nonzero"/></g><g clip-path="url(#id6)"><path fill="rgb(11.759949%, 8.628845%, 7.449341%)" d="M 341.933594 219.089844 L 345.714844 226.148438 L 346.652344 227.921875 L 347.484375 229.746094 L 349.144531 233.390625 C 349.675781 234.617188 350.292969 235.808594 350.757812 237.0625 L 352.183594 240.820312 C 352.636719 242.082031 353.171875 243.3125 353.5625 244.597656 L 354.726562 248.449219 C 355.5625 251.003906 356.027344 253.660156 356.613281 256.289062 C 356.941406 257.59375 357.042969 258.945312 357.242188 260.277344 C 357.386719 261.617188 357.679688 262.945312 357.695312 264.304688 L 357.90625 268.351562 L 357.773438 272.425781 C 357.71875 273.785156 357.480469 275.128906 357.339844 276.484375 C 357.160156 277.839844 356.808594 279.167969 356.546875 280.515625 C 355.796875 283.152344 354.914062 285.777344 353.46875 288.207031 C 353.109375 288.816406 352.734375 289.421875 352.175781 290.054688 C 351.671875 290.539062 351.175781 291.039062 350.652344 291.503906 C 349.59375 292.40625 348.480469 293.242188 347.3125 293.992188 C 342.636719 296.980469 337.410156 298.78125 332.164062 300.070312 C 326.894531 301.359375 321.535156 302.109375 316.164062 302.542969 C 313.484375 302.765625 310.792969 302.894531 308.101562 302.953125 C 305.402344 303.019531 302.730469 303.007812 299.996094 302.851562 L 299.257812 302.816406 L 298.929688 302.214844 L 296.476562 297.738281 L 295.460938 295.386719 C 295.144531 294.59375 294.726562 293.84375 294.496094 293.007812 L 293.722656 290.554688 C 293.429688 289.746094 293.28125 288.894531 293.109375 288.046875 C 292.957031 287.195312 292.71875 286.367188 292.644531 285.503906 L 292.417969 282.921875 C 292.339844 282.050781 292.421875 281.179688 292.421875 280.316406 C 292.40625 279.441406 292.542969 278.585938 292.65625 277.722656 L 292.828125 276.429688 L 293.132812 275.15625 L 293.433594 273.886719 L 293.851562 272.648438 C 293.996094 272.234375 294.132812 271.820312 294.285156 271.414062 L 294.824219 270.222656 C 295.15625 269.414062 295.613281 268.667969 296.03125 267.902344 C 296.5 267.167969 296.953125 266.417969 297.496094 265.726562 C 298.027344 265.011719 298.578125 264.382812 299.277344 263.691406 L 299.621094 263.34375 L 300.144531 263.375 C 304.921875 263.691406 309.695312 263.945312 314.464844 264.304688 L 328.78125 265.308594 L 328.597656 265.316406 L 330.125 265.011719 C 330.640625 264.898438 331.109375 264.679688 331.601562 264.523438 C 332.5625 264.132812 333.484375 263.644531 334.3125 263.003906 C 334.757812 262.730469 335.117188 262.339844 335.507812 261.988281 C 335.914062 261.652344 336.242188 261.238281 336.585938 260.832031 C 336.945312 260.445312 337.253906 260.011719 337.546875 259.5625 C 337.855469 259.128906 338.148438 258.675781 338.390625 258.199219 C 338.9375 257.269531 339.375 256.277344 339.789062 255.273438 L 340.355469 253.738281 L 340.832031 252.171875 C 341.113281 251.113281 341.410156 250.050781 341.613281 248.96875 C 341.855469 247.894531 342.019531 246.800781 342.195312 245.710938 C 342.808594 241.328125 342.996094 236.871094 342.910156 232.425781 C 342.808594 227.976562 342.519531 223.519531 341.933594 219.089844 Z M 341.933594 219.089844 C 342.75 223.480469 343.285156 227.929688 343.535156 232.402344 C 343.796875 236.867188 343.785156 241.371094 343.332031 245.855469 C 343.195312 246.972656 343.078125 248.09375 342.875 249.207031 C 342.703125 250.328125 342.445312 251.433594 342.179688 252.535156 L 341.71875 254.179688 L 341.160156 255.800781 C 340.75 256.867188 340.316406 257.929688 339.75 258.945312 C 339.5 259.46875 339.195312 259.960938 338.867188 260.445312 C 338.558594 260.9375 338.238281 261.421875 337.851562 261.863281 C 337.480469 262.320312 337.125 262.789062 336.675781 263.183594 C 336.246094 263.589844 335.847656 264.03125 335.355469 264.363281 C 334.425781 265.109375 333.378906 265.703125 332.289062 266.179688 C 331.730469 266.375 331.179688 266.632812 330.601562 266.773438 L 328.859375 267.167969 L 328.800781 267.179688 L 328.675781 267.175781 L 314.339844 266.507812 C 309.558594 266.296875 304.785156 266 300.007812 265.75 L 300.882812 265.441406 C 300.40625 265.921875 299.859375 266.542969 299.414062 267.175781 C 298.929688 267.789062 298.527344 268.464844 298.109375 269.132812 C 297.746094 269.835938 297.328125 270.503906 297.039062 271.242188 L 296.5625 272.324219 C 296.417969 272.6875 296.304688 273.070312 296.179688 273.445312 L 295.804688 274.566406 L 295.542969 275.71875 L 295.273438 276.875 L 295.125 278.046875 C 295.03125 278.835938 294.910156 279.621094 294.9375 280.414062 C 294.949219 281.207031 294.871094 281.996094 294.949219 282.789062 L 295.179688 285.160156 C 295.25 285.957031 295.484375 286.730469 295.625 287.511719 C 295.792969 288.292969 295.929688 289.078125 296.210938 289.835938 L 296.953125 292.128906 C 297.167969 292.902344 297.578125 293.609375 297.878906 294.355469 L 298.855469 296.5625 L 301.222656 300.804688 L 300.164062 300.167969 C 302.753906 300.28125 305.414062 300.308594 308.054688 300.273438 C 310.691406 300.234375 313.335938 300.125 315.96875 299.933594 C 321.226562 299.546875 326.472656 298.851562 331.578125 297.648438 C 336.671875 296.4375 341.683594 294.742188 346.042969 292.003906 C 347.125 291.3125 348.152344 290.554688 349.128906 289.738281 C 349.605469 289.324219 350.050781 288.871094 350.515625 288.445312 C 350.835938 288.070312 351.183594 287.554688 351.503906 287.011719 C 352.820312 284.863281 353.738281 282.425781 354.492188 279.960938 C 354.765625 278.691406 355.136719 277.441406 355.339844 276.15625 C 355.5 274.863281 355.761719 273.582031 355.84375 272.273438 L 356.066406 268.351562 L 355.953125 264.410156 C 355.96875 263.09375 355.714844 261.789062 355.605469 260.480469 C 355.4375 259.171875 355.378906 257.847656 355.082031 256.554688 C 354.570312 253.964844 354.183594 251.34375 353.410156 248.808594 L 352.414062 244.953125 C 352.074219 243.675781 351.59375 242.429688 351.1875 241.167969 L 349.925781 237.386719 C 349.515625 236.121094 348.949219 234.914062 348.464844 233.675781 L 346.960938 229.976562 L 346.199219 228.128906 L 345.339844 226.332031 L 341.933594 219.089844 " fill-opacity="1" fill-rule="nonzero"/></g><path fill="rgb(11.759949%, 8.628845%, 7.449341%)" d="M 272.605469 320.589844 C 272.605469 325.441406 268.675781 329.371094 263.824219 329.371094 C 258.976562 329.371094 255.039062 325.441406 255.039062 320.589844 C 255.039062 315.734375 258.976562 311.804688 263.824219 311.804688 C 268.675781 311.804688 272.605469 315.734375 272.605469 320.589844 " fill-opacity="1" fill-rule="nonzero"/><path fill="rgb(11.759949%, 8.628845%, 7.449341%)" d="M 208 320.589844 C 208 325.441406 204.070312 329.371094 199.21875 329.371094 C 194.363281 329.371094 190.433594 325.441406 190.433594 320.589844 C 190.433594 315.734375 194.363281 311.804688 199.21875 311.804688 C 204.070312 311.804688 208 315.734375 208 320.589844 " fill-opacity="1" fill-rule="nonzero"/><path fill="rgb(95.289612%, 67.059326%, 56.858826%)" d="M 306.640625 403.417969 C 306.640625 425.386719 273.011719 443.203125 231.519531 443.203125 C 190.027344 443.203125 156.398438 425.386719 156.398438 403.417969 C 156.398438 381.433594 190.027344 363.621094 231.519531 363.621094 C 273.011719 363.621094 306.640625 381.433594 306.640625 403.417969 " fill-opacity="1" fill-rule="nonzero"/><path fill="rgb(11.759949%, 8.628845%, 7.449341%)" d="M 306.640625 403.417969 L 305.117188 403.417969 C 305.117188 408.507812 303.183594 413.390625 299.550781 417.949219 C 294.109375 424.777344 284.8125 430.753906 273.011719 434.96875 C 261.210938 439.195312 246.914062 441.679688 231.519531 441.679688 C 210.996094 441.679688 192.429688 437.253906 179.113281 430.199219 C 172.457031 426.679688 167.121094 422.496094 163.496094 417.949219 C 159.859375 413.390625 157.929688 408.507812 157.921875 403.417969 C 157.929688 398.320312 159.859375 393.429688 163.496094 388.878906 C 168.933594 382.046875 178.226562 376.070312 190.035156 371.851562 C 201.835938 367.628906 216.128906 365.148438 231.519531 365.148438 C 252.046875 365.140625 270.613281 369.566406 283.925781 376.625 C 290.582031 380.148438 295.917969 384.324219 299.550781 388.878906 C 303.183594 393.429688 305.117188 398.320312 305.117188 403.417969 L 308.167969 403.417969 C 308.171875 397.519531 305.898438 391.941406 301.933594 386.972656 C 295.964844 379.515625 286.210938 373.347656 274.035156 368.980469 C 261.859375 364.628906 247.238281 362.097656 231.519531 362.097656 C 210.554688 362.105469 191.566406 366.582031 177.683594 373.929688 C 170.75 377.605469 165.085938 382 161.109375 386.972656 C 157.140625 391.941406 154.875 397.519531 154.875 403.417969 C 154.875 409.304688 157.140625 414.886719 161.109375 419.855469 C 167.074219 427.304688 176.828125 433.480469 189.003906 437.84375 C 201.183594 442.199219 215.800781 444.722656 231.519531 444.730469 C 252.484375 444.722656 271.476562 440.238281 285.355469 432.894531 C 292.292969 429.222656 297.960938 424.828125 301.933594 419.855469 C 305.898438 414.886719 308.171875 409.304688 308.167969 403.417969 L 306.640625 403.417969 " fill-opacity="1" fill-rule="nonzero"/><path fill="rgb(11.759949%, 8.628845%, 7.449341%)" d="M 255.832031 407.992188 C 255.832031 413.089844 254.796875 417.222656 253.523438 417.222656 C 252.246094 417.222656 251.210938 413.089844 251.210938 407.992188 C 251.210938 402.886719 252.246094 398.753906 253.523438 398.753906 C 254.796875 398.753906 255.832031 402.886719 255.832031 407.992188 " fill-opacity="1" fill-rule="nonzero"/><path fill="rgb(11.759949%, 8.628845%, 7.449341%)" d="M 211.828125 407.992188 C 211.828125 413.089844 210.796875 417.222656 209.519531 417.222656 C 208.242188 417.222656 207.207031 413.089844 207.207031 407.992188 C 207.207031 402.886719 208.242188 398.753906 209.519531 398.753906 C 210.796875 398.753906 211.828125 402.886719 211.828125 407.992188 " fill-opacity="1" fill-rule="nonzero"/><path fill="rgb(11.759949%, 8.628845%, 7.449341%)" d="M 217.152344 228.363281 C 212.917969 229.394531 211.929688 238.898438 211.234375 242.410156 C 210.589844 245.1875 207.242188 248.367188 207.207031 250.890625 C 207.273438 256.246094 221.074219 262.730469 225.308594 264.734375 C 231.753906 268.167969 236.910156 269.800781 243.359375 265.875 C 246.777344 263.742188 249.0625 261.902344 249.507812 257.777344 C 249.574219 255.777344 248.941406 254.238281 249.621094 251.988281 C 250.394531 249.515625 251.222656 249.355469 249.507812 247.371094 C 247.226562 244.90625 243.089844 240.691406 240.238281 239 C 237.261719 237.003906 218.808594 228.027344 217.152344 228.363281 " fill-opacity="1" fill-rule="nonzero"/><path fill="rgb(11.759949%, 8.628845%, 7.449341%)" d="M 314.453125 323.886719 C 312.710938 320.878906 305.21875 322.269531 302.371094 322.53125 C 300.105469 322.660156 296.925781 320.816406 294.984375 321.363281 C 290.90625 322.613281 289.050781 334.636719 288.476562 338.328125 C 287.296875 344.027344 287.210938 348.347656 291.667969 352.394531 C 294.066406 354.527344 295.988281 355.863281 299.246094 355.273438 C 300.792969 354.875 301.824219 354.046875 303.699219 354.058594 C 305.765625 354.085938 306.078125 354.6875 307.207031 352.925781 C 308.578125 350.632812 310.871094 346.519531 311.523438 343.953125 C 312.375 341.222656 315.078125 325.078125 314.453125 323.886719 " fill-opacity="1" fill-rule="nonzero"/></svg>