<svg xmlns="http://www.w3.org/2000/svg" xmlns:xlink="http://www.w3.org/1999/xlink" width="1080" zoomAndPan="magnify" viewBox="0 0 810 809.999993" height="1080" preserveAspectRatio="xMidYMid meet" version="1.0"><defs><filter x="0%" y="0%" width="100%" xlink:type="simple" xlink:actuate="onLoad" height="100%" id="id1" xlink:show="other"><feColorMatrix values="0 0 0 0 1 0 0 0 0 1 0 0 0 0 1 0 0 0 1 0" color-interpolation-filters="sRGB"/></filter><clipPath id="id2"><path d="M 530 565 L 694.242188 565 L 694.242188 673 L 530 673 Z M 530 565 " clip-rule="nonzero"/></clipPath><clipPath id="id3"><path d="M 395 252 L 694.242188 252 L 694.242188 729 L 395 729 Z M 395 252 " clip-rule="nonzero"/></clipPath><mask id="id4"><g filter="url(#id1)"><rect x="-81" width="972" fill="rgb(0%, 0%, 0%)" y="-80.999999" height="971.999992" fill-opacity="0.098"/></g></mask><clipPath id="id5"><path d="M 215 313 L 299.242188 313 L 299.242188 421 L 215 421 Z M 215 313 " clip-rule="nonzero"/></clipPath><clipPath id="id6"><rect x="0" width="300" y="0" height="477"/></clipPath></defs><rect x="-81" width="972" fill="rgb(100%, 100%, 100%)" y="-80.999999" height="971.999992" fill-opacity="1"/><rect x="-81" width="972" fill="rgb(100%, 8.628845%, 8.628845%)" y="-80.999999" height="971.999992" fill-opacity="1"/><rect x="-81" width="972" fill="rgb(100%, 100%, 100%)" y="-80.999999" height="971.999992" fill-opacity="1"/><rect x="-81" width="972" fill="rgb(100%, 8.628845%, 8.628845%)" y="-80.999999" height="971.999992" fill-opacity="1"/><path fill="rgb(46.669006%, 46.669006%, 46.669006%)" d="M 259.421875 513.09375 C 259.421875 513.09375 214.417969 629.28125 263.308594 713.101562 C 268.8125 722.488281 304.425781 718.929688 306.367188 715.367188 C 331.296875 672 259.421875 513.09375 259.421875 513.09375 Z M 259.421875 513.09375 " fill-opacity="1" fill-rule="nonzero"/><path fill="rgb(98.039246%, 98.039246%, 98.039246%)" d="M 368.53125 132.496094 C 368.53125 132.496094 416.773438 56.441406 492.535156 90.101562 C 492.535156 90.101562 492.535156 177.808594 438.464844 212.761719 Z M 368.53125 132.496094 " fill-opacity="1" fill-rule="nonzero"/><path fill="rgb(0.779724%, 0.779724%, 0.779724%)" d="M 426.484375 198.195312 L 438.789062 212.113281 C 492.859375 177.160156 492.859375 89.777344 492.859375 89.453125 C 470.84375 105.636719 446.234375 137.027344 426.484375 198.195312 Z M 426.484375 198.195312 " fill-opacity="0.098" fill-rule="nonzero"/><path fill="rgb(46.669006%, 46.669006%, 46.669006%)" d="M 476.023438 718.929688 C 464.367188 718.605469 442.027344 719.25 432.960938 718.929688 C 397.023438 717.308594 394.433594 701.128906 392.488281 696.273438 C 392.167969 695.300781 391.519531 694.007812 390.871094 693.035156 C 387.632812 687.535156 377.597656 670.058594 370.472656 643.84375 C 366.265625 627.984375 353.636719 608.242188 342.304688 596.269531 C 340.363281 594.003906 330.328125 582.027344 318.023438 565.847656 C 296.332031 558.402344 321.585938 400.144531 352.019531 370.695312 C 354.933594 369.398438 356.226562 368.753906 356.226562 368.753906 C 356.226562 368.753906 356.226562 368.753906 356.550781 368.753906 C 366.265625 364.222656 377.921875 368.429688 382.777344 378.136719 C 390.222656 393.671875 396.375 407.914062 401.878906 417.945312 C 417.097656 445.132812 439.113281 486.234375 455.625 507.269531 C 502.570312 566.171875 501.601562 661.96875 499.65625 695.949219 C 499.332031 704.039062 495.773438 710.835938 488.324219 713.425781 " fill-opacity="1" fill-rule="nonzero"/><path fill="rgb(25.489807%, 25.489807%, 25.489807%)" d="M 255.210938 448.042969 C 256.832031 445.128906 260.394531 443.835938 263.308594 445.128906 C 271.078125 448.691406 274.316406 457.753906 270.753906 465.519531 L 235.140625 540.925781 C 233.519531 544.164062 232.546875 547.722656 231.902344 551.605469 L 228.339844 575.234375 C 227.691406 580.085938 212.800781 596.269531 207.617188 588.5 C 204.058594 583 206.972656 562.933594 208.914062 551.929688 C 208.589844 551.609375 217.980469 515.035156 255.210938 448.042969 Z M 255.210938 448.042969 " fill-opacity="1" fill-rule="nonzero"/><path fill="rgb(0.779724%, 0.779724%, 0.779724%)" d="M 456.921875 507.917969 C 440.40625 486.878906 418.390625 445.777344 403.175781 418.59375 C 397.671875 408.558594 391.519531 394.320312 384.070312 378.785156 C 379.214844 369.078125 367.558594 364.867188 357.847656 369.398438 C 357.523438 369.398438 357.523438 369.398438 357.523438 369.398438 C 357.523438 369.398438 355.90625 370.046875 353.3125 371.339844 C 349.429688 374.902344 345.867188 380.726562 341.980469 388.171875 C 357.199219 436.714844 372.09375 503.0625 400.585938 532.511719 C 443 576.203125 464.367188 653.875 478.9375 718.605469 L 489.621094 714.074219 C 497.066406 711.484375 500.628906 704.6875 500.953125 696.597656 C 502.894531 662.613281 503.867188 566.820312 456.921875 507.917969 Z M 456.921875 507.917969 " fill-opacity="0.098" fill-rule="nonzero"/><path fill="rgb(46.669006%, 46.669006%, 46.669006%)" d="M 236.757812 535.425781 C 228.988281 525.070312 224.777344 512.449219 224.128906 499.503906 C 221.21875 429.921875 249.382812 369.722656 249.382812 369.722656 C 249.382812 369.722656 249.382812 369.722656 249.707031 369.722656 L 250.03125 369.722656 C 251.652344 370.695312 261.039062 375.226562 272.371094 380.082031 C 272.695312 380.402344 274.636719 380.402344 274.960938 380.726562 C 268.488281 397.878906 248.414062 509.859375 257.800781 562.933594 Z M 236.757812 535.425781 " fill-opacity="1" fill-rule="nonzero"/><path fill="rgb(94.119263%, 94.119263%, 94.119263%)" d="M 302.484375 719.25 C 327.414062 726.695312 358.496094 730.578125 405.117188 708.570312 L 412.5625 708.246094 C 416.773438 682.035156 352.34375 590.769531 336.800781 570.054688 C 334.535156 567.140625 332.917969 563.257812 331.945312 559.699219 C 319.320312 505.003906 329.03125 394.96875 358.816406 366.488281 C 358.816406 366.488281 317.375 384.933594 306.042969 384.933594 C 297.949219 384.933594 285 380.726562 273.667969 376.195312 L 273.667969 376.84375 C 267.191406 393.996094 217.65625 461.636719 238.699219 558.082031 C 238.375 557.433594 284.675781 713.75 302.484375 719.25 Z M 302.484375 719.25 " fill-opacity="1" fill-rule="nonzero"/><path fill="rgb(98.039246%, 98.039246%, 98.039246%)" d="M 240.320312 132.496094 C 240.320312 132.496094 192.078125 56.441406 116.316406 90.101562 C 116.316406 90.101562 116.316406 177.808594 170.386719 212.761719 Z M 240.320312 132.496094 " fill-opacity="1" fill-rule="nonzero"/><path fill="rgb(46.669006%, 46.669006%, 46.669006%)" d="M 388.605469 142.855469 C 335.832031 108.226562 273.667969 108.871094 220.570312 143.824219 C 194.667969 160.976562 156.140625 220.203125 156.140625 266.808594 C 156.140625 310.496094 456.273438 318.914062 456.273438 275.546875 C 456.597656 228.617188 414.832031 159.683594 388.605469 142.855469 Z M 388.605469 142.855469 " fill-opacity="1" fill-rule="nonzero"/><path fill="rgb(98.039246%, 98.039246%, 98.039246%)" d="M 304.75 295.933594 C 260.394531 295.933594 226.074219 359.042969 226.074219 359.042969 C 294.386719 398.851562 317.050781 403.058594 385.042969 358.71875 C 385.367188 358.71875 349.105469 295.933594 304.75 295.933594 Z M 304.75 295.933594 " fill-opacity="1" fill-rule="nonzero"/><path fill="rgb(98.039246%, 98.039246%, 98.039246%)" d="M 229.3125 360.339844 C 148.691406 324.414062 151.605469 319.558594 151.605469 299.171875 C 151.605469 231.855469 221.863281 188.808594 241.613281 191.722656 C 289.855469 198.84375 292.445312 302.730469 292.445312 302.730469 Z M 229.3125 360.339844 " fill-opacity="1" fill-rule="nonzero"/><path fill="rgb(98.039246%, 98.039246%, 98.039246%)" d="M 318.671875 302.40625 C 318.671875 302.40625 320.9375 198.519531 368.855469 191.398438 C 388.605469 188.488281 461.453125 230.882812 461.453125 297.875 C 461.453125 318.589844 456.921875 329.269531 381.160156 360.015625 " fill-opacity="1" fill-rule="nonzero"/><path fill="rgb(46.669006%, 46.669006%, 46.669006%)" d="M 318.671875 299.171875 C 318.671875 308.234375 312.519531 313.410156 305.398438 313.410156 C 298.273438 313.410156 292.121094 307.910156 292.121094 298.847656 C 292.121094 289.785156 298.273438 284.285156 305.398438 284.285156 C 312.519531 284.285156 318.671875 290.109375 318.671875 299.171875 Z M 318.671875 299.171875 " fill-opacity="1" fill-rule="nonzero"/><path fill="rgb(98.039246%, 98.039246%, 98.039246%)" d="M 663.808594 663.261719 C 654.417969 675.882812 643.085938 689.476562 628.515625 702.746094 C 572.179688 753.878906 494.152344 713.75 492.535156 712.132812 C 492.535156 712.132812 523.941406 690.449219 533.976562 652.90625 C 626.898438 688.507812 661.21875 664.878906 663.808594 663.261719 Z M 663.808594 663.261719 " fill-opacity="1" fill-rule="nonzero"/><path fill="rgb(98.039246%, 98.039246%, 98.039246%)" d="M 647.621094 429.921875 C 647.621094 429.921875 590.3125 471.34375 513.902344 438.980469 C 513.902344 425.710938 514.875 413.089844 516.167969 401.441406 C 517.140625 394.320312 518.113281 387.523438 519.40625 381.050781 C 519.40625 381.050781 579.628906 398.527344 624.632812 381.375 C 626.25 387.847656 628.195312 390.113281 630.136719 394.644531 C 631.753906 397.878906 633.050781 401.441406 634.667969 404.675781 C 637.90625 413.089844 642.4375 420.859375 647.621094 429.921875 Z M 647.621094 429.921875 " fill-opacity="1" fill-rule="nonzero"/><path fill="rgb(98.039246%, 98.039246%, 98.039246%)" d="M 693.59375 565.199219 C 691.328125 567.464844 639.203125 613.746094 530.089844 585.914062 C 524.265625 557.109375 520.703125 533.484375 518.761719 516.007812 C 618.15625 548.046875 676.757812 491.410156 676.757812 491.410156 C 681.292969 503.710938 685.5 517.625 688.738281 533.808594 C 691.328125 544.8125 692.945312 555.492188 693.59375 565.199219 Z M 693.59375 565.199219 " fill-opacity="1" fill-rule="nonzero"/><path fill="rgb(46.669006%, 46.669006%, 46.669006%)" d="M 519.40625 381.050781 C 540.453125 273.925781 616.863281 255.15625 620.746094 253.863281 C 617.832031 255.480469 584.808594 278.457031 624.308594 381.050781 C 579.628906 400.46875 519.40625 381.050781 519.40625 381.050781 Z M 519.40625 381.050781 " fill-opacity="1" fill-rule="nonzero"/><path fill="rgb(46.669006%, 46.669006%, 46.669006%)" d="M 515.847656 478.140625 C 514.550781 464.226562 514.226562 451.28125 514.226562 438.980469 C 590.3125 471.023438 647.941406 429.921875 647.941406 429.921875 C 657.007812 446.101562 667.691406 465.195312 677.082031 491.410156 C 677.082031 491.410156 618.480469 548.046875 519.082031 516.007812 C 515.847656 491.410156 515.847656 478.140625 515.847656 478.140625 Z M 515.847656 478.140625 " fill-opacity="1" fill-rule="nonzero"/><g clip-path="url(#id2)"><path fill="rgb(46.669006%, 46.669006%, 46.669006%)" d="M 663.808594 662.9375 C 663.808594 662.9375 663.808594 663.261719 663.808594 662.9375 C 661.21875 664.878906 626.898438 688.507812 533.976562 652.90625 C 537.539062 639.636719 538.507812 624.75 534.949219 608.242188 C 533.328125 600.476562 531.386719 593.03125 530.089844 585.914062 C 639.203125 614.070312 691.328125 567.464844 693.59375 565.199219 C 696.832031 604.035156 686.472656 632.839844 663.808594 662.9375 Z M 663.808594 662.9375 " fill-opacity="1" fill-rule="nonzero"/></g><path fill="rgb(46.669006%, 46.669006%, 46.669006%)" d="M 386.015625 144.796875 C 386.015625 144.796875 416.773438 95.28125 465.339844 117.285156 C 465.339844 117.285156 465.339844 173.921875 430.695312 196.902344 Z M 386.015625 144.796875 " fill-opacity="1" fill-rule="nonzero"/><path fill="rgb(46.669006%, 46.669006%, 46.669006%)" d="M 222.835938 144.796875 C 222.835938 144.796875 192.078125 95.28125 143.511719 117.285156 C 143.511719 117.285156 143.511719 173.921875 178.15625 196.902344 Z M 222.835938 144.796875 " fill-opacity="1" fill-rule="nonzero"/><path fill="rgb(46.669006%, 46.669006%, 46.669006%)" d="M 235.140625 356.453125 C 232.226562 359.367188 227.691406 360.015625 224.128906 358.394531 C 190.136719 343.832031 173.945312 335.417969 170.0625 332.183594 C 165.203125 328.296875 163.261719 317.617188 164.558594 312.117188 C 176.535156 262.277344 224.128906 230.234375 239.347656 232.179688 C 270.429688 236.707031 276.582031 294.640625 277.550781 312.117188 C 277.875 315.027344 276.582031 318.265625 274.316406 320.207031 Z M 235.140625 356.453125 " fill-opacity="1" fill-rule="nonzero"/><path fill="rgb(46.669006%, 46.669006%, 46.669006%)" d="M 375.652344 356.453125 C 378.566406 359.367188 383.101562 360.015625 386.664062 358.394531 C 420.65625 343.832031 436.847656 335.417969 440.730469 332.183594 C 445.589844 328.296875 447.53125 317.617188 446.234375 312.117188 C 434.257812 262.277344 386.664062 230.234375 371.445312 232.179688 C 340.363281 236.707031 334.210938 294.640625 333.242188 312.117188 C 332.917969 315.027344 334.210938 318.265625 336.476562 320.207031 Z M 375.652344 356.453125 " fill-opacity="1" fill-rule="nonzero"/><path fill="rgb(25.489807%, 25.489807%, 25.489807%)" d="M 237.082031 293.34375 C 237.082031 287.519531 239.671875 282.664062 242.910156 282.664062 C 246.148438 282.664062 248.738281 287.519531 248.738281 293.34375 C 248.738281 299.171875 246.148438 304.023438 242.910156 304.023438 C 239.671875 304.023438 237.082031 299.171875 237.082031 293.34375 Z M 237.082031 293.34375 " fill-opacity="1" fill-rule="nonzero"/><path fill="rgb(25.489807%, 25.489807%, 25.489807%)" d="M 365.941406 293.34375 C 365.941406 287.519531 368.53125 282.664062 371.769531 282.664062 C 375.007812 282.664062 377.597656 287.519531 377.597656 293.34375 C 377.597656 299.171875 375.007812 304.023438 371.769531 304.023438 C 368.53125 304.023438 365.941406 299.171875 365.941406 293.34375 Z M 365.941406 293.34375 " fill-opacity="1" fill-rule="nonzero"/><path fill="rgb(25.489807%, 25.489807%, 25.489807%)" d="M 307.339844 348.363281 C 317.699219 348.363281 326.441406 340.917969 326.441406 335.417969 C 326.441406 331.859375 315.433594 330.238281 307.664062 330.238281 C 298.273438 330.238281 289.207031 331.859375 289.207031 335.417969 C 288.882812 340.597656 296.980469 348.363281 307.339844 348.363281 Z M 307.339844 348.363281 " fill-opacity="1" fill-rule="nonzero"/><path fill="rgb(25.489807%, 25.489807%, 25.489807%)" d="M 433.285156 722.164062 C 433.285156 722.164062 432.960938 702.746094 421.953125 702.746094 C 410.945312 702.746094 376.949219 702.746094 376.949219 722.164062 Z M 433.285156 722.164062 " fill-opacity="1" fill-rule="nonzero"/><path fill="rgb(25.489807%, 25.489807%, 25.489807%)" d="M 302.484375 722.164062 C 302.484375 722.164062 302.160156 702.746094 291.152344 702.746094 C 280.144531 702.746094 246.148438 702.746094 246.148438 722.164062 Z M 302.484375 722.164062 " fill-opacity="1" fill-rule="nonzero"/><path fill="rgb(25.489807%, 25.489807%, 25.489807%)" d="M 351.695312 519.890625 C 352.667969 518.273438 355.90625 516.976562 359.140625 517.625 C 366.914062 518.921875 371.445312 523.773438 369.179688 528.304688 L 346.515625 573.292969 C 345.542969 575.234375 344.894531 577.5 344.894531 579.441406 L 344.894531 592.710938 C 344.894531 595.296875 333.242188 605.976562 327.089844 602.09375 C 322.878906 599.183594 322.554688 587.855469 322.878906 581.707031 C 322.878906 581.382812 326.441406 560.34375 351.695312 519.890625 Z M 351.695312 519.890625 " fill-opacity="1" fill-rule="nonzero"/><path fill="rgb(0.779724%, 0.779724%, 0.779724%)" d="M 461.453125 298.199219 C 461.453125 263.570312 442.351562 235.738281 420.980469 216.96875 C 410.945312 252.890625 402.527344 297.550781 397.347656 353.867188 C 457.242188 327.972656 461.453125 317.292969 461.453125 298.199219 Z M 461.453125 298.199219 " fill-opacity="0.098" fill-rule="nonzero"/><g clip-path="url(#id3)"><g mask="url(#id4)"><g transform="matrix(1, 0, 0, 1, 395, 252)"><g clip-path="url(#id6)"><path fill="rgb(0.779724%, 0.779724%, 0.779724%)" d="M 252.621094 177.921875 C 252.621094 177.921875 229.308594 194.425781 193.046875 198.308594 C 202.757812 217.402344 215.386719 238.117188 225.746094 267.890625 C 262.007812 258.183594 281.757812 239.085938 281.757812 239.085938 C 272.371094 213.195312 261.683594 194.101562 252.621094 177.921875 Z M 252.621094 177.921875 " fill-opacity="1" fill-rule="nonzero"/><path fill="rgb(0.779724%, 0.779724%, 0.779724%)" d="M 229.632812 129.050781 C 193.695312 35.84375 217.652344 8.335938 224.777344 3.15625 C 225.097656 2.832031 225.097656 2.507812 225.421875 2.183594 C 225.097656 2.183594 224.453125 2.507812 223.804688 2.507812 C 198.875 23.867188 171.355469 59.792969 173.621094 114.488281 C 173.945312 121.929688 174.589844 129.375 175.5625 137.464844 C 193.046875 138.4375 212.472656 136.496094 229.632812 129.050781 Z M 229.632812 129.050781 " fill-opacity="1" fill-rule="nonzero"/><path fill="rgb(0.779724%, 0.779724%, 0.779724%)" d="M 235.136719 142.644531 C 233.195312 137.789062 231.574219 135.847656 229.632812 129.375 C 212.472656 135.847656 193.046875 138.113281 175.5625 137.464844 C 176.535156 145.554688 177.828125 154.617188 179.773438 163.679688 C 182.039062 175.65625 186.894531 186.65625 193.046875 198.632812 C 229.632812 194.75 252.621094 178.242188 252.621094 178.242188 C 247.761719 169.183594 243.230469 161.414062 239.34375 153.324219 C 238.050781 149.441406 236.429688 145.878906 235.136719 142.644531 Z M 235.136719 142.644531 " fill-opacity="1" fill-rule="nonzero"/><path fill="rgb(0.779724%, 0.779724%, 0.779724%)" d="M 215.386719 420 C 191.75 454.628906 159.699219 474.695312 157.109375 476.636719 C 181.390625 477.929688 209.234375 472.753906 233.515625 451.070312 C 248.085938 437.800781 259.09375 424.207031 268.808594 411.585938 C 266.867188 412.234375 251.972656 422.914062 215.386719 420 Z M 215.386719 420 " fill-opacity="1" fill-rule="nonzero"/><g clip-path="url(#id5)"><path fill="rgb(0.779724%, 0.779724%, 0.779724%)" d="M 298.59375 313.199219 C 296.976562 314.496094 278.519531 331 241.289062 338.769531 C 241.613281 370.808594 229.957031 398.316406 215.386719 420 C 251.972656 422.914062 266.867188 412.558594 268.808594 411.261719 L 269.132812 410.9375 C 291.472656 380.839844 301.832031 352.035156 298.59375 313.199219 Z M 298.59375 313.199219 " fill-opacity="1" fill-rule="nonzero"/></g><path fill="rgb(0.779724%, 0.779724%, 0.779724%)" d="M 293.738281 281.484375 C 290.175781 265.625 286.292969 251.386719 281.757812 239.085938 C 281.757812 239.085938 262.007812 258.183594 225.746094 267.890625 C 231.898438 286.015625 237.726562 307.050781 241.289062 333.589844 C 241.289062 335.207031 241.289062 337.148438 241.613281 338.769531 C 278.84375 331 297.625 314.496094 298.917969 313.199219 C 297.945312 303.492188 296.328125 292.8125 293.738281 281.484375 Z M 293.738281 281.484375 " fill-opacity="1" fill-rule="nonzero"/><path fill="rgb(0.779724%, 0.779724%, 0.779724%)" d="M 45.730469 80.183594 C 50.589844 76.296875 52.53125 65.617188 51.234375 60.117188 C 45.40625 36.167969 31.484375 16.425781 16.917969 2.183594 C 10.765625 30.664062 4.9375 63.675781 2.023438 101.542969 C 29.21875 89.890625 42.171875 82.769531 45.730469 80.183594 Z M 45.730469 80.183594 " fill-opacity="1" fill-rule="nonzero"/></g></g></g></g><path fill="rgb(0.779724%, 0.779724%, 0.779724%)" d="M 428.105469 193.664062 L 430.695312 196.578125 C 462.746094 175.542969 465.015625 124.40625 465.339844 117.933594 C 452.0625 135.410156 439.4375 159.683594 428.105469 193.664062 Z M 428.105469 193.664062 " fill-opacity="0.098" fill-rule="nonzero"/></svg>